<?xml version="1.0" standalone="no"?>
<!DOCTYPE svg PUBLIC "-//W3C//DTD SVG 1.1//EN" "http://www.w3.org/Graphics/SVG/1.1/DTD/svg11.dtd" >
<svg xmlns="http://www.w3.org/2000/svg" xmlns:xlink="http://www.w3.org/1999/xlink" version="1.1">
<metadata>
Created by FontForge 20170731 at Mon Jan 25 12:02:42 2016
 By Aleksey,,,
Copyright (c) 2011 by Pablo Impallari (www.impallari.com impallari@gmail.com). Igino Marini (www.ikern.com)
</metadata>
<defs>
<font id="MiltonianTattoo-Regular" horiz-adv-x="580" >
  <font-face 
    font-family="Miltonian Tattoo"
    font-weight="400"
    font-stretch="normal"
    units-per-em="1000"
    panose-1="4 6 5 5 6 9 2 4 0 4"
    ascent="800"
    descent="-200"
    x-height="415"
    cap-height="686"
    bbox="-17 -274 1130 918"
    underline-thickness="0"
    underline-position="0"
    unicode-range="U+0020-1F33F"
  />
<missing-glyph horiz-adv-x="0" 
 />
    <glyph glyph-name=".notdef" horiz-adv-x="0" 
 />
    <glyph glyph-name=".null" horiz-adv-x="0" 
 />
    <glyph glyph-name="nonmarkingreturn" horiz-adv-x="212" 
 />
    <glyph glyph-name="space" unicode=" " horiz-adv-x="240" 
 />
    <glyph glyph-name="exclam" unicode="!" horiz-adv-x="322" 
d="M87 163q34 24 88 24q45 -1 63 -49q12 -30 11 -61t-8 -44.5t-19 -22.5q-24 -17 -53 -17t-48.5 6.5t-35.5 18.5t-26 29t-10 41t10.5 43.5t27.5 31.5zM67 443l20 208q11 37 63 37q86 0 118 -48q12 -18 11 -44l-62 -299q-5 -19 -18.5 -37.5t-40 -18.5t-45.5 23.5t-29 55.5
q-16 52 -17 123z" />
    <glyph glyph-name="quotedbl" unicode="&#x22;" horiz-adv-x="483" 
d="M147 402l-57 1q-16 5 -26 20.5t-17 29.5q10 0 11.5 2.5t1.5 17t-4 37.5q-4 24 -9 46q-13 58 -13 91q0 23 8 28.5t24 5.5l124 -11q12 -3 12 -18q0 -72 -18 -243q-11 -7 -37 -7zM388 402l-57 1q-24 7 -42 50q9 0 10.5 2.5t1.5 17t-4 37.5q-4 24 -9 46q-13 58 -13 91
q0 23 8 28.5t24 5.5l124 -11q12 -3 12 -18q0 -72 -18 -243q-11 -7 -37 -7z" />
    <glyph glyph-name="numbersign" unicode="#" horiz-adv-x="563" 
d="M306 185l-5 1q-4 -1 -14 -2.5t-21 -4t-20.5 -4t-16.5 -4t-13 -23.5t-10 -46q-6 -39 -5.5 -70t3.5 -36.5t3 -14t-8 -17.5t-16 -9q-25 0 -25 25q0 46 8.5 92.5t8.5 92.5l-23 1l-26 1q-20 0 -26 -3.5t-6 -17.5t2 -17q-9 6 -11.5 16.5t-13.5 15.5q-8 3 -15.5 5.5t-13.5 6.5
q-14 9 -14.5 26.5t9.5 17.5l75 -7q23 0 34 7l-38 68q-4 -1 -12 -1q-32 0 -32 23q0 31 56 33q12 0 20 2q8 0 22 2q28 3 58 9l62 235q3 14 19 14q12 0 12 -23l-1 -9l-49 -199v-10l36 -2q45 0 51 25l50 192q2 8 10.5 20t17 12t12.5 -7t4 -14l-1 -11l-60 -207h116q11 0 18 -8
t7 -23.5t-12 -15.5h-137l-19 -93l137 -12q4 -1 11.5 -5.5t7.5 -8.5t-3 -14t-4 -10h-159l-34 -161v-7q0 -13 7.5 -24t7.5 -24q-11 0 -20 -4t-20 -4q-18 0 -18 29l1 16l36 173v12zM104 121q0 -3 -2.5 -3t-2.5 2.5t2 2.5t3 -1v-1zM124 296q0 -15 16 -37q30 -43 43 -43
q19 0 24 58q1 12 1 18q0 12 -15.5 12t-33 -4t-35.5 -4zM229 221q54 0 83 8q11 -1 19 61q2 16 2 27q-33 0 -82 -7q-22 -46 -22 -89z" />
    <glyph glyph-name="dollar" unicode="$" horiz-adv-x="473" 
d="M435 587v-13l-10 -21l-30 -57q-12 -22 -14 -27q-5 -11 -14 -15q-6 0 -16 11.5t-10 14.5q0 15 5.5 27t7.5 14q-20 12 -42.5 13.5t-37.5 1.5q-38 0 -40 -2l-14 -26v-161q13 -3 29 -10q34 -14 38.5 -16.5t13.5 -6.5t17.5 -8.5t15 -7.5t8.5 -5q3 -3 14 -13l24 -23l24 -25
l19 -20q12 -13 12 -48.5t-17.5 -58.5t-45 -34.5t-61 -16t-64.5 -13.5q-15 -5 -16 -20v-12v-20q2 -17 -0.5 -30t-22.5 -13q-8 0 -16 2q-10 3 -13.5 21.5t-5.5 31.5q-5 32 -5 40q-40 27 -88 27h-6l-40 -14q-1 2 -1 10v10q0 39 34 90q10 14 20 23q2 2 -2.5 4t-2.5 2
q0 -19 8.5 -43.5t10.5 -27.5t8.5 -7.5t14.5 -8.5q20 -10 28 -11.5t23 -0.5t32.5 3t32.5 4t21 2v191q0 11 -74 20q-38 5 -46.5 7t-24 10.5t-31.5 20.5q-38 29 -38 51t9 46q9 23 23 45q29 42 75 67l40 13q6 2 16 7t10.5 6.5t3 11.5t4.5 21l4 21q2 9 3 15q4 21 12 38q4 3 10 5
l11 4q6 2 13 2v-118q0 -2 12.5 -7t20.5 -6l16 -1h34q16 0 17 0.5t5 5t8.5 9t8 8.5t5.5 4.5t12 -4.5t15 -9z" />
    <glyph glyph-name="percent" unicode="%" horiz-adv-x="793" 
d="M245 -24l72 7q0 -16 -7.5 -30.5t-27.5 -14.5h-174q-7 0 -13 6t-6 13q0 20 19 25q4 1 16 2.5t24 3.5l24 4q12 2 17 2l323 540l-69 12q-6 1 -6 11.5t8.5 17t16.5 8.5q4 -1 16 -1h42q18 0 25 0.5t18 7t16.5 6.5t11 -3.5t13.5 -3.5l50 7h2q8 0 15.5 -5.5t7.5 -14t-5 -13
t-11.5 -7t-14 -3t-13.5 -1.5q-7 -2 -17 -4l-20 -4l-25 -4l-19 -19l-328 -533q-1 -1 -1 -2q0 -5 7.5 -7.5t12.5 -2.5zM596 287q165 0 165 -122q0 -18 -5.5 -39t-18 -51t-32.5 -51q-41 -43 -118 -43q-56 0 -95 41q-38 40 -38 98q0 62 40 113q42 54 102 54zM660 146
q0 103 -42 103q-30 0 -44 -44q-8 -28 -8 -69l1 -31q7 -29 18 -54.5t13 -25.5h6q3 1 13 9l16 13q6 5 14 15q13 18 13 84zM34 381l-1 26v9q0 52 17.5 92t57.5 75q26 13 71 13q31 0 75 -45q42 -43 41 -67v-74l-50 -93q-19 -32 -65 -42q-14 -3 -29 -3t-33 10t-34 24
q-28 26 -50 66v9zM183 546q-22 0 -29 -39q-3 -16 -3 -33v-28q0 -16 0.5 -28.5t0.5 -25.5q1 -15 6 -57q21 36 25.5 65t5.5 50t1 49.5t-7 46.5z" />
    <glyph glyph-name="ampersand" unicode="&#x26;" horiz-adv-x="719" 
d="M550 55q-50 19 -73 23q-4 0 -27 -14l-40 -27l-27 -14q-28 -18 -54 -22.5t-55 -4.5h-36q-90 0 -145 51q-57 53 -57 140v21q0 14 1 17t7 17q8 14 16 31l16 33q12 22 22 34l20 23q25 29 26 33t1 10v14l-1 76v8q0 6 5.5 33.5t11 48.5t17.5 42q12 22 32 34q30 18 111 17
q28 0 46 -9q20 -10 70 -47q26 -18 26 -72q0 -51 -54 -123q-20 -27 -43 -49l-68 -67l-35 -35q39 -49 141 -107q50 -28 59.5 -28t27 14.5t35.5 34.5q43 49 44 72l1 25v66l-1 30q-11 19 -67 27v26h200v-26q-17 0 -40 -6t-27 -8.5t-9 -20.5t-9 -42q-8 -58 -8 -97q-2 -2 -7 -6.5
t-7 -6.5l-67 -94v-7q0 -18 19 -24t42 -9.5t42 -9.5t19 -24.5t-23.5 -18.5t-41.5 5.5t-36 12.5zM240 66q8 -8 20 -14q27 -15 44 -15q3 0 25 5.5t27.5 7.5t17.5 7.5t23 12.5q28 18 28 27q0 6 -57 43q-58 37 -64 42l-18 14l-23 19q-31 23 -37.5 23t-13 -10.5t-10 -25t-5 -29
t-1.5 -30t4 -33.5t17 -28zM246 627q-22 -11 -33 -29q-17 -29 -17 -102v-59l53 35q27 18 50 40q52 49 57 111q-12 12 -24.5 13t-38.5 1t-47 -10z" />
    <glyph glyph-name="quotesingle" unicode="'" horiz-adv-x="242" 
d="M147 402l-57 1q-16 5 -26 20.5t-17 29.5q10 0 11.5 2.5t1.5 17t-4 37.5q-4 24 -9 46q-13 58 -13 91q0 23 8 28.5t24 5.5l124 -11q12 -3 12 -18q0 -72 -18 -243q-11 -7 -37 -7z" />
    <glyph glyph-name="parenleft" unicode="(" horiz-adv-x="400" 
d="M355 696q18 0 18 -14q0 -12 -23 -20q-10 -4 -22 -7.5t-24 -9.5q-113 -59 -120 -221q-2 -44 -2 -71t2 -45q3 -16 11 -42q20 -60 64.5 -122.5t67.5 -76.5t39 -17.5t24 -4.5t8 -17q0 -28 -59 -28q-64 0 -139 54q-117 86 -161 210q-14 40 -14.5 73.5t8 71t25.5 76.5t44 77
t63 68q80 66 190 66z" />
    <glyph glyph-name="parenright" unicode=")" horiz-adv-x="400" 
d="M2 28q0 16 8 17t23.5 4.5t39 17.5t55.5 58.5t50.5 79.5t26.5 61q12 38 12.5 75.5t-1.5 82t-14 86.5q-27 93 -106 135q-12 6 -24 9.5t-22 7.5q-23 8 -23 21t18 13q158 0 253 -134q51 -72 69 -154q8 -38 8.5 -71t-14 -73.5t-38.5 -78.5t-56 -71.5t-67 -59.5
q-75 -54 -136.5 -54t-61.5 28z" />
    <glyph glyph-name="asterisk" unicode="*" horiz-adv-x="343" 
d="M167 529q-5 -5 -56 -39h-7q-8 0 -13.5 6t-5.5 15.5t13 17.5h-7q-11 0 -19 -7t-17.5 -7t-15 6t-5.5 14l1 6q4 2 15 7l23 11l23 11q21 10 24 15t3 15t-4 18t-10 14q-14 17 -15 39q15 0 25 -11q8 -11 14 -18q14 -18 26 -12q4 2 8 5v57h31v-63q30 32 78 32q0 -24 -14 -45
q28 -9 37 -25q-37 -13 -88 -25q10 -16 33 -26t35 -17t20 -19q0 -4 -5 -9t-7 -5t-16.5 5t-19.5 7.5t-13.5 5.5t-17.5 7q-21 9 -28 14v-89h-25v89z" />
    <glyph glyph-name="plus" unicode="+" horiz-adv-x="459" 
d="M280 179l117 7q35 0 35 -16q-7 -14 -7 -16l-155 -25q-1 -9 -1 -18v-27q0 -32 4 -63t4 -63q0 -15 -17 -15q-30 1 -32 123q0 32 -1 57l-13 1l-7 -1h-5q-53 -6 -100 -14.5t-55 -9.5q-20 10 -20 21q0 24 20 28l173 25l7 6q0 127 10 164q3 11 15 11t12 -8v-160q0 -7 16 -7z
" />
    <glyph glyph-name="comma" unicode="," horiz-adv-x="214" 
d="M58 -33l-16 48q0 34 43 50q11 4 22 4q33 0 49 -20.5t16 -54.5q0 -26 -9 -36.5t-24.5 -26.5t-33.5 -31q-43 -36 -70 -36t-27 10t8 17q7 7 17 15q26 20 26 49z" />
    <glyph glyph-name="hyphen" unicode="-" horiz-adv-x="510" 
d="M428 232q-120 -8 -186 -8h-127q-60 0 -60 23q0 17 26 29l194 -6l144 6q14 0 24 -3t10 -16q0 -25 -25 -25z" />
    <glyph glyph-name="period" unicode="." horiz-adv-x="216" 
d="M46 10q-6 10 -6 23.5t7.5 25t19.5 19.5q39 18 50 18h2q27 0 39.5 -17t12.5 -42.5t-17.5 -42.5t-46.5 -17q-40 0 -61 33z" />
    <glyph glyph-name="slash" unicode="/" horiz-adv-x="367" 
d="M54 -18q-18 0 -18 17q0 19 91 247l13 33q14 36 23 68q32 123 100 257q33 64 50 65q6 0 13.5 -5t7.5 -12t-13 -44.5t-33 -90.5l-45 -114l-47 -117l-40 -99l-24 -61l-19 -44q-11 -26 -22 -48q-26 -52 -37 -52z" />
    <glyph glyph-name="zero" unicode="0" horiz-adv-x="669" 
d="M105 536q22 41 52 72q67 68 159 68t151.5 -29.5t95.5 -75.5q64 -84 64 -209q0 -139 -92 -257q-42 -53 -100.5 -79.5t-115.5 -26.5t-105.5 23t-86 61.5t-60.5 88t-23 96.5t6 92.5t19.5 90t35.5 85.5zM224 275q-1 -49 19 -109q17 -51 56 -116q4 -7 32 -7t59 12t39.5 49.5
t13.5 63.5q6 26 8 50q4 42 4 85t-1 73t-5 63.5t-12 68.5q-8 34 -20 62q-28 61 -75 61q-41 0 -71 -46q-33 -51 -33 -142q0 -38 -7 -78t-7 -90z" />
    <glyph glyph-name="one" unicode="1" horiz-adv-x="525" 
d="M48 -13q-12 8 -12 22q0 16 12 22q41 0 75.5 5.5t36.5 6.5q0 32 2 70q0 38 2 77q3 73 3 109v25q-1 12 -1 23q0 15 2 27l4 44q3 25 3 45q0 23 -4 37q-28 0 -51 -4t-60.5 -4t-37.5 27q0 7 6.5 12t12.5 6h10q68 0 93 8q25 7 39 13l25 10q11 4 13 6l158 122h27q0 -14 3 -31
q1 -6 1 -12q0 -10 -3 -19l-2 -162q0 -82 -9 -198q-10 -115 -12 -151q-3 -46 -3 -65q0 -14 2 -14l112 -13q12 -2 15.5 -8.5t3.5 -14t-0.5 -14.5t-8.5 -7l-53 3l-332 -3h-72z" />
    <glyph glyph-name="two" unicode="2" horiz-adv-x="602" 
d="M262 0q-28 7 -61 7t-62 -4t-51.5 -4t-29.5 5.5t-7 23.5q0 7 17 13q18 7 42 13l52 12q26 6 36 10q11 4 23 12l27 17q65 39 70.5 46.5t5.5 15.5l-1 25q8 252 8 437q0 8 -5 9t-17 1t-42 -6q-30 -5 -59 -17q-71 -28 -71 -70t49 -86q13 -12 26 -20l1 -6q-1 -18 -59 -54
q-55 -34 -67.5 -34t-22 12t-15.5 28q-11 30 -11 50v30l4 18q5 19 15 43q83 116 191 141q39 9 85 9t80 -21q34 -22 57 -54q46 -65 46 -149l-56 -168q-80 -158 -223 -235v-6q0 -8 50 -11t52 -3l159 7q2 13 4 38t7 50q12 62 47 62l-3 -69l-3 -31q-2 -19 -4 -37t-3.5 -31
t-2.5 -13l-5 -6h-273z" />
    <glyph glyph-name="three" unicode="3" horiz-adv-x="586" 
d="M501 613l-1 -3v-2l-137 -168v-12q80 -18 131 -84q50 -65 50 -136.5t-25 -107.5t-66 -56q-66 -32 -196 -32q-79 0 -139 27q-78 35 -78 107q0 10 1.5 19t16.5 9t24.5 -12.5t17.5 -28.5l14 -31q8 -16 20 -22q52 -25 112 -25l25 1l6 6v10l1 44v19q0 144 -7 231q-14 0 -28 -9
q-25 -17 -40 -17t-20.5 2t-5.5 16.5t9.5 24.5t22.5 16.5t26.5 11.5t22.5 10l1 41q0 68 -13 146q-20 7 -63 7l-74 -1l-13 -6q3 -15 3 -45t-14 -49q-7 0 -15.5 1t-9.5 12l-6 111q0 20 56 20q47 0 108 -9q114 -17 161 -17l95 7q27 0 27 -26z" />
    <glyph glyph-name="four" unicode="4" horiz-adv-x="619" 
d="M582 40q6 0 6 -16v-11q0 -11 -6 -13q-214 -13 -461 -13q-14 0 -28 3t-14 21.5t13 22t23 3.5q9 0 35 1l54 2q30 1 52 2l22 1l6 6l1 69q0 118 -18 118q-13 0 -26 -7h-211q-7 0 -19.5 6.5t-12.5 15.5v2q0 1 1 1l390 453l7 1q22 0 32 -36q8 -26 8 -61t-3 -47l31 -267
q-1 -1 -1 -5v-7q0 -19 8 -19h74q1 0 3.5 7t2.5 15t-3.5 21t-3.5 19q0 12 16 13q30 0 30 -70l-2 -35l-12 -13l-112 -12q-1 -5 -1 -9v-15q0 -38 6.5 -74t6.5 -73h106zM67 272h201q0 52 -8 103t-8 103h-11z" />
    <glyph glyph-name="five" unicode="5" horiz-adv-x="620" 
d="M598 567q0 -78 -34 -78q-4 0 -10 0.5t-6 6.5v118l-234 -32l-71 -217l107 -11l124 -63q45 -22 45 -106q-1 -58 -23 -95q-8 -14 -22 -22l-143 -87q-25 -7 -40 -9t-31 -2q-1 0 -1 -1q-16 -1 -57 11q-43 12 -85 32.5t-72.5 49t-30.5 58t23 29.5q25 0 28 -19l81 -81
q27 -29 99 -31q18 0 36 -0.5t25 7.5l2 71q0 95 -20 226l-28 1q-30 1 -63 -9q-62 -18 -84.5 -18t-26 4t-3.5 15v22q0 11 6 17l38 229q-1 3 -1 9.5t3 17t9 20.5q13 22 28 22l11 -1l68 -19q16 -1 26 -1h79q35 0 62 2q84 5 112 33t42.5 28.5t21 -12t8.5 -28.5q2 -14 3 -28
q-1 -4 -1 -6v-26v-27z" />
    <glyph glyph-name="six" unicode="6" horiz-adv-x="577" 
d="M496 514q-19 0 -28 7q-16 70 -57 96q-16 10 -44 10t-52 -9.5t-28 -46.5l-14 -162l6 -39q7 0 22 2l24 4q9 2 13 2t18 -4l31 -11q45 -15 56 -22l31 -31q18 -16 34 -35q37 -44 37 -91t-21 -84t-55 -62q-70 -51 -167 -51h-13l-116 32q-4 1 -20 15q-64 52 -96 140
q-18 50 -18 85q0 42 6.5 78t9.5 41l78 149l136 130q21 21 89 21q11 0 23 -1q22 -1 41 -1l36 -34q16 -15 26 -31t15.5 -35t5.5 -40.5t-9 -21.5zM368 173l-1 14q-11 142 -34 142h-49l-11 -13l-21 -198v-20l-2 -58q0 -7 1 -9h76l20 24q8 8 14.5 57.5t6.5 60.5z" />
    <glyph glyph-name="seven" unicode="7" horiz-adv-x="620" 
d="M422 50q13 0 13 -19q0 -17 -26 -22t-66 -5h-82q-124 0 -236 8q-9 5 -11 8t-2 10q0 24 21.5 28t53.5 4h37l6 6l100 217h-56q-7 0 -7 23.5t13 23.5h71l111 261l-157 45h-4l-6 1q-11 0 -15 -3q-4 -4 -10 -12l-12 -18l-13 -23q-18 -30 -21 -37l-1 -16q0 -14 7.5 -25t7.5 -24
t-11 -18t-18.5 -5t-16.5 8t-14 19q-10 22 -10 43.5t9 41.5t22 38.5t27 35.5t23 32q11 10 21 12q11 1 19 1h14q6 0 8 -1l143 -50h7l31 -1h47q20 -1 34 1q21 2 47.5 12t32.5 15.5t11.5 5.5t12.5 -3t14 -7q19 -11 17 -16l-133 -341h58q2 0 4.5 -7t2.5 -8.5t-5 -8.5t-8 -7
l-74 -19l-97 -204h66z" />
    <glyph glyph-name="eight" unicode="8" horiz-adv-x="599" 
d="M545 192l-13 -93q-7 -28 -22.5 -53.5t-20.5 -27.5l-130 -62l-87 -12q-12 5 -31 6.5t-36 6.5t-44 22t-51 39q-56 53 -55 99q-17 1 -34 5.5t-17 25.5q0 30 39 30h19q0 53 42 110q36 48 87 83l1 4q0 2 -5 9t-8 12l-37 118q-13 6 -13 18t1.5 14.5t4.5 5t8 6.5q5 2 19 22
l30 41q15 21 32 35q33 26 109 26q69 0 119 -25q3 -6 6 -6q51 -32 65 -49q30 -35 30 -91q0 -119 -82 -171q-6 0 -13 -2.5t-7 -5.5q-1 -4 9 -11l22 -16q31 -23 38 -39q1 -2 4 -12l7 -21l8 -23zM254 99q0 -112 39 -112q89 0 149 49t60 128q0 62 -39 104q-40 44 -103 43
q-50 0 -82 -87q-24 -66 -24 -125zM315 459v-37q-1 -40 21 -54q12 -8 40 -9t54 11q26 10 44 30q40 42 39 99q1 60 -43 102q-45 44 -105 44q-24 0 -39 -77q-11 -57 -11 -109z" />
    <glyph glyph-name="nine" unicode="9" horiz-adv-x="594" 
d="M206 5q-31 0 -31 22t19 35l87 180v9q-107 0 -144.5 14t-63 38.5t-46.5 68.5l-2 39v10q0 95 51 159q34 43 44 46l149 50q6 3 40 3t73 -10.5t66 -36.5q106 -102 106 -259q0 -51 -37 -144q-6 -15 -13 -23q-11 -13 -12 -27q-57 -78 -112 -118q-18 -13 -31 -17l-137 -38
q-1 -1 -2 -1h-4zM194 421q-2 -8 -2 -18.5t4 -30.5q5 -20 11 -36q14 -40 24 -39h63q1 0 5.5 10t8.5 23.5t8 28.5t6 29q4 20 4 58t-3 59t-9 37q-11 28 -45 60q-29 0 -38 -31z" />
    <glyph glyph-name="colon" unicode=":" horiz-adv-x="241" 
d="M82 78q25 18 51.5 18t39.5 -17t13 -42.5t-18 -42.5t-37.5 -17t-31.5 4t-22 11.5t-16 17.5t-6 23.5t7.5 25t19.5 19.5zM63 416q7 12 19 20q25 18 51.5 18t39.5 -17.5t13 -43t-18 -42.5t-37.5 -17t-31.5 4t-22 11.5t-16 17.5t-6 23.5t8 25.5z" />
    <glyph glyph-name="semicolon" unicode=";" horiz-adv-x="260" 
d="M77 416q8 12 20 20q25 18 51.5 18t39.5 -17.5t13 -43t-18 -42.5t-37.5 -17t-31.5 4t-22 11.5t-16 17.5t-6 23.5t7 25.5zM79 -33l-16 48q0 24 28 43q15 11 38 11q32 0 48.5 -20.5t16.5 -50.5t-8 -40q-33 -37 -59 -58q-18 -15 -38 -26q-20 -10 -40 -10t-20 10t8 17t18 15
q26 20 25 49z" />
    <glyph glyph-name="less" unicode="&#x3c;" horiz-adv-x="437" 
d="M358 124h-31l-242 162q1 4 -19 15q-36 21 -37 31q0 16 7 22l322 198l3 1q3 1 9 -5q8 -7 7 -11q0 -3 -2 -7q-3 -6 -7 -11q-9 -16 -10 -16l-137 -88l-6 -6l-105 -68v-12l248 -174q5 -4 6 -5.5t1 -13.5t-7 -12z" />
    <glyph glyph-name="equal" unicode="=" horiz-adv-x="439" 
d="M124 171l-63 -3v28l20 4q79 14 156 21h57q30 0 69 -13q1 0 1 -2v-8q0 -8 -26 -15h-114zM147 371l-46 -1h-15v40h277q13 0 13 -19l-1 -4v-2l-213 -14h-15z" />
    <glyph glyph-name="greater" unicode="&#x3e;" horiz-adv-x="438" 
d="M79 124q-7 0 -7 12t1 13.5t6 5.5l249 174v12l-106 68l-6 6l-137 88q-19 32 -19 34q2 5 8 10.5t9 5.5l325 -199q7 -6 7 -17t-9 -18t-19 -13q-28 -16 -28 -20l-242 -162h-32z" />
    <glyph glyph-name="question" unicode="?" horiz-adv-x="527" 
d="M146 37q0 75 68 75q32 0 53.5 -22t21.5 -55t-25 -53t-52 -20t-37.5 7t-16.5 17q-12 18 -12 51zM326 161l-152 -7q-14 0 -21 11t-7 22v11l125 143l55 161q2 4 2 22.5t-1.5 30.5t-4.5 24q-4 17 -20 53q-9 6 -16.5 14.5t-15.5 16.5q-18 19 -34 19q-64 0 -116 -68
q-48 -64 -49 -131l1 -37q10 -38 64 -38q48 0 48 82q-3 9 -19 49q0 12 4 16t15 4l12 -1q13 -25 22.5 -52t20.5 -53v-3l1 -4q0 -39 -34 -62q-29 -19 -64 -19t-54.5 10t-31.5 27q-22 31 -22 80.5t17 91.5t46.5 76t69.5 55t82 21t85 -12q42 -12 78 -34q83 -52 83 -133
q0 -42 -13 -84t-20 -54z" />
    <glyph glyph-name="at" unicode="@" horiz-adv-x="704" 
d="M484 249q54 18 54 139v14l-1 30v6q-4 31 -41 54q-35 22 -67.5 22t-65.5 -15t-63 -37q-39 -29 -103 -100q-27 -31 -33 -61.5t-6 -52.5v-29l2 -45q52 -65 160 -83q30 -5 66 -5q83 0 151 38q6 4 19 12q14 10 28 18q34 22 35 21q18 0 18 -13q1 -17 -27 -42
q-25 -23 -63.5 -42.5t-68.5 -27.5q-52 -14 -109.5 -14.5t-89 2.5t-62.5 11q-105 27 -153 135q-18 42 -18 83.5t15 76t38.5 74.5t60 66t79.5 41t90 23l95 16h18q30 0 80.5 -16t67 -23.5t28.5 -27.5q12 -21 20 -45q14 -44 14 -83t-14 -70t-38 -56q-54 -57 -114 -57
q-5 0 -24.5 7.5t-29.5 13t-14.5 11.5t-5.5 6l-39 -12q-59 0 -89 34q-12 14 -12 35v4q0 4 15 34q15 29 30 49q36 46 76 47q36 1 55 -39q14 -29 14 -57t-5.5 -39t-5.5 -23zM310 280q0 -10 39 -43q27 1 48 49q15 35 15 52t-2.5 27.5t-17.5 10.5l-6 -1q-76 -64 -76 -95z" />
    <glyph glyph-name="A" unicode="A" horiz-adv-x="847" 
d="M364 -5h-308q-9 0 -13.5 7.5t-4.5 18.5t12 20q12 1 27.5 2t29.5 2q32 2 35 7l103 274l1 7q0 39 -81 45q-18 2 -28 1q-40 0 -69.5 -27.5t-29.5 -70.5q0 -29 28 -29q20 0 25.5 9t5.5 24v24q3 9 7 11t12.5 2t14.5 -5t10 -12q8 -15 7.5 -29t-7 -26t-16.5 -22q-24 -22 -45 -22
q-39 0 -60.5 19.5t-21.5 53t10 59.5t28 45q39 41 94 41q38 0 68 -6.5t64 -29.5l2 -1q1 0 5 3t4 5l81 211v3q0 2 -2.5 5.5t-4.5 3.5h-136q-7 0 -7 8.5t4.5 22.5t13.5 14l435 9q8 0 12 -8.5t4 -24.5t-10 -16h-91l73 -217q2 -11 5 -15t23 -4t50.5 9.5t64.5 9.5q17 0 17 -19
q0 -12 -9 -18.5t-20 -7.5l-91 -12q-12 0 -12 -11l102 -295l54 -14q12 -2 12 -14t-6 -19q-6 1 -12 1h-12l-189 -5q-11 0 -14 4t-3 18t14 19.5t25.5 8.5t21 2.5t20.5 -1.5q22 -2 35 -2v12l-88 273h-11q-4 0 -44 -36l-49 -44q-10 -10 -13.5 -19t-18.5 -9t-23.5 9t-16 20t-16 20
t-16 9t-7.5 -0.5t-1 -0.5h-1l-79 -218q-2 -2 -2 -9.5t5 -9.5l13 -4q7 -3 12.5 -8t5.5 -18t-7 -13zM439 338l-1 -6q0 -8 2.5 -10t9.5 -6l14 -11l18 -12q8 -6 20 -13l103 85q12 6 12 7.5t-1 3.5v2l-76 216z" />
    <glyph glyph-name="B" unicode="B" horiz-adv-x="721" 
d="M78 -54q-23 0 -23 29q0 31 48 49q21 8 71 16l6 6v249q0 10 -7 13t-15 5.5t-15 7t-7 16.5q0 30 38 32q0 94 -19 231q-21 0 -37 -18.5t-29.5 -41t-26 -41t-24.5 -18.5t-19.5 9t-7.5 15v9q0 4 1 6q29 74 103 118q70 42 150 42q3 1 7 1q75 0 130 -11q58 -12 98.5 -30
t66.5 -40t40 -44q26 -38 26 -71q0 -7 -1 -9q3 -3 3 -34t-13.5 -55t-44.5 -50q55 -21 83.5 -57.5t28.5 -92.5t-17 -92.5t-42.5 -61t-56.5 -38t-59 -20.5q-40 -10 -81 -10t-84 7t-88 7h-44q-4 -8 -7.5 -11t-13 -3t-16 7t-19 7t-22.5 -5l-21 -12q-25 -16 -40 -16zM396 23
q0 -9 27.5 -9t66.5 7.5t73 25.5q82 43 82 117t-20 99q-12 15 -32 24t-54 20h-19q-7 -1 -25.5 -4t-38.5 -6l-40 -5q-18 -3 -24.5 -4t-6.5 -9v-4q0 -98 12 -247q-1 -1 -1 -2v-3zM386 342l42 2q9 0 25 2q34 3 56 8l11 2q36 22 50.5 53t14.5 53q0 81 -82 127q-32 18 -63.5 24.5
t-40 6.5t-8.5 -1h-20q0 -41 5 -106q10 -130 10 -171z" />
    <glyph glyph-name="C" unicode="C" horiz-adv-x="648" 
d="M328 6l49 -1q90 0 143 30q47 27 54 57q8 33 17 43t18 10t16.5 -5.5t7.5 -20t-8 -36.5q-8 -21 -22 -41q-29 -42 -68 -60q-68 -32 -160 -32q-116 0 -190 64q-97 85 -109 279h-50q-8 0 -8 12t5 18t12 9.5t15.5 5.5t15.5 4q7 94 37 170q24 61 47.5 81.5t57.5 36.5
q33 17 69 28q68 21 132 21l113 -26q6 11 18.5 18t29.5 7q27 0 27 -47l-31 -134q0 -2 -17 -6q-20 0 -27 13q-39 110 -105 122q-17 3 -30 3q-62 0 -62 -46q0 -6 1 -10l1 3v-18v-104q0 -220 -6 -311.5t-6 -114t13 -22.5z" />
    <glyph glyph-name="D" unicode="D" horiz-adv-x="763" 
d="M356 627l1 -10q0 -134 -4.5 -276.5t-4.5 -220t3 -89.5q4 -13 10 -19q10 -10 43 -10q127 0 201 93q68 86 68 213q0 55 -15 115.5t-48 111t-85 83.5t-125 33q-17 0 -30.5 -4t-13.5 -20zM128 689q40 -15 92.5 -15t76 3t41.5 7q45 10 72 10q58 0 114 -27t100 -77.5t71 -122.5
t27 -158t-25 -151q-24 -64 -70 -108q-93 -88 -254 -88q-32 0 -63 4q-31 2 -63 6q-96 10 -122 11h-36q-10 0 -22 -1q-7 7 -7 20.5t5.5 15.5t28.5 2h61q7 0 7 10q0 50 -5.5 142t-6.5 122q-11 8 -24 14l-27 13q42 24 54 52v20q-2 18 -4.5 56t-5 64.5t-4.5 50.5q-3 47 -5 70
q-2 7 -16 7t-26.5 -4.5t-23 -12t-20.5 -16.5l-19 -18q-13 0 -22.5 3.5t-9.5 17.5v10q28 35 58.5 50t72.5 18z" />
    <glyph glyph-name="E" unicode="E" horiz-adv-x="634" 
d="M528 -9l-31 -1h-26q-70 0 -280 -5l-30 -1h-39q-31 0 -57 2.5t-26 17.5t14 20l85 -2q0 72 -5.5 138t-5.5 138q-5 9 -17.5 13t-17 8.5t-4.5 15.5t5 13.5t11.5 3t13 1.5t9.5 8v14l1 45v15l1 83q0 31 -6 85q-4 -1 -18 -1h-47h-24q-7 1 -7 9q0 23 6.5 32.5t25.5 9.5l120 1
q52 0 104 -4t97.5 -4t84 2t74.5 16q8 4 13.5 9t12.5 5t13 -5.5t6 -13.5l-1 -4v-2l-16 -27q-6 -10 -10 -16q-8 -10 -17.5 -10t-64.5 2q-16 1 -36 1q-50 0 -127 -4q-11 -119 -11 -237q44 0 69 10l35 14q11 5 22 5t17 -7t6 -30t-10.5 -35.5t-41 -12.5t-35.5 19l-62 -4l-1 -13
q-5 -66 -5 -82v-28q0 -12 0.5 -30.5t1 -39t1.5 -38.5t1.5 -30.5t1.5 -13.5l6 -12l50 -1l64 -1q126 0 164 33q7 6 12 6q36 0 36 -34l-2 -14q-2 -13 -4 -13l-13 -13l-10 -1q-50 -5 -76 -5z" />
    <glyph glyph-name="F" unicode="F" horiz-adv-x="672" 
d="M398 -18q-248 -7 -280 -7t-50 2t-18 20q0 34 62 34q19 0 22.5 10.5t3.5 29.5l-7 103l6 112h-13q-22 0 -32.5 7.5t-10.5 17.5q0 25 56 25q8 32 8 83v69l-1 74v27l-7 25l-105 13q-10 2 -11.5 10t-1.5 15.5t1.5 14t11.5 10.5q51 0 116 -9q122 -17 150 -17h49l20 1l198 37h93
l6 -12l3 -91q0 -25 -7 -45.5t-31 -20.5h-9q-3 0 -5 1l-94 100h-11q-73 0 -123 -10t-51 -15q-3 -27 -4 -48l-2 -40q-1 -18 -1 -38v-109q14 -13 36 -13h2q23 0 33 4q27 6 35.5 9.5t10.5 13.5l6 21q2 10 5.5 18.5t14.5 8.5q25 0 25 -44q0 -34 -7.5 -68t-15.5 -51t-20 -17l-10 4
q-9 4 -9 7v57h-99l-7 -13v-63q0 -127 7 -204q1 -6 11 -6l73 6q28 0 28 -22q0 -27 -50 -27z" />
    <glyph glyph-name="G" unicode="G" horiz-adv-x="793" 
d="M562 285l87 -4q32 0 64.5 11.5t52.5 35.5q10 0 18.5 -5.5t8.5 -22t-11 -25.5t-25 -13.5t-27.5 -8t-19 -15t-7 -25t-2.5 -27.5t-1 -27t-3 -23q-43 -199 -293 -199q-128 1 -218 93q-94 96 -124 272h-54q-7 0 -7 17l1 10q3 1 10 4l16 6q23 8 26 9.5t7.5 19.5t9.5 41
q12 53 19 78q34 93 111 149t172 56q29 0 75 -10.5t70.5 -15.5t48 -5t35 5t18.5 10l15 11q7 5 14 5t11 -4l17 -17v-144q0 -11 -10 -16t-18 -5q-35 16 -67 40l-64 45q-33 22 -67 37.5t-74 15.5l-14 -1q-20 -170 -20 -256q0 -154 20 -258q1 -5 4 -26t7 -45q9 -63 10 -64
q7 -11 17 -13t17 -2t20.5 3.5t30.5 8.5q41 12 65 22q25 17 43 42t18 49t-5 39.5t-13.5 29.5t-19.5 28t-23 31q-12 0 -37 -14t-32 -14t-17.5 10t-10.5 23t15 23t35 16q32 9 68 9h7z" />
    <glyph glyph-name="H" unicode="H" horiz-adv-x="895" 
d="M162 -7l-67 -1q-25 0 -47 2q-9 4 -11.5 7.5t-2.5 10.5l2 14q3 14 5 14h126l6 141q0 105 -24 105q-19 0 -35.5 -10t-30.5 -10q-24 0 -24 21q0 6 0.5 10t6.5 7l87 37v37l-37 199h-75q-12 28 -12 33q0 13 14 15t32 2l28 -1q4 11 9 15.5t16 4.5t18.5 -4.5t43 -4.5t95.5 10.5
t121 10.5q33 0 33 -23q0 -17 -8 -21.5t-19 -4.5l-25 1q-14 0 -25 -6.5t-11 -27t1 -31.5t3 -23q3 -22 3 -52v-15l-1 -59l7 -12h105l230 -47v240q0 4 -4 13q-8 17 -15 17h-99q-7 0 -7 15q0 35 157 35q26 0 44 1q12 1 21 1q5 -1 9 -1q24 -1 24 -17q0 -19 -18 -24t-30 -5h-20
q-8 0 -12 1l-7 -6l-6 -257q10 0 13.5 -2t6.5 -2t38 37q65 70 72 70t13 -6t6 -20.5t-17 -36.5t-41 -42q-44 -36 -91 -57q0 -33 1 -63v-58q1 -68 5 -127q8 -4 20.5 -6.5t24.5 -6.5q30 -9 30 -27q0 -23 -34 -23t-71 7.5t-75 7.5l-19 -1q-7 1 -7 19q0 32 54 32q17 0 27 -2l7 31
v211l-230 50l-49 1q-44 0 -56 -20l-7 -202v-21q0 -56 7 -63h31q69 0 69 -26q0 -16 -39 -29q-13 0 -21.5 3.5t-19.5 3.5t-17 -2t-11 -5q-12 -7 -20 -7h-2q-1 0 -2 1q-48 24 -170 24z" />
    <glyph glyph-name="I" unicode="I" horiz-adv-x="457" 
d="M324 -34l-50 -2h-19q-29 0 -45 2q-37 6 -58 6h-84q-17 0 -24.5 5t-8.5 21t13 18t31 0.5t33 -1.5t21 9l2 140l2 108q0 11 -1 15q-6 -2 -13 -2t-16 12.5t-9 22.5t6 13.5t13 5.5t13 4t6 7q-3 30 -3.5 65.5t-1.5 72t-1.5 72.5t-3.5 67q-7 7 -9 7h-38q-13 0 -26 0.5t-20 9
t-7 16.5t0.5 12t6.5 7l99 5q18 -2 35 -2l178 4h14l43 -1h14q7 -3 7 -20.5t-10 -24t-37 -6.5l-48 2q0 -96 -4.5 -196t-4.5 -222.5t11 -205.5l68 -5q21 0 22 -23q-4 -9 -13 -11z" />
    <glyph glyph-name="J" unicode="J" horiz-adv-x="646" 
d="M412 670l109 6q26 0 34.5 -28t8.5 -62v-78q0 -184 -23 -288t-58.5 -164t-79.5 -94q-74 -57 -189 -57h-4q-191 0 -191 204q0 61 16 83q8 12 21.5 12t22 -4.5t16.5 -11.5t17 -16t20.5 -17.5t20.5 -12.5t14 -7q10 -6 10 -20t-3.5 -30.5t-8 -31.5t-9 -26.5t-5 -16.5t-0.5 -14
q0 -10 2 -19q4 -22 21 -22q85 0 125 32q13 53 13 141t2 152l5 116l4 100q2 49 2 109l-1 14v8l-25 6l-99 -12q-25 -4 -43 -24q-32 -35 -32 -63t15.5 -37t34.5 -11l35 -5q15 -2 15 -13q0 -14 -19.5 -24t-39 -10t-36.5 11t-31 27q-28 33 -28 61q0 32 34 76q32 41 98 62
q36 11 71.5 11t51 -2t28.5 -4l27 -4q13 -2 31 -2z" />
    <glyph glyph-name="K" unicode="K" horiz-adv-x="827" 
d="M636 -17q-30 0 -30 17t10 24.5t21.5 11t21.5 6t10 11t-4 11t-17.5 18.5t-35.5 48q-21 31 -47 60q-62 70 -118 70t-75 -32q-4 -33 -4 -77.5t3.5 -65t15.5 -39.5l64 14q3 0 9.5 -9t6.5 -16.5t-8 -14t-19 -10.5q-18 -8 -39 -8h-341v5q0 20 7 26q10 9 26.5 12t29 9.5
t23.5 7.5l1 31q0 50 -5.5 94t-11.5 101h-40q0 17 10 31.5t30 14.5v282q-8 -2 -29 -6l-54 -10q-24 0 -24 31l1 15q53 20 145 29q21 2 31 2l95 -1l107 -1h14q6 1 14 1h3q22 0 22 -23q0 -9 -22.5 -14.5t-33.5 -10t-12 -12.5q-16 -69 -16 -245v-11l1 -31v-10q21 16 80 71l99 92
q42 36 78 70q80 73 99.5 87.5t27 17t20 2.5t20 -1t11.5 -15q-26 -34 -71 -76l-94 -86l-93 -86q-45 -42 -71 -76q63 -27 135 -109q30 -34 58 -69.5t54.5 -62t49.5 -34t56 -7.5q0 -29 -79 -43q-54 -9 -102 -10z" />
    <glyph glyph-name="L" unicode="L" horiz-adv-x="751" 
d="M433 -2q-127 -17 -262 -17q-35 0 -63.5 2t-53.5 9.5t-28 14.5t-3 32h106l-1 77v30q0 14 2 25l-4 120q-35 6 -41.5 10.5t-6.5 12t6 14.5q5 8 13 16q22 22 24 30t6 34.5t8 58.5l8 60q4 28 3 35l-2 63l-79 -5q-21 0 -21 22q-1 5 15 11q26 10 38 10l22 -1l301 14q43 0 43 -21
t-29 -25q-50 -7 -59 -11q-4 -11 -6 -17q-9 -23 -11 -42l-4 -42q-3 -23 -5.5 -48.5t-5 -48t-4 -38.5t-4.5 -32q-6 -32 -6 -127l1 -120q0 -25 6.5 -39.5t37.5 -14.5l73 -5q24 0 36 5l24 12q12 5 24 12q33 18 41 26l29 28q18 21 40 44l68 73q30 -11 30 -62q0 -38 -13.5 -87
t-22.5 -68q-21 -44 -44 -44q-47 0 -92.5 7.5t-71.5 7.5h-32l-24 -1h-6z" />
    <glyph glyph-name="M" unicode="M" horiz-adv-x="1123" 
d="M230 608l-65 -6q-29 0 -40.5 9t-11.5 21t19 22q109 15 189.5 16t141.5 1q2 -61 60 -284l30 -109l8 -2q28 0 94 183l21 59l13 35q3 8 3 15l-1 35v17q0 3 3.5 14.5t14.5 11.5l199 34q49 0 49 -26q0 -16 -10.5 -21t-23.5 -8t-23.5 -8t-10.5 -20t7 -49t17 -70q25 -89 42 -99
q6 -3 16 -5q9 -4 18 -6q21 -6 21 -13q0 -12 -6 -18t-13 -12q-19 -16 -19 -38v-26l7 -21q6 -18 15 -40l16 -44l15 -42q7 -18 15.5 -32.5t20.5 -22.5q16 -11 68 -22l1 -11q0 -5 -3.5 -14.5t-13.5 -9.5h-222l-49 52l-115 411l-18 -15q-58 -139 -94.5 -210.5t-44.5 -83.5
l-19 -30q-14 -18 -28 -34q-35 -40 -60 -40h-1q-25 1 -36 16t-20 38l-73 200q-36 102 -55 204q-7 -20 -24 -85l-28 -109q-11 -44 -23 -85q-27 -95 -36 -112.5t-11.5 -25t-4.5 -15.5q-4 -15 -4 -24t8 -17h74q-1 -3 -2 -10q-2 -7 -6 -14q-12 -18 -38 -18h-194q0 21 9.5 29
t22.5 12l27 7q13 4 22 19q6 13 15.5 31t17.5 35q20 39 28.5 68.5t27.5 79.5l36 98q17 48 28.5 95t11.5 78t-5 61z" />
    <glyph glyph-name="N" unicode="N" horiz-adv-x="816" 
d="M230 2l-161 2q-12 0 -15 10q-4 12 -4 23q0 9 7 13t16.5 7t19 7t13.5 16q21 135 31 373q2 63 3 92v41q0 12 -2 24q-61 0 -70 13q-11 16 -11 40q108 10 205 14.5t115 4.5q70 0 71 -25q0 -12 -21 -22.5t-21 -19t13.5 -33t31.5 -53.5q41 -64 66 -96q2 2 8 2q30 0 48 18
q3 -6 3 -17.5t-4 -17.5q-3 -6 -9 -12q-14 -16 -14 -29.5t2 -13.5q4 -12 22 -48l30 -61q12 -25 24 -47t20.5 -39t11.5 -22q9 40 9 122.5t-3 141.5q-2 60 -6 108q-8 110 -15 110l-94 -8q0 29 10 40t18 12l22 2q12 2 25 4q14 0 25 2q40 6 76 6q54 0 57 -9l2 -23
q-10 -1 -25.5 -5.5t-26.5 -6.5q-3 -2 -14 -8.5t-14 -8.5q-1 -8 -2 -27q0 -18 -2 -40q-4 -50 -4 -65v-16q3 -244 8 -317t5 -84q-4 -67 -210 -76q-20 0 -29.5 7.5t-9.5 26t2 22.5l-123 210l-64 -5q0 4 0.5 9.5t5 16t14.5 17.5t10 24.5t-13 47.5q-14 30 -32 64q-38 69 -76 112
q-5 -8 -5 -25v-18q-1 -48 -7 -143q-12 -184 -12 -225q0 -79 6 -86q4 -5 16 -5t25.5 -1t24 -6t10.5 -23t-13 -18z" />
    <glyph glyph-name="O" unicode="O" horiz-adv-x="780" 
d="M512 -2q-69 -27 -144.5 -27t-133.5 26t-101.5 68.5t-68 97.5t-24.5 105.5t8 97.5q8 48 24 94q58 164 192 216q52 20 114 20q194 0 287 -110q74 -88 74 -223q-1 -181 -107 -287q-50 -50 -120 -78zM243 356q-3 -38 -3 -69.5t8 -66.5q8 -36 20 -72q25 -71 69 -135
q3 -9 28 -9q16 0 41 4q74 11 90 66q11 42 21.5 71.5t18.5 55.5q18 58 18 100.5t-3 75.5t-10 69.5t-19 73.5q-10 36 -28 66q-39 66 -95 67q-58 -1 -98 -69q-46 -78 -58 -228z" />
    <glyph glyph-name="P" unicode="P" horiz-adv-x="644" 
d="M73 -12q-12 0 -12 19t19 19l57 -5v336l-32 -4q-20 0 -20 19q0 7 21.5 12.5t26.5 5.5q0 182 -37 238q-10 15 -24 15l-29 -2q-21 0 -21 19q0 13 14 19q45 3 83 3h88q246 0 360 -80q62 -43 62 -123q0 -60 -34 -110q-15 -22 -43 -41.5t-63.5 -30t-69.5 -14.5q-42 -5 -106 -5
v-240l12 -12q6 1 18 1h26q40 0 51 -3q16 -5 31 -23l-13 -13h-365zM372 324l40 1q53 3 73 55q12 33 12 78.5t-3.5 68.5t-13.5 42q-27 51 -115 66q-47 8 -79 8v-16q0 -144 17 -241q6 -32 11.5 -44t16.5 -15t41 -3z" />
    <glyph glyph-name="Q" unicode="Q" horiz-adv-x="829" 
d="M448 679l32 1q73 0 167 -70q67 -50 73 -179q2 -34 2 -66t-6 -76q-6 -45 -18 -89q-26 -102 -63 -150q-8 -4 -8 -13.5t11 -23t27 -25.5q38 -29 57 -30h2q17 0 28 6q12 8 20 18q18 22 17 50q1 15 -11 32q-22 31 -22 44q0 1 4.5 9t15 6.5t21.5 -11.5t18 -24q14 -29 14 -55
t-8 -45q-9 -20 -23 -36q-30 -33 -79 -33h-3q-29 0 -51.5 14t-42.5 30l-49 39h-1q-1 0 -2 0.5t-1 0t-1 -0.5h-1q-165 -62 -200 -62h-3q-54 0 -123 38q-123 67 -167 196q-16 47 -16 104q0 14 2 30q-2 1 -10 3.5t-16 6.5q-23 9 -23 20q0 9 8 14q7 4 17 6q13 4 31 4
q26 154 120 270q76 93 151 93q41 0 83 -21q5 -2 7 -6.5t4 -8.5q5 -10 16 -10zM256 275q0 -97 22 -201q15 -33 37 -54q50 -35 74 -39q30 0 71 14q79 27 79 47q-1 24 -37 54q-39 26 -52 28q-12 0 -22 -10q-20 -20 -32.5 -20t-20 9t-7.5 21q0 23 22 36t46.5 13t44.5 -7t37 -20
q24 -19 46.5 -44t23.5 -25.5t2 -0.5q36 0 76 184q14 61 14 81q0 142 -44 209q-48 74 -155 74q-73 0 -128 -62q-69 -78 -91 -216q-6 -38 -6 -71z" />
    <glyph glyph-name="R" unicode="R" horiz-adv-x="752" 
d="M614 67l1 19v10q0 38 -7 57q-20 57 -78 79q-14 6 -28 5q-27 -6 -59 -15l-31 -9l-6 -6l12 -186h31q18 0 34 -1.5t16 -15.5q0 -28 -65.5 -28t-133 7.5t-136.5 7.5l-31 -1q-13 6 -13 19.5t11 18t26.5 5.5t31 1t24.5 5l1 38q0 265 -25 502q-1 2 -3 9t-3 9l-3 1q-20 0 -68 -62
q-12 -16 -24 -34q-16 -24 -16 -66q-1 -15 -1 -26q0 -24 1 -37q2 -21 8 -37q10 -30 48 -64q0 -13 -26 -22q-38 0 -60 65q-16 46 -16 100q0 58 28 117q27 59 85 97q64 32 156 32q143 0 229 -43q52 -26 87.5 -74.5t35.5 -129.5q0 -3 -1 -10l-2 -12q-3 -20 -3 -18l-68 -105v-7
q94 -34 94 -200l-1 -35q19 -19 22 -19q7 6 13.5 14t14.5 14q25 17 29 17q11 0 15.5 -0.5t4.5 -11t-5 -25.5t-14 -28q-21 -30 -50 -30q-17 0 -27.5 6t-28 20t-22 35.5t-4.5 47.5zM380 616l1 -19q6 -78 9 -158t16 -158q3 -7 12 -7q146 0 186 131q0 86 -50 138q-18 18 -36 26
t-36 15q-18 8 -36 15q-42 17 -46 17h-20z" />
    <glyph glyph-name="S" unicode="S" horiz-adv-x="620" 
d="M571 478q0 -16 -37 -16q-6 0 -20 12l-34 32l-46 40q-24 22 -50 41q-72 41 -98 44q-88 0 -120 -45q-12 -17 -12 -37.5t11 -38t38 -37.5q58 -43 189 -88q2 2 8 11l13 18q18 24 25 24t11.5 -5.5t4.5 -10.5t-2.5 -11t-6.5 -13q-11 -19 -12 -24q73 -51 99 -89q31 -45 31 -114
q0 -87 -72 -148q-74 -63 -187 -63q-56 0 -110.5 18.5t-88.5 62.5l-2 1q-2 0 -6 -2.5t-4 -4.5l-14 -68q-1 -7 -11.5 -7t-14 2.5t-8.5 10.5l-1 40q0 48 8 140q5 14 22 14t29 -15.5t23 -36.5l22 -42q11 -21 26 -32q9 -9 40 -21q66 -27 110 -27q53 0 86 35q31 33 31 85
q0 33 -55 75q-53 40 -92 40q-7 0 -20 -8q-23 -15 -29 -15q1 5 1 9v7q0 14 -4 22q-112 57 -143 97q-18 24 -23 51t-5 61q0 89 34 147q24 41 67.5 58.5t82 17.5t62.5 -5t46 -14q31 -13 91 -51h8l53 63l12 1q25 0 29 -14q15 -126 15 -177z" />
    <glyph glyph-name="T" unicode="T" horiz-adv-x="693" 
d="M161 -18q-13 0 -13 22q0 6 2 11t11 5h75q2 25 6 61.5t8 80.5q10 110 10 199v243l-61 -9l-165 -106q-1 0 -1.5 -4.5t-2.5 -4.5q-11 0 -19 10t-8 21l67 176l113 -35q28 -9 83 -9l77 2l97 -1q73 0 120 22q9 4 15 8q5 5 11 9q11 8 25 8t18 -6l68 -139q0 -5 -9.5 -14.5
t-9.5 -8.5l-116 49l-83 32q-12 0 -19.5 -6t-11.5 -24q-8 -30 -8 -138l-6 -268q0 -126 12 -142q4 -6 10 -5l54 5q13 0 22 -2q8 0 8 -10q0 -26 -13 -28l-62 -4h-304z" />
    <glyph glyph-name="U" unicode="U" horiz-adv-x="741" 
d="M628 684q7 0 13.5 -8t8 -28t4.5 -44l4 -46q4 -51 4 -117.5t-4 -137.5q-6 -71 -22 -125q-33 -108 -130 -178q-11 -8 -58.5 -20t-56.5 -12t-33 2.5t-49 7.5q-60 12 -79 32l-31 34q-13 14 -21.5 26.5t-14.5 27.5t-12 40q-10 40 -32 158l-29 13q3 14 8 20.5t17 10.5
q3 7 9 37.5t6 32.5l-6 69l5 147q-26 0 -37 -16.5t-17 -35.5l-11 -36q-5 -17 -18 -17t-20.5 9t-7.5 33t15 49.5t39 41.5q45 29 113 29h5l108 -7q25 0 47.5 4t39.5 4t17 -13t-10 -21.5t-24 -14.5q-23 -10 -48 -14q-6 -8 -9.5 -45t-3.5 -48l3 -193l50 5q11 0 11 -20t-18 -24.5
t-40 -5.5v-19l38 -252q1 -7 45.5 -7t83.5 21t65.5 54.5t42.5 76.5q16 42 24 86q13 64 13 144v11l-1 55q0 31 -8.5 77.5t-12.5 71.5t-4 50t29 25z" />
    <glyph glyph-name="V" unicode="V" horiz-adv-x="661" 
d="M635 635l-28 2l-171 -641q-4 -14 -12 -16.5t-31.5 -2.5t-58.5 9l-71 17q-16 11 -18 25l-84 268h-61q-7 0 -7 14.5t9 17.5t19.5 3.5t19.5 2.5t9 12l-51 272h-98q-7 0 -7 14.5t10.5 21t24.5 9.5t28.5 3.5t26.5 1.5t24 2.5t25 2.5q26 2 46 2h28l32 -1h10q16 -7 18.5 -21.5
t3.5 -23.5t8 -17l139 -523h6l108 437v6q2 4 5.5 29t5.5 37t2 14v7q0 15 -7 15h-74q-7 0 -7 17t5 21.5t13 6.5t25 3l36 2l35 2q17 1 22.5 1t18.5 -0.5t27 -3.5q37 -8 37 -28t-41 -20z" />
    <glyph glyph-name="W" unicode="W" horiz-adv-x="890" 
d="M875 595l-43 6q-2 0 -7 -2.5t-5 -3.5l-131 -595q-2 -10 -10 -18t-18 -8t-17 6.5t-7 13t2 12.5l-105 323v4l-7 2q-5 0 -23 -81l-50 -217q0 -4 6 -5q8 -2 16 -5q22 -8 22 -23q0 -16 -4 -20q-3 -3 -20.5 -2.5t-57 2t-84 4t-84 4t-55.5 2.5q-13 5 -13 16.5t6.5 17.5t15.5 10
q12 5 29 5h6v25l-143 503l-7 6q-18 -38 -18 -94q0 -17 3.5 -28t3.5 -23.5t-4 -15t-20 -2.5t-24.5 12.5t-8.5 39.5t1 49q0 21 4 43q10 52 39 68l17 8q45 22 51 23h137q7 0 19 -6.5t12 -13.5t-3 -10t-7 -6q-10 -8 -10 -16l1 -10l136 -477l6 -6l25 61l50 267q-1 4 -1 8v8
q0 35 10 69t10 70q-6 4 -26.5 8t-35.5 4l-4 9q-2 5 -2.5 9.5t4.5 11.5t14 8l93 6q32 0 32 -26q0 -27 -20 -42q-11 -38 -18 -67.5t-7 -64.5v-23l112 -354l6 -6l99 490v35l-56 -5q-8 0 -13.5 1.5t-5.5 11.5q0 50 103.5 50t103.5 -35q0 -21 -20 -21z" />
    <glyph glyph-name="X" unicode="X" horiz-adv-x="773" 
d="M421 -39q-31 0 -31 23q0 26 50 33v12l-124 211q-4 7 -9 7q-1 0 -2 -1h-1l-166 -204h85q6 0 9.5 -10t3.5 -17t-13.5 -13.5t-34 -10.5t-44.5 -7q-26 -2 -48 -3q-45 -2 -59 -2l-31 1q-5 4 -12 12t-7 10q0 16 12.5 21.5t29 6.5t31.5 1t20 5l203 260l-196 304q-16 25 -43 25
q-15 0 -16.5 6t-3.5 9q0 10 12.5 16t18.5 6h335q3 0 11 -9.5t8 -15t-7 -9.5q-6 -4 -14 -8q-18 -8 -28 -8l99 -173q0 -4 9 -7h2l168 180v12h-9l-25 1h-8l-50 -6q-14 0 -17 10.5t-3 16.5v11q0 5 1 5l12 7q2 1 15 2l32 3q18 1 39.5 2.5t40.5 2.5t32.5 2t21.5 1q36 0 36 -24
q0 -8 -6 -14l-43 -19l-199 -229l-18 -13l205 -354l6 -6q10 2 33 2t38.5 -5.5t15.5 -25.5q0 -13 -7 -14q-16 -2 -37 -3l-40 -2q-20 -1 -34 -1h-19h-61q-11 0 -22 1q-21 0 -42 -1q-76 -2 -105 -13z" />
    <glyph glyph-name="Y" unicode="Y" horiz-adv-x="709" 
d="M143 31l-6 34v4q6 22 17 43l23 40q27 50 27 80.5t-7.5 37t-17 7t-17 0.5t-7.5 7.5t5 11.5q4 4 12 7q14 6 29 8q-26 45 -58 131l-43 146v15q-60 1 -80 19q-10 8 -9 24l1 16l146 14q60 0 60 -38l-1 -4v-3l-59 -28q-1 -2 -1 -3v-3q3 -24 21 -90.5t30 -102.5q26 -79 38 -79
h14l144 284q-2 6 -2 28.5t5.5 34t24.5 11.5l82 -2l225 6q0 -29 -39 -41q-22 -6 -47 -7q-8 -32 -45 -59l15 -14q-5 -4 -17 -16l-18 -19l-9 -9v-14l-100 -168l-1 -9q0 -7 4.5 -9.5t10.5 -4t10.5 -4t4.5 -13t-9 -16.5t-21 -10l-24 -7q-13 -4 -19 -14q-54 -81 -79 -184
q-1 -2 -1 -8t3 -15h129l15 -22q-26 -48 -500 -48q0 31 7 43t12 12h122z" />
    <glyph glyph-name="Z" unicode="Z" horiz-adv-x="769" 
d="M719 79q0 12 14 12q29 0 29 -28q0 -40 -25 -69q-26 -30 -66 -30q-11 0 -21 3l-314 67l-175 -42q-20 -14 -37 -23t-32 -9q-31 0 -31 19l1 7l105 253q25 36 25 44q-20 -7 -43.5 -7t-27.5 5t-4 14.5t2.5 19t16.5 12.5l99 19l180 247q-16 31 -93 31q-150 0 -212 -65
q-25 -26 -25 -68q-1 -25 19 -47l14 -14q6 -7 6 -14t-6 -11.5t-17 -4.5t-24 9t-22 23q-19 30 -19 59q0 51 29.5 85.5t72.5 54.5q80 37 180 37h16l204 -44q42 0 76.5 6.5t72.5 6.5h25l-6 -25l-204 -266q-1 -1 -1 -2v-2q0 -9 12.5 -10.5t28 -2.5t28 -3.5t12.5 -13.5
q0 -17 -18 -20.5t-36 -3.5h-35q-17 0 -22 1l-13 -12l-93 -192q0 -1 -1 -2q0 -2 34 -10q59 -14 74 -14q4 0 5 1l143 -44l18 -1q83 0 83 39z" />
    <glyph glyph-name="bracketleft" unicode="[" horiz-adv-x="472" 
d="M76 629l5 37q0 5 6 12t8 7l300 -25q2 2 7.5 8t12.5 12l13 12l8 8q2 1 3 1v-1h4h4q2 0 2 -1q10 -17 10 -34.5t-1 -30t-2 -20.5t-3 -14q-5 -16 -18 -14.5t-19 10t-12 18.5l-149 25q-11 2 -13.5 -8t-2.5 -15v-13l36 -586l88 -8q10 -1 12 8t2 20q0 31 16 34q29 -24 54 -107
l1 -15q-15 1 -32 9q-33 14 -55 15q-10 1 -20 1q-13 0 -27 -1q-27 -2 -53 -5q-47 -5 -80 -5q-43 1 -65 9q-16 6 -19 34l-23 586v6v10l2 12v9z" />
    <glyph glyph-name="backslash" unicode="\" horiz-adv-x="366" 
d="M312 -18q-15 0 -58 100l-18 44l-26 61l-40 99l-46 117l-45 114q-46 122 -46 132t7 15t15 5t21 -19q14 -20 28 -46q15 -28 48 -105q39 -100 45 -125q5 -25 9 -37q7 -25 16 -46l18 -45l42 -108l24 -64q24 -62 24 -77t-18 -15z" />
    <glyph glyph-name="bracketright" unicode="]" horiz-adv-x="472" 
d="M234 603l-1 13q0 5 -2.5 15t-12.5 8l-150 -25q-6 -10 -12 -18.5t-16 -9.5t-14.5 3.5t-6.5 11t-2.5 14t-2 20t-1.5 30t10 34.5q0 1 2 1h4h4v1q2 1 4 -1l8 -8l13 -12l12 -12q6 -6 7 -8l300 25q2 0 8 -7t7 -10t2 -17.5t1.5 -19.5t0.5 -11l2 -12v-10v-6l-23 -586
q-3 -28 -19 -34.5t-41 -8.5q-12 -1 -25 -1t-27 1q-26 2 -52 5q-49 6 -82 6q-31 0 -45 -6q-9 -4 -19 -7q-26 -11 -41 -12l1 15q25 83 54 107q16 -3 16 -34q0 -11 1.5 -20t12.5 -8l88 8z" />
    <glyph glyph-name="asciicircum" unicode="^" horiz-adv-x="409" 
d="M201 663l5 1q34 -7 42 -13l131 -118q2 -2 7 -10.5t5 -14.5q0 -12 -25 -12l-130 105q-4 4 -8.5 5t-6.5 1.5t-2 0t-1 -0.5h-1l-148 -161q-11 -11 -17 -15t-16 -4t-14.5 2.5t-9.5 10.5q6 29 18.5 42t38.5 26l129 155h3z" />
    <glyph glyph-name="underscore" unicode="_" horiz-adv-x="641" 
d="M564 0q-117 -8 -256 -8h-199q-60 0 -61 23q0 16 26 29l266 -7l215 7q14 0 24 -3t10 -16q0 -25 -25 -25z" />
    <glyph glyph-name="grave" unicode="`" horiz-adv-x="242" 
d="M231 705l1 -5q0 -12 -5 -15t-16 -3h-7q-2 0 -4 1l-188 60q-1 0 -1 1v2q0 11 8 17q7 6 12 6l1 -1h6h5l188 -60v-3z" />
    <glyph glyph-name="a" unicode="a" horiz-adv-x="539" 
d="M335 312q0 79 -70 79q-30 0 -42 -23q-6 -13 -6.5 -28.5t4 -19.5t4.5 -14q0 -18 -21 -24q-13 -4 -38 -4q-18 0 -45 -9t-31 -9q-9 0 -13.5 11t-4.5 21q0 18 23.5 56.5t40.5 51.5q31 23 57 37.5t54 14.5q144 0 186 -77q24 -44 24 -106q0 -27 -7 -55t-7 -54q0 -42 17 -78
q22 -31 38 -36q6 0 11.5 4t10.5 4q21 0 21 -20.5t-18 -35.5q-36 -30 -69 -30t-47 4t-25 11t-19 15l-16 15l-15 15q-6 7 -7 7q-68 -82 -172 -82q-59 0 -96.5 41t-37.5 77q0 68 68 110q70 42 212 62q14 1 22 7q14 10 14 62zM196 153q-11 -18 -11 -34q0 -38 7 -70t24 -34
q25 0 43 14q32 25 34 50l12 125q-78 0 -109 -51z" />
    <glyph glyph-name="b" unicode="b" horiz-adv-x="574" 
d="M59 566q-6 -3 -31 -3t-35 5t-10 16.5t3.5 17t9 8.5t10.5 4l12 2q6 2 22 8l34 11q57 19 73 27q15 8 29 14q34 16 50 16q1 1 2 1q15 0 20 -8q6 -8 6 -21.5t-6 -21t-7.5 -19.5t-6 -41.5t-9.5 -67.5q-15 -112 -16 -153l23 23q23 23 49 29t64.5 6t76.5 -17.5t64 -47.5
q56 -64 56 -164q0 -75 -62 -129q-65 -56 -165 -72q-26 0 -43 6t-39 19q-3 4 -4.5 5.5t-7.5 1.5q-14 -7 -29 -17q-14 -10 -30 -19q-38 -22 -62.5 -22t-29.5 8.5t-5 39t5 71.5t5 80t-1 91.5t-3 108.5q-5 126 -12 204zM356 358q-12 11 -27 11t-36 -7q-21 -8 -39 -20
q-44 -30 -45 -68v-147q0 -33 29 -63q41 -27 66 -31q38 1 63 67q23 62 23 137q0 89 -34 121z" />
    <glyph glyph-name="c" unicode="c" horiz-adv-x="547" 
d="M472 437q13 0 24.5 -8.5t11.5 -9.5v-114q0 -10 -12 -17t-22.5 -7t-25 14.5t-34.5 32.5q-53 46 -110 46q-21 0 -37.5 -22t-26.5 -47t-14 -49q-6 -34 -6 -74q-1 -3 -1 -5q0 -37 7 -65q8 -28 20 -52q38 -46 67 -54q70 0 133 61q6 7 9 15t7 16q9 17 28 17.5t25 -9.5t6 -20
q-9 -18 -29.5 -39t-42 -36t-45.5 -24q-43 -16 -104.5 -16t-109.5 11q-47 12 -82 38q-75 57 -75 184q1 88 63 148q71 68 187 69q30 0 55.5 -5.5t62.5 -5.5t71 27z" />
    <glyph glyph-name="d" unicode="d" horiz-adv-x="665" 
d="M418 575q-18 0 -32.5 -8t-30.5 -8t-21.5 7t-5.5 16t7 18t15 10.5t35 8.5t58 16l58 17q28 6 32 8q16 5 24 11q7 5 11 7q9 4 24 4t20 -6.5t5 -21t-7 -23.5t-10 -39l-10 -83l-14 -108q-15 -121 -18.5 -177t-5.5 -71l-4 -29q-5 -36 -5 -57.5t4 -38.5q29 2 50 16t41 34
q24 -2 24 -23.5t-14 -36t-34 -23.5q-38 -17 -68.5 -17t-46.5 9t-30 23q-23 23 -42 62q-38 -48 -96 -79.5t-115.5 -31.5t-90.5 18q-34 19 -54 49q-38 58 -38 162q0 45 27 85.5t64.5 71t76 48.5t70.5 18t57 -5.5t40.5 -12.5t24.5 -14t17 -10q14 27 16.5 58.5t2.5 88.5t-11 57z
M203 164q2 -34 12 -66q34 -63 69 -75h2q51 0 84 51q27 40 41 106q10 46 10 75t-8 45t-22 30q-32 32 -64 32h-1q-33 -1 -55 -11.5t-38 -29t-25 -43.5t-9 -52t4 -62z" />
    <glyph glyph-name="e" unicode="e" horiz-adv-x="552" 
d="M247 129l-1 -13q0 -44 22 -77q8 -11 14 -14.5t16 -3.5h14q70 0 130 33q11 6 22 18l24 26q11 12 21 21.5t18 9.5t12 -9t4 -14q-1 -10 -25 -37q-26 -28 -57 -46q-31 -17 -67 -29q-69 -22 -138 -22q-1 -1 -2 -1q-68 0 -115 34q-48 34 -86 86q-19 26 -22 55.5t-3 67t31 81.5
t76 79.5t96.5 57.5t85.5 22t66 -6q31 -4 59 -18q66 -32 66 -96q0 -84 -90 -144q-76 -52 -171 -61zM234 203q0 -10 10 -17t28 -7h1q34 0 73 59q37 55 37 98q0 26 -11 41q-20 27 -42.5 27t-39.5 -22q-18 -22 -30 -52q-26 -66 -26 -127z" />
    <glyph glyph-name="f" unicode="f" horiz-adv-x="431" 
d="M394 19q0 -24 -40 -24q-2 0 -24 1t-61 1.5t-94 1.5t-121 1q-8 0 -15 5t-7 19t9.5 21t23 9t28 3t25.5 9l1 21q0 37 -9 84q-17 88 -17 132q-20 2 -38.5 5t-18.5 17q0 20 34 24q8 1 16 4q0 132 8.5 175t18 63t23.5 37q39 39 67 50q38 14 79 14t72.5 -14t60.5 -25q14 0 22 7
q15 13 26.5 13t26.5 -6l13 -157q0 -14 -3 -26.5t-16 -12.5q-21 0 -81 64q-12 13 -19.5 30t-15.5 33t-18.5 27t-24.5 11t-27.5 -1.5t-18 -14.5t-7 -22.5t-4 -19t-1.5 -21.5v-30q0 -167 32 -167q16 0 32 2q28 4 32 5q24 0 24 -21q0 -24 -69 -34q-14 -2 -19 -2q26 -69 44 -257
q3 -8 11 -9t17 -2t16 -5t7 -18z" />
    <glyph glyph-name="g" unicode="g" horiz-adv-x="599" 
d="M522 365q8 -85 8 -142.5t-3.5 -106t-14.5 -94.5q-30 -124 -134 -222q-78 -74 -204 -74q-59 0 -99 40q-38 38 -38 104q0 50 12 64q20 24 67 34l25 1q24 0 37 2q25 -13 25 -45l-8 -81q0 -5 6 -28q12 -41 17 -43q46 9 78 45.5t51 84.5q36 92 36 198q-25 -40 -83 -64
q-50 -21 -97 -21q-35 0 -67 12q-65 23 -89 83q-12 30 -12 68.5t13.5 79t39.5 74.5q59 76 151 76q22 0 59 -19q62 -32 82 -55q-4 12 -4 37v28q0 25 19 30.5t41 5.5t42.5 -0.5t38.5 -2.5q41 -6 41 -26q0 -10 -10.5 -19t-16.5 -13.5t-9 -10.5zM305 82q18 5 32 21q33 36 33 116
q0 62 -24 89t-64 27q-29 0 -45 -49q-12 -36 -12 -95.5t14.5 -87t31 -27.5t34.5 6z" />
    <glyph glyph-name="h" unicode="h" horiz-adv-x="660" 
d="M273 25q23 0 29 -25q0 -18 -11 -21.5t-27.5 -3.5t-26.5 1q-12 0 -22 2q-24 4 -57.5 4t-48 -1.5t-27.5 -4.5l-26 -6l-29 -8h-6q-32 0 -32 29q0 19 29 25q33 6 50.5 26t24.5 38q9 24 9 82q12 240 12 397l-21 -1q-15 0 -22 5t-7 21t13 18t35 8q83 21 135 52q16 20 25 20
t13.5 -9.5t4.5 -21.5t-8.5 -27t-11 -32t-6 -46.5t-6.5 -57.5q-7 -66 -7 -70.5t0.5 -15.5t0.5 -15q18 18 47.5 38t45.5 23.5t47 3.5q70 0 122 -52q58 -58 62 -177q1 -32 1 -62v-13q7 -70 19 -79l21 1q31 0 39.5 -5.5t8.5 -27.5q-12 -24 -96 -40q-21 -4 -36 -4q-51 0 -81.5 21
t-48.5 68l-5 14q-4 8 -7 16l-5 16q-3 7 -3 9v182q0 23 -12 37.5t-30.5 14.5t-33 -14t-26.5 -36q-30 -52 -38 -126l-4 -38q-6 -42 -6 -51l6 -75q7 -7 17 -7zM414 407q0 3 -2 3q-4 0 -4 -2q0 -4 4 -4q2 0 2 3z" />
    <glyph glyph-name="i" unicode="i" horiz-adv-x="399" 
d="M211 -8q-53 0 -137 -14q-25 0 -25 26q0 19 10.5 24t24.5 5.5t27.5 1.5t18.5 11v10l1 31v10q0 120 -20 207q-12 18 -29 21t-32.5 3.5t-27 4t-11.5 17.5t14.5 22t34 14t38 10.5t41.5 13.5l63 23q41 15 69 15t31.5 -5.5t3.5 -25.5t-6 -32l-1 -173q0 -55 3 -71
q4 -21 12.5 -51t20.5 -40.5t25 -19.5l24 -14q10 -7 10 -12q0 -17 -12 -21.5t-27 -4.5l-12 1q-42 13 -132 13zM147 484q-67 0 -67 78.5t88 122.5q42 0 67.5 -23.5t25.5 -64.5t-38 -77t-76 -36z" />
    <glyph glyph-name="j" unicode="j" horiz-adv-x="463" 
d="M159 321l28 -1q18 0 21.5 3t9.5 5.5t24 5.5q40 7 142 12q2 0 10.5 -6t8.5 -13v-70q0 -192 -9 -263.5t-21.5 -108.5t-27.5 -59t-29 -37t-34 -26q-44 -25 -103 -25q-49 0 -105 21q-14 5 -15 5l-49 49q-21 21 -24 41.5t-3 40.5l1 81l19 20q97 0 105 -18q4 -7 8 -21
q-7 0 -7 -32v-36q0 -26 9.5 -49t28.5 -33q40 0 58 20q19 21 25 65q18 127 18 219q0 57 -8.5 82.5t-19 41t-22.5 21.5l-23 10q-10 5 -16.5 12.5t-6.5 23.5t7 19zM190 440l1 24q4 21 25 41q37 34 62 34q10 0 33 -18q43 -34 43 -51q0 -42 -24 -68t-63.5 -26t-58 12t-18.5 52z
" />
    <glyph glyph-name="k" unicode="k" horiz-adv-x="618" 
d="M624 12q0 -23 -92 -23q-49 0 -62.5 3t-31.5 8t-34.5 23.5t-29 42t-22.5 49.5q-11 25 -23 47q-28 49 -66 50q-17 0 -21 -2l-13 -12q-2 -16 -3 -26t-2 -19t-1 -13t1 -18q2 -13 2 -28q1 -35 3 -47q3 -10 15 -12l26 -4q14 -2 25 -8t11 -22t-13 -16q-8 0 -26 -1t-41 -2t-48 -2
l-50 -4q-23 -1 -41 -2t-27 -2q-32 0 -32 25q0 13 8 20.5t17.5 15t17.5 17.5t8 29q14 101 14 144v78q0 118 -14 210q-5 27 -29 31q-10 2 -21 4.5t-19 13.5l-1 4q0 14 13 21t26 7l6 -1q15 6 53 23l57 27q20 9 26 11.5t12 7.5l12 12q17 14 29 14q18 0 18 -27t-7 -42
q-7 -81 -10 -187t-3 -110v-12l1 -32v-10q102 59 176 131q-14 2 -28.5 6.5t-14.5 22.5q0 27 59 27q111 0 111 -36q0 -26 -65 -26l-126 -99q52 -28 112 -114l44 -65q21 -31 33.5 -43t25 -16.5t25 -10t21.5 -12.5t9 -19z" />
    <glyph glyph-name="l" unicode="l" horiz-adv-x="324" 
d="M73 -15l-15 -1q-35 0 -49 16q-6 6 -6 13q0 9 7 16q6 6 13 6h81q2 0 4.5 7t2.5 10.5t-1 11.5t-2 18q-3 28 -9.5 76t-6.5 138l7 258q0 17 -6 32q-15 -3 -22 -3q-29 0 -29 24q1 16 47 34l30 12l51 23q42 19 66 23q13 0 19 -14t6 -25t-3 -28l-6 -34l-7 -30q-3 -13 -3 -45
t-3 -81q-2 -49 -6 -95q-10 -125 -10 -169q0 -62 7 -93q2 -24 9 -28q9 -6 32 -6h6q17 0 30.5 -2t13.5 -14q0 -28 -20 -31q-107 -3 -228 -19z" />
    <glyph glyph-name="m" unicode="m" horiz-adv-x="867" 
d="M239 -8l-150 -2q-32 2 -44 4.5t-11.5 19t11.5 20t24.5 4t24.5 2.5t12 14l-5 45q0 6 1 30.5t2 54.5q3 76 6 94l-4 16l-5 18q-6 20 -13 20l-57 3q-5 0 -8.5 10t-3.5 13q0 10 7 11l114 19q15 3 32 12q32 17 46.5 17t20.5 -5t9 -13q4 -11 4 -35q23 8 47 18t46 18q51 20 70 20
h1q19 -1 31.5 -9.5t25 -20t23 -22.5t17.5 -17q85 68 148 68q77 -1 114 -41q16 -18 16 -46l-6 -179v-54q0 -41 20 -46q24 -6 30.5 -11t6.5 -19.5t-16.5 -18t-33 -3.5t-24 -1t-13.5 -2l-12 -2q-6 -1 -15 -1q-92 0 -92 32q0 62 9.5 125t9.5 126q0 27 -7.5 44t-33.5 19
q-26 -2 -46 -18q-39 -30 -39 -52q8 -23 8.5 -56.5t0.5 -55.5t-2 -47q-3 -24 -7 -48q-11 -61 -34 -63q-5 -1 -21.5 -2t-24 -1.5t-15 0t-17.5 2t-17 5.5q-15 9 -15 32q0 52 7 99t7 95t-18.5 76t-41.5 28q-40 0 -68 -36q-24 -32 -25 -60l-9 -195q6 -5 15 -6t18 -2.5t15.5 -5.5
t6.5 -16.5t-14 -21.5h-39z" />
    <glyph glyph-name="n" unicode="n" horiz-adv-x="631" 
d="M51 -20q-28 4 -28 35q2 14 8 17t16 3l8 -1q28 0 36 24q6 15 6 52q0 3 -1 6v6q0 40 7 90q7 52 7 95.5t-3 76.5l-46 -2h-10q-9 2 -20 6t-11 12t6.5 15t8.5 11q6 -1 11 -1h22q17 0 29 1t18.5 1.5t13 1.5t26.5 1q29 0 78 22q12 -2 20.5 -7.5t12.5 -7.5l-5 -49q2 -2 6 -2
q8 0 30 16q47 21 75 31.5t44 10.5t31.5 -5t31.5 -15q37 -22 51 -54q23 -57 23 -95q0 -16 -4 -42q-8 -49 -9 -73q0 -37 5 -53q4 -16 8 -28q9 -31 15 -33q5 -5 13 -6.5t16 -3.5q18 -5 18 -19t-48 -22q-28 -5 -50 -5q-45 0 -70 18q-71 52 -71 212q0 134 -52 134q-27 0 -49 -26
q-21 -25 -23 -48l-20 -198q0 -35 20 -48.5t53 -16.5q7 -1 7 -10q0 -19 -36 -19q-13 0 -31 5q-36 10 -67.5 10t-126.5 -23z" />
    <glyph glyph-name="o" unicode="o" 
d="M57 82q-20 29 -23 61t-3 74t29 81.5t74 67.5q94 60 202 60q93 0 157 -93q28 -40 42.5 -87.5t14.5 -96.5t-30 -95q-40 -62 -114 -80q-24 -6 -61.5 -11.5t-44.5 -5.5q-74 0 -135 27t-108 98zM223 183q0 -23 2.5 -50t9.5 -52q17 -61 49 -61q35 0 54 24t28 58q12 46 12 144
q0 42 -10 73q-24 52 -36 58h-2q-61 0 -87 -71q-20 -52 -20 -123z" />
    <glyph glyph-name="p" unicode="p" horiz-adv-x="596" 
d="M242 -263q-157 -10 -191.5 -10t-34.5 16t7 23t16 11t17 9t14 34.5t12 66.5t9 73q4 48 4 165v36q0 33 -2.5 66t-18.5 55q-5 7 -15 11q-8 5 -18 9q-24 11 -24 30q0 5 58 24.5t80 27.5q51 19 57 29h34v-56q9 4 12 10.5t9 14.5q23 28 49 39.5t56 11.5q48 0 65 -7
q38 -18 62.5 -36t38.5 -42q24 -42 24 -141q0 -31 -46 -101q-11 -16 -20.5 -27.5t-32.5 -26.5t-47 -26q-55 -25 -68 -25t-26 4q-13 5 -28 9q-49 12 -61 12q-3 0 -4 -48q-3 -98 -7 -129l4 -64q36 0 36 -27q0 -8 -5.5 -14.5t-14.5 -6.5zM236 82q52 -25 113 -25h1q41 0 61 55
q16 44 16 97.5t-3 77.5t-11 41q-14 28 -64 54q-56 -28 -90 -114q-29 -72 -29 -156q0 -16 3.5 -19.5t3.5 -6t-0.5 -2.5t-0.5 -1v-1z" />
    <glyph glyph-name="q" unicode="q" horiz-adv-x="664" 
d="M340 -258q-26 0 -26 22v4q9 17 17 21t16.5 4.5t18.5 1t23 10.5q6 24 6 67t1 65.5t3 41.5q4 39 4 58q0 22 -8 26q-69 -69 -163 -69q-87 0 -143 52q-56 53 -57 140q0 42 26 103t75 99t114 38t105 -19q0 -4 11.5 -9.5t19 -9.5t12.5 -6v6q0 1 -1 6l-2 10l-2 10q-1 5 -1 11.5
t5.5 12t13 8t16.5 3t25.5 6t39.5 11.5t45 10q41 6 89 6q24 0 24 -25q0 -18 -20 -25q-44 -37 -56 -100q-1 -10 -3 -31l-3 -47l-4 -56l-4 -56q-2 -26 -4 -48q-2 -20 -2 -38v-14q0 -14 1 -34q1 -30 4 -60q7 -72 26 -111q6 -12 15.5 -14.5t19 -4t16.5 -7t7 -21t-7 -16.5
q-22 2 -60 2t-87 -9l-103 -19zM277 363q-94 -63 -94 -211q0 -46 8 -65q17 -42 55.5 -42t68.5 19.5t50 49.5q40 61 40 138q0 52 -26 85.5t-73 33.5q-12 0 -16 -1t-13 -7z" />
    <glyph glyph-name="r" unicode="r" horiz-adv-x="533" 
d="M268 -8l-185 -7q-23 0 -38.5 6t-15.5 32q1 12 27 15q29 3 35 9q22 24 22 132q0 75 -4 111t-5 39q-4 16 -17.5 19.5t-28.5 5.5t-26.5 7.5t-11.5 20t7 16.5q20 1 67 8l74 10q26 2 48 6q46 8 51 8q23 0 23 -31q0 -45 -11 -76q13 11 27 32t30 42q40 52 68 52t49 -12t36 -31
q32 -41 32 -89q-1 -67 -49 -95q-18 -10 -40.5 -10t-34.5 14t-19.5 34t-13.5 42.5t-13 40.5q-81 -76 -89 -169q-2 -27 -3 -54l1 -65q0 -13 8 -17t18 -6.5t18 -6t8 -15.5t-12 -19z" />
    <glyph glyph-name="s" unicode="s" horiz-adv-x="490" 
d="M282 397q-83 0 -83 -25q0 -31 19 -55t47 -45.5t61.5 -41.5t61.5 -42q66 -52 66 -109q0 -70 -78 -96q-48 -16 -119.5 -16t-118 11t-75 14.5t-34 11.5t-5.5 19.5t5 21t12 18.5q20 26 24 37.5t6 21.5q2 8 6 16q8 18 25.5 18t30 -23t29 -50.5t40 -50.5t62.5 -23q67 0 67 37
q0 31 -70 84q-30 23 -66 48t-66 50q-71 58 -71 100q0 39 20 60q21 22 51 34q41 17 126 24l50 1l76 1q44 0 53 -6q13 -10 13 -38t-0.5 -49t-2.5 -37q-4 -33 -20 -33q-22 0 -39 17.5t-32.5 38.5t-32 38.5t-38.5 17.5z" />
    <glyph glyph-name="t" unicode="t" horiz-adv-x="459" 
d="M151 466l-6 57h-1q-5 0 -37 -6q-11 0 -21 8t-10 20.5t9.5 20t24.5 12.5q17 6 73 14l18 -1q16 2 32 11l30 16q32 18 53.5 18t25 -11.5t3.5 -27.5l-2 -11q-11 -66 -11 -88v-34l2 -24q0 -12 0.5 -22t0.5 -14q23 0 45 4t46.5 4t24.5 -20q0 -13 -6 -20q-28 0 -68 -5t-44 -6
q-8 -5 -16 -54t-8.5 -64.5t-2.5 -30.5t-5 -31q-7 -37 -7 -80q0 -20 15 -37t36 -17l38 2q14 0 25.5 -4t11.5 -19q0 -1 -1 -2v-1q-32 -44 -156 -44q-81 0 -117 57q-27 42 -27 115q0 12 14 159l-2 44h-123q-7 0 -10.5 9t-3.5 14q0 15 14 21q127 8 137 13q6 36 6 55z" />
    <glyph glyph-name="u" unicode="u" horiz-adv-x="645" 
d="M551 -33q-98 0 -151 120q-8 -39 -72 -75q-59 -33 -108 -33q-63 0 -110 56q-41 49 -41 108v167q0 12 -6 19.5t-13 15t-13 16t-6 22.5q0 29 98 29h39q37 0 51 -2l37 -13q0 -36 -6 -104q-12 -130 -13 -165v-11q1 -29 5 -38q10 -19 34 -19q17 0 31 10l25 17q2 3 15 21
q25 31 25 35v254q0 31 110 33h51q21 0 28.5 -4.5t7.5 -15t-1 -14t-6 -5.5q-3 -22 -8 -41l-8 -36q-9 -40 -9 -79q0 -155 58 -194q20 -13 34.5 -18t14.5 -6q0 -15 -34 -33q-45 -17 -57 -17h-1h-1z" />
    <glyph glyph-name="v" unicode="v" horiz-adv-x="587" 
d="M589 379q-12 -19 -42 -19q-8 0 -19 -2q-2 -53 -23 -104q-34 -83 -124 -249q-8 -15 -68 -15q-66 0 -91.5 10t-41 25.5t-28 47.5t-21.5 70q-10 38 -18 74q-22 94 -41 130q-7 13 -23.5 13t-30.5 4t-17.5 8t-3.5 20q0 39 148 39q26 0 50.5 -13t31.5 -36l49 -154
q22 -71 35 -100t18 -38l10 -18q13 -23 16 -23q35 70 65 137.5t36 79.5q16 32 16 60.5t-13 35t-28.5 7.5t-28.5 4t-13 19t3.5 21.5t14.5 9.5q35 -3 69.5 -8t70.5 -5l13 1q13 0 21 -5t8 -27z" />
    <glyph glyph-name="w" unicode="w" horiz-adv-x="828" 
d="M213 1q-37 22 -37 25v6q-42 83 -56 130q-16 51 -39 159q-5 19 -19 28.5t-29 17t-27 17t-12 23t8 22.5t20.5 11.5t35 5t43.5 4.5q42 4 57 4q42 0 61 -39q19 -46 37 -116q39 -157 55 -185q2 -4 2 -6q13 6 31 76q4 16 7 24q12 33 23.5 87t14 65t2.5 25.5t1.5 26.5t6 19.5
t16.5 7.5q38 0 80 -6q14 -8 19 -26.5t7 -29.5t5 -20l11 -33l17 -50q23 -67 28 -83q43 -101 57 -110q75 195 75 276q0 13 -2 23q-74 0 -74 43q0 24 45.5 24t71.5 -0.5t40 -3.5q26 -5 26 -23q0 -22 -30 -29q-8 -2 -14 -6q0 -15 -47 -172l-53 -181q-7 -24 -17.5 -35t-42.5 -11
q-71 0 -103 45q-33 44 -94 165q-11 22 -13 24q-14 -21 -34 -90q-20 -68 -24 -80l-4 -11v-31q-9 -4 -14 -8q-7 -6 -25 -6h-5q-17 0 -42 4q-18 3 -36 3h-10z" />
    <glyph glyph-name="x" unicode="x" horiz-adv-x="669" 
d="M354 -46q-23 0 -26.5 7.5t-3.5 22t6.5 20t15.5 6.5t17 1.5t11 8.5q-15 19 -26 34l-20 28q-16 21 -44 51q-10 0 -43 -23l-55 -38l-32 -23l-14 -9q-3 -3 -5 -3q5 -11 19.5 -12.5t29.5 -2t27 -4.5t12 -18t-7.5 -18.5t-27.5 -4.5h-48q-102 0 -150 4q0 8 2 18t22 14
q48 9 60.5 21t33.5 28l42 32l45 32q22 16 38 30l4 6q-11 35 -31 62.5t-33.5 44t-26.5 36.5q-8 9 -13 25q-8 26 -31 31q-29 6 -36 13t-7 19q0 25 16 25h219q1 2 7 4t10 2t11.5 -2.5t14.5 -7.5q17 -12 17 -23t-4.5 -18t-5.5 -11h-50q0 -5 20 -25l33 -33q13 -14 22 -22.5
t14.5 -16t14 -7.5t26.5 13t38 31q52 44 56 57q-14 1 -28 6t-14 22q0 14 20 14l13 -1q82 -6 115 -12q11 -4 11 -20q0 -21 -72 -21q-79 -69 -106 -97t-27 -30.5t8 -13.5q6 -12 16 -26q21 -30 33 -41l25 -30q2 -2 8 -13l15 -22q8 -12 14.5 -23t8.5 -14q0 -8 16.5 -9t37 -2.5
t37 -7t16.5 -22.5q-18 -16 -43 -20.5t-54.5 -6.5t-100.5 -2t-113 -13z" />
    <glyph glyph-name="y" unicode="y" horiz-adv-x="615" 
d="M434 363q-42 0 -42 21q0 1 4 9.5t8 9.5l194 12h1q3 0 13 -9l11 -10q0 -22 -56 -24q-14 0 -25 -1q-13 -89 -42 -171l-47 -136q-19 -54 -32.5 -86t-30.5 -65.5t-37 -66.5t-40 -59q-46 -58 -81 -58h-1q-63 0 -138 87q-40 46 -54 74t-14 37t6 14.5t15 8.5q12 4 34 4t35 -2
t24 -12q25 -24 25 -99q21 -27 30 -36q20 -18 41 -18q23 1 59 61q35 60 35 97.5t-11.5 65t-29 54.5t-38 54.5t-45 68t-59 79.5t-86.5 61q-7 3 -17 5q-11 1 -21 5q-25 9 -25 26.5t14 26t36 13t49 6.5t40 3.5t18 1.5t12.5 -1t16 -2t19.5 -5.5t29 -22.5l34 -42q32 -42 58 -83
l62 -101q14 -18 32 -55h6q4 9 23 71t46 179l-1 15z" />
    <glyph glyph-name="z" unicode="z" 
d="M284 61q0 -4 29 -10q47 0 83 13.5t65 32.5t43.5 33.5t31.5 14.5t20 -4.5t3 -14t-2 -20.5q-2 -12 -6 -26q-5 -22 -12.5 -43.5t-7.5 -29.5q-2 -8 -4 -15q-6 -16 -18 -16t-19 7q-88 25 -131 25t-79 -4.5t-73 -10.5q-92 -15 -126 -15t-43 3t-9 16q0 16 12 34q10 17 25 35
t31.5 35t23.5 25l13 16q7 7 14 16q17 22 22 27q15 24 29 49q12 26 26 52q31 59 64 91h-8q-86 0 -134 -21q-48 -20 -68 -46q-10 -12 -21.5 -12t-18.5 9t-7 24t5 35.5t13 38.5q19 42 33.5 42t28 -4t39 -5t70.5 -2l90 -2q167 -4 175.5 -5.5t14.5 -4.5q16 -7 16 -26
q-1 -5 -1 -11q-4 -5 -14 -17l-22 -24q-45 -54 -77 -102l-51 -76l-33 -51q-35 -54 -35 -56z" />
    <glyph glyph-name="braceleft" unicode="{" horiz-adv-x="436" 
d="M409 62q20 -11 20 -41q0 -8 -2 -13t-12 -8l-19 1q-35 0 -68 -7t-73 -7t-76 17t-64 46q-60 63 -60 146l7 83v25q-7 11 -25 17t-25 10.5t-7 16t6.5 17t16.5 6.5t20.5 2t16.5 4t12 7t10 9q12 14 12 16l25 168q5 41 101 89q38 20 77.5 32t62.5 12q51 0 51 -22q0 -8 -16 -14
l-34 -12q-20 -6 -38 -15.5t-26.5 -33.5t-10.5 -54t-2.5 -59.5t-4 -58.5t-13.5 -48l-17 -31q-7 -12 -7 -21.5t10 -24.5t10 -38t-6.5 -48t-6.5 -50t11 -47q11 -23 29 -39q40 -36 88 -36q15 0 27 4z" />
    <glyph glyph-name="bar" unicode="|" horiz-adv-x="221" 
d="M139 128q0 -110 -19.5 -110t-22.5 22q-6 42 -6 134v105q0 30 -2 46q-2 15 -4 35q-6 58 -6 139q0 134 27 134q6 0 15.5 -6t9.5 -13q2 -287 5 -374.5t3 -111.5z" />
    <glyph glyph-name="braceright" unicode="}" horiz-adv-x="436" 
d="M40 1l-19 -1q-10 3 -12 8t-2 15q0 28 20 39q12 -4 31.5 -4t42.5 10t41 26q40 37 40 85q0 26 -6.5 51t-6.5 48t10 38t10 24q0 10 -7 22l-17 31q-10 19 -13.5 48t-4 58.5t-2.5 59.5t-10.5 54t-27 33t-38 15.5t-34.5 12t-15 14.5q0 22 51 22q50 0 140 -44q58 -29 78.5 -51.5
t22.5 -37.5l25 -168q0 -2 8 -12q14 -16 23 -19.5t19 -3.5q11 0 21 -2q23 -3 23 -26q0 -10 -7 -14.5t-16 -7.5q-27 -9 -34 -20v-25l7 -83q0 -83 -60 -146t-142 -63q-38 0 -71 7t-68 7z" />
    <glyph glyph-name="asciitilde" unicode="~" horiz-adv-x="644" 
d="M64 260q-22 0 -22 25t18 41l41 37q40 36 123 36l36 -2l185 -50l9 -1q47 0 78 16t56 54q12 0 16.5 -4.5t8.5 -14.5q-13 -70 -100 -88q-24 -5 -47 -5h-14l-217 50h-12q-57 0 -101 -47l-30 -33q-14 -14 -28 -14z" />
    <glyph glyph-name="uni00A0" unicode="&#xa0;" horiz-adv-x="240" 
 />
    <glyph glyph-name="exclamdown" unicode="&#xa1;" horiz-adv-x="323" 
d="M69 222l-1 16q0 122 46 178q19 24 45.5 24t40 -18.5t17.5 -37.5l63 -298q0 -50 -42 -74q-34 -19 -87 -19q-19 0 -38 8.5t-23 24t-6.5 43t-5.5 57.5zM60 550q-10 19 -10 43t10 41t26 29q32 25 73 25q61 0 83 -40q8 -14 8 -29.5t-2 -36t-10 -40.5q-18 -47 -63 -47
q-86 0 -115 55z" />
    <glyph glyph-name="cent" unicode="&#xa2;" horiz-adv-x="494" 
d="M398 217l4 1q6 0 12.5 -4t6.5 -18t-15.5 -28.5t-35.5 -30.5q-40 -33 -108 -33h-17q-9 0 -17 1l-25 -99q0 -3 -7.5 -8t-8.5 -5q-14 0 -18 8.5t-4 14.5t2 16l5 26q8 40 13 60v2q0 4 -6 10q-67 36 -92 61q-52 50 -52 110l1 15q22 163 144 244q40 27 91 42q9 44 23 71.5
t20 33.5q14 0 17 -10t3 -19l-7 -62q0 -2 17 -10q18 -8 42 -22q64 -37 77 -63v-5q0 -2 1 -4q0 -23 -22 -23l-10 1q-34 39 -51 49q-31 20 -76 20q-49 0 -52 -20l-81 -341l-1 -9q0 -13 8 -16q28 -15 46.5 -20.5t50.5 -5.5q57 0 120 70h2z" />
    <glyph glyph-name="sterling" unicode="&#xa3;" horiz-adv-x="673" 
d="M600 143l7 2q11 0 20 -19q-4 -13 -15 -43l-16 -45q-6 -15 -11 -26t-17 -21.5t-26 -16.5q-26 -12 -56 -12t-66 12l-66 25q-33 13 -66 24.5t-64.5 11.5t-60.5 -9t-47.5 -9t-32 6.5t-26.5 16.5q-31 24 -31 47q0 12 1.5 23t12.5 16q2 -3 10 -8q22 -14 33.5 -22t13.5 -8h4
q13 0 35 45q19 40 27.5 76t13.5 54.5t10 40.5l-53 36v19q5 -2 12 -2q18 0 52 12q11 4 15 7q6 6 16 37.5t20 52.5t32 62q23 42 49 76q61 78 129 78q50 0 79 -14q53 -27 75 -76q3 -5 4.5 -17t2.5 -18.5t1 -8.5q-23 0 -31 7t-14 15.5t-16 15.5t-34 7h-40q-28 0 -70 -69
q-16 -26 -25 -48l-16 -40q-15 -36 -22 -57l-7 -20l14 -19h102q0 -32 -64 -38q-40 -3 -56.5 -11t-20 -19t-9.5 -32q-7 -22 -13 -44q-16 -60 -19 -70l-1 -19q0 -24 13 -35q12 -10 24 -16l24 -12l26 -12q20 -8 34 -15l26 -1l34 -1l60 2q46 53 80 126z" />
    <glyph glyph-name="currency" unicode="&#xa4;" horiz-adv-x="488" 
d="M103 130l-12 -6h-3q-8 0 -15.5 5t-7.5 14v4q0 1 1 2l55 68v2q0 1 1 2q-1 0 -11.5 20.5t-38.5 68.5q-1 3 -1 14v14q0 18 7 37q13 34 13 53q-31 26 -37 34q-15 19 -15 43q47 0 82 -46l7 -1q15 0 27 9t23.5 19.5t23.5 19.5t32 9t40.5 -9.5t43.5 -9.5h8l56 68q1 2 6 4.5
t9.5 2.5t10 -6t5.5 -12q0 -7 -8 -19q-20 -32 -34 -48l-8 -8q31 -37 47 -69t16 -77q0 -59 -56 -115v-13l43 -55v-19h-31l-56 56q-19 0 -36 -6.5t-38 -6.5t-42.5 10t-45.5 10l-3 -1h-2z" />
    <glyph glyph-name="yen" unicode="&#xa5;" horiz-adv-x="640" 
d="M208 0l-32 -2q-11 0 -17.5 3.5t-6.5 14t5.5 17t13.5 10.5q14 7 36 7q14 0 14 72v23l-1 17v11l-74 13l-25 25l13 12h93q7 1 7 9v10q0 11 -7 12q-58 8 -82 17.5t-24 13.5q0 14 6.5 16.5t16.5 2.5l89 -6v12l-93 310l-19 18q-4 4 -19.5 4t-32 1.5t-29 7t-12.5 20.5q0 1 2 5
q3 4 5 8q6 12 12 10h230q13 6 22 7q18 0 21 -13l70 -234l66 166q4 52 24 66q15 10 75 10h18q45 0 45 -20q-1 -22 -69 -28q-18 -2 -30 -3l-7 -7l-117 -266v-46h80q2 0 4.5 -10.5t2.5 -11.5q0 -16 -7 -16h-79l-1 -36q0 -12 2.5 -23.5t3.5 -11.5h74q6 0 13 -15q0 -9 -13.5 -13
t-30 -6.5t-30 -4t-13.5 -5.5v-122l74 -14q7 -2 7 -15t-7 -16z" />
    <glyph glyph-name="brokenbar" unicode="&#xa6;" horiz-adv-x="174" 
d="M64 257q29 1 35 -47q2 -12 2 -21t-1.5 -28t-3.5 -37q-5 -44 -7 -46l-13 -13l-12 13v179zM114 538q0 -30 -13 -134h-25v202q0 7 7.5 10.5t14 3.5t10.5 -7q3 -7 5 -16l2 -14z" />
    <glyph glyph-name="section" unicode="&#xa7;" horiz-adv-x="627" 
d="M523 141l-2 -31q-15 -18 -43 -45l-31 -30q-8 -8 -26 -14q-98 -13 -155 -13t-74 1t-28 8t-20 14l-19 15q-20 16 -30 26q-29 -44 -69 -44q0 28 33 80q34 54 61 54q8 0 12 -2q-1 -4 -1 -9q0 -13 5 -33q7 -29 8.5 -32t6 -7t10.5 -8q15 -10 21 -12l76 -13h6q39 0 67 11.5
t41.5 25t13.5 34.5q-1 15 -3 18l-7 9q-20 24 -31 28l-150 51q-1 0 -6 5l-21 20q-8 8 -15 17.5t-14.5 31t-7.5 39.5q0 39 24 70.5t52 55.5q-21 17 -36 35.5t-15 46.5v11q0 4 1 7q24 92 130 100q30 2 50 2h30l42 -2q15 0 60.5 -17t51.5 -20q5 27 19 27q11 0 20 -15
q0 -3 -2 -12t-4 -19q-5 -25 -7 -31q-2 -2 -6.5 -7t-6.5 -6q-26 15 -60 31l-44 21q-10 4 -19 7.5t-18 4.5q-8 1 -18 1h-36l-31 -2q-19 -4 -45.5 -13.5t-30.5 -11.5q11 -20 81 -32l54 -8q62 -10 132 -62q38 -28 73 -74v-25q0 -34 -10.5 -53t-26.5 -33t-36.5 -28t-39.5 -37
l11 -10l15 -15q20 -20 24 -26q13 -14 13.5 -26t0.5 -30zM231 365l1 -17q5 -10 20 -22q15 -14 24 -20q13 -10 60 -9q50 0 50 51q0 38 -37 60q-31 18 -72 18q-26 0 -32 -2q-14 -30 -14 -59z" />
    <glyph glyph-name="dieresis" unicode="&#xa8;" horiz-adv-x="582" 
d="M148 784q21 14 42.5 14t31.5 -13.5t10 -34t-14.5 -34t-30.5 -13.5t-25.5 3t-17.5 9t-13 14t-5 18.5t6 20.5t16 16zM350 784q20 14 41.5 14t32 -13.5t10.5 -34t-15 -34t-35 -13.5t-38 12t-18 27.5t6 25.5t16 16z" />
    <glyph glyph-name="copyright" unicode="&#xa9;" horiz-adv-x="640" 
d="M380 614q16 0 18 -2q81 -26 135 -93q56 -70 55 -151q0 -53 -18 -94t-46 -88q-37 -60 -141 -64q-28 -1 -59 -1t-67 5q-36 6 -68 18q-68 27 -105 92q-37 67 -37 101t16 69t42 66q59 72 136 96q14 4 17.5 6t11 3.5t16 3.5t16 4t9 2.5t26 13.5t43.5 13zM398 562l-37 -12h-50
q-85 -18 -144 -68q-71 -60 -71 -136q0 -102 74 -154q65 -46 176 -46q55 0 79 6q49 12 74 46l9 14l12 20l11 18q5 8 6.5 12.5t5.5 19.5l8 31l8 30q4 14 4 17q0 2 -2 10l-7 34q-3 14 -7.5 31.5t-17.5 38.5q-12 20 -29 36q-30 28 -89 52h-2l-4 1zM437 273q12 -6 12 -19.5
t-14 -23.5q-15 -10 -34 -18q-37 -14 -61 -14.5t-39.5 6t-28.5 16.5q-15 12 -50 53q-13 18 -13 38v7q0 5 5 20l9 28q8 26 10.5 31t9.5 12l15 15q24 24 31 26.5t13 5t12 4t9 2t16 2.5t28 4t28 3.5t16 2.5l26 13q6 3 26 3q0 -20 -10 -44q-18 -48 -36 -48q-11 0 -13 7t-2 15
q-4 0 -12 2q-9 2 -17 3h-5q-16 0 -20 -13q-13 -81 -13 -109.5t2 -38.5t11 -28q31 7 89 37z" />
    <glyph glyph-name="ordfeminine" unicode="&#xaa;" horiz-adv-x="495" 
d="M140 249l-62 2q-7 3 -7 13.5t8 13.5t40 5l65 3q34 2 58 3q49 4 92 12l81 18q14 0 17 -4t3 -17.5t-14 -20.5t-30 -7q-120 -19 -164 -20t-60 -1h-27zM134 663l31 -1q9 0 15 2q7 0 13 2q20 4 45 4.5t41 -3t40.5 -26t38.5 -41t14 -33t0.5 -29.5t2.5 -32q6 -42 18 -57
t23 -15.5t20.5 -2t16.5 -7.5t7 -19q0 -21 -6 -24q-104 -26 -147 -26q-14 0 -20.5 5.5t-14.5 13.5l-14 14q-8 8 -13.5 14t-7 6t-4.5 -4l-8 -8q-19 -22 -44 -31t-46 -9t-43 13q-37 23 -39 55q-1 14 -1 24l1 22l44 43q20 18 50 23.5t56 8.5l6 50q0 2 -6 11.5t-13 13.5
q-28 -3 -68 -32q-11 -7 -23.5 -19.5t-26.5 -17.5q-16 0 -24 9.5t-8 23.5q0 67 35 67q3 0 59 12zM188 423q34 24 34 38.5t-7.5 20.5t-23 6t-30.5 -2.5t-29.5 -8.5t-24.5 -15.5t-10 -24.5t13 -26t24.5 -11t25.5 6.5t28 16.5z" />
    <glyph glyph-name="guillemotleft" unicode="&#xab;" horiz-adv-x="424" 
d="M172 515q6 7 21.5 7t15.5 -7v-31l-124 -143q-6 -4 -6 -18l68 -105q15 -11 15 -44h-33l-117 162zM351 515q4 7 20.5 7t16.5 -7v-31l-125 -143q-6 -6 -6 -18l69 -105q11 -8 12.5 -20.5t1.5 -23.5h-33l-117 162z" />
    <glyph glyph-name="logicalnot" unicode="&#xac;" horiz-adv-x="582" 
d="M431 237l2 74h-21l-66 1h-29q-57 0 -113.5 -9.5t-112 -9.5t-55.5 26q0 37 63 37q304 29 382 39q35 0 38 -101q1 -30 1 -65l-1 -61l-1 -56l-6 -6l-18 -2q-33 0 -42 13q-4 6 -5.5 14.5t-3.5 18.5q0 33 -6 52t-6 35z" />
    <glyph glyph-name="uni00AD" unicode="&#xad;" horiz-adv-x="510" 
d="M428 232q-120 -8 -186 -8h-127q-60 0 -60 23q0 17 26 29l194 -6l144 6q14 0 24 -3t10 -16q0 -25 -25 -25z" />
    <glyph glyph-name="registered" unicode="&#xae;" horiz-adv-x="727" 
d="M49 275l-1 22v66l1 25q-1 2 3 12l6 17q2 6 4 10l6 13l6 12l24 26l32 32q41 40 45 42q5 3 21 10l36 15q56 23 64.5 25t21 4t26.5 4q35 5 41 5t13 -1l16 -4q15 -4 22.5 -7t22.5 -11l33 -19q50 -28 60 -34q127 -77 127 -227q1 -117 -95 -176q-46 -29 -72 -38l-37 -13l-23 -7
q-10 -4 -13 -4l-43 -2h-30l-40 2q-3 0 -30 10l-44 18l-32 12q-15 6 -44 24t-56 40q-64 52 -71 97zM434 574q-6 3 -8.5 4t-21 1t-48.5 -5q-30 -6 -62 -15q-75 -21 -102 -42t-47.5 -40t-36.5 -41q-34 -50 -34 -104q0 -49 13 -70q4 -7 36 -38t36 -34q3 -4 9 -8l12 -7l12 -8
q6 -3 20 -11l38 -20q24 -12 46 -20q49 -17 90 -17t78 11t72 30q81 44 104 97q8 17 14 32l8 23q3 8 3 9q0 13 -5.5 40.5t-10 47.5t-22.5 46q-19 26 -43 47q-58 49 -150 92zM236 236l-40 1h-9l-12 13q6 13 23 18t27 7v164q-25 -11 -63 -38q-2 0 -7 5t-5 10.5t6 13.5t14 15
q15 13 24 17q9 2 19 6l22 8l23 8l18 5q6 2 22 6l32 8q16 4 29 7t17 4l19 1q32 0 52 -19.5t20 -51.5q0 -28 -3 -31q-2 -7 -18 -21.5t-19 -15.5q1 -3 7 -10l12 -15q20 -27 23 -35t5 -12q5 -10 15 -16q5 13 20.5 14.5t25.5 1.5q1 -41 -23 -60q-8 -7 -23.5 -7t-25 14t-18.5 32
t-21 34q-16 21 -41 21q-5 0 -11 -1q-12 -2 -16 -2q0 -7 -2 -15q-3 -10 -4 -18v-5q0 -17 13 -22q10 -3 22 -6t19 -5t10 -2v-12q0 -4 -32 -8q-34 -5 -46 -5l-58 -1h-42zM390 479l-27 -2q1 -1 -1 -7q-4 -14 -7 -26q-5 -20 -5 -24v-8q0 -24 12 -24t26 6q12 5 24 14q28 22 28 43
q0 28 -31 28h-19z" />
    <glyph glyph-name="degree" unicode="&#xb0;" horiz-adv-x="232" 
d="M74 682l34 2q38 0 61 -15q41 -28 41 -66q-1 -35 -31 -67q-31 -34 -64 -34q-23 0 -29 7l-55 68q-8 8 -8 30t14.5 44t36.5 31z" />
    <glyph glyph-name="plusminus" unicode="&#xb1;" horiz-adv-x="433" 
d="M142 55l-54 1h-17q-14 8 -14 23t14 15l50 -13h12q72 0 183 26l57 13q3 -6 3 -20q0 -16 -2 -18q-6 -8 -38.5 -13t-46.5 -7t-26 -4t-15 -2h-14l-52 -1h-40zM231 572l3 -63l2 -18q2 -11 4.5 -21t4 -17t2.5 -7h113v-25q-88 -7 -126 -25q-4 -17 -8 -44t-4 -30v-51
q-1 -3 -5.5 -8t-7.5 -6l-12 14v109l-38 3l-51 -12q-12 -3 -37 -3v28l126 38l-1 31l1 31q0 14 5.5 45t6.5 31h22z" />
    <glyph glyph-name="uni00B2" unicode="&#xb2;" horiz-adv-x="383" 
d="M87 378h-25q-2 1 -12 10.5t-13 14.5v6q0 15 13 20q3 -1 13 -1h3q26 0 47 20q22 22 36 44q28 48 28 95q0 23 -4 33t-32 10t-49.5 -20t-41.5 -43q-10 3 -11.5 10t-1.5 15v12q41 65 130 65q60 0 91.5 -28.5t31.5 -90.5q0 -33 -13 -54t-32.5 -37.5t-41.5 -32t-40 -36.5
q45 -12 77.5 -12t46 14t22.5 31.5t18 31.5t27 14q1 -79 -33 -102q-19 -13 -44.5 -14t-35.5 -1h-32l-21 1q-1 0 -101 25z" />
    <glyph glyph-name="uni00B3" unicode="&#xb3;" horiz-adv-x="371" 
d="M48 379q0 19 33 19h6l63 -63q26 42 26 107v9l-1 26v9l-38 -13h-7q-19 0 -19 19q0 8 3 11t8 7q6 2 13 6l26 14q11 6 14 7v83q-5 0 -17.5 1t-26.5 2q-22 2 -34 2q-7 0 -10 -1l-38 -12q-2 -1 -3 -1h-4q-8 0 -13.5 5.5t-5.5 15.5t9 16t21 9t25 4t22 1l100 13q22 0 52 -6
t36 -7q13 -2 13 -16v-23q0 -29 -26 -57q-10 -10 -18 -19t-8 -17v-3q0 -1 1 -3q36 -28 63 -62.5t27 -72.5q0 -39 -1 -41q-2 -6 -14 -13q-66 -39 -132 -39h-36q-16 0 -32 14q-5 2 -19 18t-22 24l-10 9q-2 1 -13 5q-13 5 -13 10v3z" />
    <glyph glyph-name="acute" unicode="&#xb4;" horiz-adv-x="242" 
d="M202 768l4 1q10 0 18 -6t8 -12t-0.5 -6t-0.5 -1v-1l-188 -60q-2 -1 -4 -1h-7q-11 0 -16 3t-5 15v5q0 2 1 3l188 60h2z" />
    <glyph glyph-name="uni00B5" unicode="&#xb5;" horiz-adv-x="719" 
d="M617 -34l-13 1q-9 1 -23 3l-29 4q-36 5 -37 5.5t-5 4.5l-11 11q-15 15 -19 20t-8.5 15.5t-6.5 12.5h-5q-15 1 -33 -9q-42 -19 -46 -19q-26 0 -29 3q-10 2 -34.5 24t-27.5 26l-13 -25v-151l38 -38l-38 -50h-239v31h76v44q0 11 1 47.5t2 85t3 104.5q1 56 2 104q2 114 4 132
v13l-18 17l-13 13l-7 7q10 17 51 25q104 13 151 13q2 0 7 -5t5 -8t-5 -13t-7 -12l-2 -108l1 -51l1 -37q0 -2 2 -10q0 -8 2 -18q4 -26 10 -45q18 -64 61 -90q0 -2 12.5 -2t12.5 2q67 45 74 143q2 28 2 53v41q-1 18 -2 34q-1 17 -11 74q-1 2 -7 12.5t-6 12.5q0 3 8 10
q21 15 30 15h138l13 -13q-10 -15 -38 -25v-160q6 0 13 2h12q14 -1 14 -18q0 -8 -6 -10t-14 -2q-20 -1 -19 -11v-7q1 -11 3 -31l4 -40l4 -36q2 -16 2.5 -21t2 -15.5t3.5 -20.5t4 -17.5t2 -8.5q2 -1 12 -1l51 1q2 0 7 -4.5t5 -7.5q-9 -26 -74 -26z" />
    <glyph glyph-name="paragraph" unicode="&#xb6;" horiz-adv-x="697" 
d="M316 -1l-72 1h-24q-13 6 -13 21.5t13 15.5h101v198q-43 4 -94 10t-94.5 23.5t-73 50.5t-29.5 82.5t16 83.5q16 33 43 61q54 55 131 79q46 14 118 31t81 18t14 2l18 1q48 0 90 -8t94 -19q7 -4 18 -15t11 -23h-117q0 -31 5.5 -62t7.5 -63l12 -424l12 -3q8 -2 17 -6
q22 -9 22 -21.5t-13 -20.5q-8 -1 -29.5 -2.5t-46 -3.5t-46 -4t-26.5 -2h-19l-72 -1h-55zM258 568l-1 -56v-70q0 -81 14 -144q5 -8 17 -17t17.5 -9t10.5 5t5 10v20l1 64v21q0 57 -1 104.5t-13 103.5h-12l-38 -13v-19z" />
    <glyph glyph-name="periodcentered" unicode="&#xb7;" horiz-adv-x="226" 
d="M73 336q39 18 50 18h1q27 0 40 -16.5t13 -42t-18 -42.5t-37.5 -17t-31.5 4t-21.5 11.5t-16 17.5t-6.5 23t7.5 24.5t19.5 19.5z" />
    <glyph glyph-name="cedilla" unicode="&#xb8;" horiz-adv-x="192" 
d="M80 6q8 10 20 10t12 -16t-7 -29.5t-7 -23.5t1 -12l63 -62q6 -8 6 -28t-6 -37q-6 -18 -16 -32q-25 -34 -56 -34q-46 0 -64 28q-6 10 -6.5 22t5.5 12q9 0 20.5 -8.5t17.5 -12.5t16 -4t20 7q11 8 17 18q14 23 14 40.5t-9 25t-21 12.5l-23 10q-11 4 -15 12v25q0 51 18 77z
" />
    <glyph glyph-name="uni00B9" unicode="&#xb9;" horiz-adv-x="334" 
d="M308 383q-24 -12 -38 -12q-102 -16 -218 -16q0 35 13 39q6 2 13.5 0t14 1.5t16.5 13t10 12.5v151q-12 -9 -20 -23q-9 -15 -18 -27q-23 -32 -50 -31v18q8 8 34 45.5t28 41t5.5 11t8 15.5t8 15.5t4.5 9.5q12 20 34 23q23 4 37 4h23q2 0 4 1q7 0 12 -2q16 -5 16 -28
t-6.5 -47.5t-6.5 -50.5v-13l13 -126q18 4 31 4q32 0 32 -23v-6z" />
    <glyph glyph-name="ordmasculine" unicode="&#xba;" horiz-adv-x="482" 
d="M145 205l-34 -1q-9 0 -15.5 3t-6.5 15t8.5 16t22.5 5t50 3l78 6q41 3 77.5 6t49.5 3.5t26.5 -2.5t13.5 -20q1 -15 -29 -20q-6 -1 -10 -1zM231 304l-61 1q-42 9 -96 66q-16 17 -29 34q-10 16 -11.5 31t-1.5 34q0 80 73 144q30 26 62 40.5t52 14.5q46 0 78.5 -10
t49.5 -24.5t35 -33t32 -39.5q32 -48 32 -92.5t-20 -75.5t-52 -51q-62 -39 -143 -39zM210 430q26 -51 54 -51q26 0 44 37q11 22 18 58q0 80 -29 116q-13 16 -31.5 16t-32 -10.5t-23.5 -25.5t-16 -32.5t-6 -31t6 -34.5t16 -42z" />
    <glyph glyph-name="guillemotright" unicode="&#xbb;" horiz-adv-x="424" 
d="M36 515q0 7 12 7q21 0 25 -7l161 -179l-117 -162h-33q0 11 1.5 23.5t12.5 20.5l69 105q0 12 -6 18l-125 143v31zM215 515q0 7 12 7q19 0 25 -7l160 -179l-117 -162h-33q0 33 15 44l68 105q0 14 -6 18l-124 143v31z" />
    <glyph glyph-name="onequarter" unicode="&#xbc;" horiz-adv-x="832" 
d="M533 37l-46 -1h-15v26q4 1 13 2.5t19 4t19 4t13 3.5q24 8 25 11v83h-126q-6 0 -10 9.5t-4 16.5l1 5q12 12 38 25q17 29 79.5 110t68.5 88t14 14l18 15q10 8 20 15l13 10q4 1 15 4t14 3q0 -131 -16 -221q-1 -4 4.5 -14t8.5 -12q3 -1 7 -1h10l21 1l25 14q7 0 10 -7.5
t3 -12.5l-1 -6q-21 -12 -40 -18q-18 -4 -32 -12q-30 -16 -29 -65v-18q9 -26 13 -26h117q1 -29 -47 -35q-12 -2 -19 -2q-7 -1 -32 -2.5t-55 -4t-59 -4t-38 -2t-20 -0.5zM649 672l-1 -6l-11 -17q-9 -14 -52 -71.5t-118.5 -171t-112.5 -175.5q-37 -61 -46 -79l-19 -38
q-18 -36 -30 -64q-11 3 -12.5 10t-1.5 15v7q0 2 2 6l9 20q6 15 14 31q24 47 63 109l71 112l62 98l58 90q58 89 62 93l50 50q13 -5 13 -19zM497 213q16 -4 36 -4t28 4q0 1 2 7t4 14t3.5 16.5t2.5 13.5v63q-2 -1 -6.5 -6t-6.5 -8l-9 -13q-7 -10 -15 -23q-25 -35 -31 -48
t-8 -16zM309 352q-45 -13 -61 -13h-40l-87 -12q-3 -1 -17 -1h-32q-14 0 -15 1l-12 25q43 14 63 25q1 7 2.5 25t4 38t4 38t2.5 25l-1 9q-16 0 -35 -8q-37 -16 -53 -17v28q4 3 15 10l23 15l22 16q10 8 16 10l13 13q0 2 5 12.5t7 12.5h12q1 0 3 -1q19 0 27 14q9 15 16 28
q18 34 36 34q16 0 19 -13q14 -56 14 -112v-6q-1 -60 -3.5 -96.5t-2.5 -74.5h55v-25z" />
    <glyph glyph-name="onehalf" unicode="&#xbd;" horiz-adv-x="819" 
d="M613 648q2 2 16 12l21 17q8 6 12 8q7 4 14 4v-28q0 -1 -20 -25l-34 -44l-30 -40l-30 -36q-14 -18 -21 -26q-17 -25 -29 -31l-238 -414l-76 -76h-15q0 9 14 31q24 39 26 43.5t6 11.5t8 15l7 15q4 7 5 10zM632 -7l-31 1q-2 1 -9.5 4.5t-16 8t-16 8t-10.5 4.5t-13.5 3
t-22.5 4l-23 4q-11 2 -15 2l-1 13q0 16 9.5 21t16 7.5t12.5 8.5l24 22l34 34q44 44 58 59q26 28 25 88q0 10 -2.5 23t-15 13t-23.5 -5q-10 -6 -20 -14q-22 -19 -27 -27.5t-11 -21t-12 -26.5q-15 -36 -16 -41t-9 -5t-12.5 9t-4.5 16.5t1.5 18.5t3.5 23q5 28 6.5 32.5
t8.5 11.5q6 8 14 16l16 16q26 26 64 37t63.5 11t44.5 -6q19 -8 34 -20q34 -28 34 -69q0 -22 -10.5 -43t-15.5 -26.5t-19 -19.5l-30 -30l-31 -30l-19 -19q-4 -4 -11.5 -9t-16 -11.5t-15.5 -12.5q-8 -4 -9 -6q-3 -4 -3 -21t3 -17q2 -5 18.5 -9t22 -4t18.5 7l26 18q23 17 41 38
q14 -7 14 -19l-1 -3v-3q-49 -64 -120 -64zM236 686q14 -9 26 -38q0 -69 6 -131t8 -72.5t4 -22.5q5 -30 7 -38q3 0 10 -2t15 -4q31 -8 37 -19q-28 -21 -61 -22t-51.5 -2.5t-32.5 -3t-30 -4t-30.5 -4t-18.5 -1.5q-3 -1 -13 -3l-20 -4q-28 -5 -32 -7h-6q-8 0 -14 5.5t-6 15
t10.5 15.5t25 10t29.5 7.5t24 9.5q1 6 2.5 20.5t4 30.5t4 30t2.5 19l-3 74q-13 -1 -29 -9q-29 -16 -40.5 -15.5t-18.5 2t-10 12.5l12 12q11 10 35 26l36 25q12 9 18 12q-3 10 3.5 23t8 14.5t9 3.5t16.5 4l16 3q7 2 10.5 3.5t18 10.5t18.5 14z" />
    <glyph glyph-name="threequarters" unicode="&#xbe;" horiz-adv-x="889" 
d="M187 15q1 2 43 56l84 109l90 114l88 116q133 173 140.5 185t11 19t7 16.5t8.5 16.5q11 15 37 15q0 -43 -17 -66l-402 -515q-23 -19 -38.5 -44t-37.5 -44q-14 7 -14 19v3zM616 69l-4 75h-147q-13 0 -13 18v4q0 5 18 28t20 26l46 46l56 57l58 57l51 52q51 51 53 51h13
q4 0 8 -39t4 -48l-12 -89l4 -107h58q15 0 15 -13q0 -12 -29 -16q-7 -1 -10.5 -2t-10.5 -2.5t-15 -4t-15 -4t-10 -2.5v-113l75 13h8q7 0 10 -2t8 -11q-19 -30 -101 -38h-138l-62 -12l-62 -3q0 30 30 37q13 3 29 4q15 1 29 3q32 6 36 35zM503 181q68 -12 90 -12h11
q7 2 16 12.5t9 12.5l25 138h-13l-7 -7q-8 -7 -18 -17l-20 -20q-26 -26 -57.5 -63.5t-35.5 -43.5zM138 295l-14 -1q-11 0 -25.5 10t-24.5 16t-18 10q-9 4 -15 10q-12 11 -12 35q25 -1 38 -11q24 -20 40 -19h6q9 18 23 63q12 44 14 48q2 6 -2 21h-59q1 6 3 11.5t3.5 11t4 8
t8.5 4.5l12 4q16 5 18 5q26 11 38.5 36t12.5 54l-1 6v4q-6 6 -20 9.5t-18 4t-16 0.5h-47q-20 0 -25 -1q12 12 13 12q36 15 75 15q39 1 63 -1q10 -1 21 -1q14 0 30 1l63 12h20q11 0 21 -2.5t10 -16.5l-1 -7l-75 -87q-10 5 -18.5 -3t-8.5 -14q0 -14 30 -30q32 -17 40.5 -33.5
t8.5 -39t-2 -38.5q-2 -15 -8 -29q-10 -25 -42 -52q-3 -2 -13 -7l-12 -6z" />
    <glyph glyph-name="questiondown" unicode="&#xbf;" horiz-adv-x="527" 
d="M381 634q0 -75 -69 -75q-31 0 -53 22t-22 54.5t25.5 52.5t62.5 20q31 0 45 -24q12 -18 11 -50zM201 510l152 6q14 0 21 -11t7 -22l-1 -11l-124 -143l-55 -160q-2 -4 -2 -30q0 -47 26 -101q9 -6 17 -14q6 -9 14 -17q18 -19 35 -19q63 0 115 68q48 64 49 131l-1 37
q-10 38 -63 38q-48 0 -48 -82q2 -6 19 -49q0 -12 -4 -15.5t-15 -3.5h-13q-13 26 -22.5 53t-20.5 53v6q0 39 34 62q28 19 63.5 19t55 -10t31.5 -27q22 -31 22 -80t-17 -91.5t-46.5 -76t-69.5 -54.5t-82 -21t-85 11q-43 12 -79 34q-82 52 -82 133q0 36 12.5 81.5t19.5 57.5z
" />
    <glyph glyph-name="Agrave" unicode="&#xc0;" horiz-adv-x="847" 
d="M364 -5h-308q-9 0 -13.5 7.5t-4.5 18.5t12 20q12 1 27.5 2t29.5 2q32 2 35 7l103 274l1 7q0 39 -81 45q-18 2 -28 1q-40 0 -69.5 -27.5t-29.5 -70.5q0 -29 28 -29q20 0 25.5 9t5.5 24v24q3 9 7 11t12.5 2t14.5 -5t10 -12q8 -15 7.5 -29t-7 -26t-16.5 -22q-24 -22 -45 -22
q-39 0 -60.5 19.5t-21.5 53t10 59.5t28 45q39 41 94 41q38 0 68 -6.5t64 -29.5l2 -1q1 0 5 3t4 5l81 211v3q0 2 -2.5 5.5t-4.5 3.5h-136q-7 0 -7 8.5t4.5 22.5t13.5 14l435 9q8 0 12 -8.5t4 -24.5t-10 -16h-91l73 -217q2 -11 5 -15t23 -4t50.5 9.5t64.5 9.5q17 0 17 -19
q0 -12 -9 -18.5t-20 -7.5l-91 -12q-12 0 -12 -11l102 -295l54 -14q12 -2 12 -14t-6 -19q-6 1 -12 1h-12l-189 -5q-11 0 -14 4t-3 18t14 19.5t25.5 8.5t21 2.5t20.5 -1.5q22 -2 35 -2v12l-88 273h-11q-4 0 -44 -36l-49 -44q-10 -10 -13.5 -19t-18.5 -9t-23.5 9t-16 20t-16 20
t-16 9t-7.5 -0.5t-1 -0.5h-1l-79 -218q-2 -2 -2 -9.5t5 -9.5l13 -4q7 -3 12.5 -8t5.5 -18t-7 -13zM439 338l-1 -6q0 -8 2.5 -10t9.5 -6l14 -11l18 -12q8 -6 20 -13l103 85q12 6 12 7.5t-1 3.5v2l-76 216zM523 725l1 -5q0 -12 -5 -15t-16 -3h-7q-2 0 -4 1l-188 60q-1 0 -1 1
v2q0 11 8 17q7 6 12 6l1 -1h6h5l188 -60v-3z" />
    <glyph glyph-name="Aacute" unicode="&#xc1;" horiz-adv-x="847" 
d="M364 -5h-308q-9 0 -13.5 7.5t-4.5 18.5t12 20q12 1 27.5 2t29.5 2q32 2 35 7l103 274l1 7q0 39 -81 45q-18 2 -28 1q-40 0 -69.5 -27.5t-29.5 -70.5q0 -29 28 -29q20 0 25.5 9t5.5 24v24q3 9 7 11t12.5 2t14.5 -5t10 -12q8 -15 7.5 -29t-7 -26t-16.5 -22q-24 -22 -45 -22
q-39 0 -60.5 19.5t-21.5 53t10 59.5t28 45q39 41 94 41q38 0 68 -6.5t64 -29.5l2 -1q1 0 5 3t4 5l81 211v3q0 2 -2.5 5.5t-4.5 3.5h-136q-7 0 -7 8.5t4.5 22.5t13.5 14l435 9q8 0 12 -8.5t4 -24.5t-10 -16h-91l73 -217q2 -11 5 -15t23 -4t50.5 9.5t64.5 9.5q17 0 17 -19
q0 -12 -9 -18.5t-20 -7.5l-91 -12q-12 0 -12 -11l102 -295l54 -14q12 -2 12 -14t-6 -19q-6 1 -12 1h-12l-189 -5q-11 0 -14 4t-3 18t14 19.5t25.5 8.5t21 2.5t20.5 -1.5q22 -2 35 -2v12l-88 273h-11q-4 0 -44 -36l-49 -44q-10 -10 -13.5 -19t-18.5 -9t-23.5 9t-16 20t-16 20
t-16 9t-7.5 -0.5t-1 -0.5h-1l-79 -218q-2 -2 -2 -9.5t5 -9.5l13 -4q7 -3 12.5 -8t5.5 -18t-7 -13zM439 338l-1 -6q0 -8 2.5 -10t9.5 -6l14 -11l18 -12q8 -6 20 -13l103 85q12 6 12 7.5t-1 3.5v2l-76 216zM610 788l4 1q10 0 18 -6t8 -12t-0.5 -6t-0.5 -1v-1l-188 -60
q-2 -1 -4 -1h-7q-11 0 -16 3t-5 15v5q0 2 1 3l188 60h2z" />
    <glyph glyph-name="Acircumflex" unicode="&#xc2;" horiz-adv-x="847" 
d="M364 -5h-308q-9 0 -13.5 7.5t-4.5 18.5t12 20q12 1 27.5 2t29.5 2q32 2 35 7l103 274l1 7q0 39 -81 45q-18 2 -28 1q-40 0 -69.5 -27.5t-29.5 -70.5q0 -29 28 -29q20 0 25.5 9t5.5 24v24q3 9 7 11t12.5 2t14.5 -5t10 -12q8 -15 7.5 -29t-7 -26t-16.5 -22q-24 -22 -45 -22
q-39 0 -60.5 19.5t-21.5 53t10 59.5t28 45q39 41 94 41q38 0 68 -6.5t64 -29.5l2 -1q1 0 5 3t4 5l81 211v3q0 2 -2.5 5.5t-4.5 3.5h-136q-7 0 -7 8.5t4.5 22.5t13.5 14l435 9q8 0 12 -8.5t4 -24.5t-10 -16h-91l73 -217q2 -11 5 -15t23 -4t50.5 9.5t64.5 9.5q17 0 17 -19
q0 -12 -9 -18.5t-20 -7.5l-91 -12q-12 0 -12 -11l102 -295l54 -14q12 -2 12 -14t-6 -19q-6 1 -12 1h-12l-189 -5q-11 0 -14 4t-3 18t14 19.5t25.5 8.5t21 2.5t20.5 -1.5q22 -2 35 -2v12l-88 273h-11q-4 0 -44 -36l-49 -44q-10 -10 -13.5 -19t-18.5 -9t-23.5 9t-16 20t-16 20
t-16 9t-7.5 -0.5t-1 -0.5h-1l-79 -218q-2 -2 -2 -9.5t5 -9.5l13 -4q7 -3 12.5 -8t5.5 -18t-7 -13zM439 338l-1 -6q0 -8 2.5 -10t9.5 -6l14 -11l18 -12q8 -6 20 -13l103 85q12 6 12 7.5t-1 3.5v2l-76 216zM464 751q-130 -56 -170 -56q-12 0 -20.5 1.5t-14.5 12.5q5 26 15 32
t19.5 9t22.5 9l129 48h3l5 1q28 -3 42 -13l131 -64q2 -2 7 -11t5 -15q0 -12 -25 -12l-130 52q-4 4 -8.5 5t-6.5 1.5t-2 0t-1 -0.5h-1z" />
    <glyph glyph-name="Atilde" unicode="&#xc3;" horiz-adv-x="847" 
d="M364 -5h-308q-9 0 -13.5 7.5t-4.5 18.5t12 20q12 1 27.5 2t29.5 2q32 2 35 7l103 274l1 7q0 39 -81 45q-18 2 -28 1q-40 0 -69.5 -27.5t-29.5 -70.5q0 -29 28 -29q20 0 25.5 9t5.5 24v24q3 9 7 11t12.5 2t14.5 -5t10 -12q8 -15 7.5 -29t-7 -26t-16.5 -22q-24 -22 -45 -22
q-39 0 -60.5 19.5t-21.5 53t10 59.5t28 45q39 41 94 41q38 0 68 -6.5t64 -29.5l2 -1q1 0 5 3t4 5l81 211v3q0 2 -2.5 5.5t-4.5 3.5h-136q-7 0 -7 8.5t4.5 22.5t13.5 14l435 9q8 0 12 -8.5t4 -24.5t-10 -16h-91l73 -217q2 -11 5 -15t23 -4t50.5 9.5t64.5 9.5q17 0 17 -19
q0 -12 -9 -18.5t-20 -7.5l-91 -12q-12 0 -12 -11l102 -295l54 -14q12 -2 12 -14t-6 -19q-6 1 -12 1h-12l-189 -5q-11 0 -14 4t-3 18t14 19.5t25.5 8.5t21 2.5t20.5 -1.5q22 -2 35 -2v12l-88 273h-11q-4 0 -44 -36l-49 -44q-10 -10 -13.5 -19t-18.5 -9t-23.5 9t-16 20t-16 20
t-16 9t-7.5 -0.5t-1 -0.5h-1l-79 -218q-2 -2 -2 -9.5t5 -9.5l13 -4q7 -3 12.5 -8t5.5 -18t-7 -13zM439 338l-1 -6q0 -8 2.5 -10t9.5 -6l14 -11l18 -12q8 -6 20 -13l103 85q12 6 12 7.5t-1 3.5v2l-76 216zM204 699q-22 0 -22 25.5t17 39.5l41 28q58 38 119 39q31 -1 83 -19
l77 -26q25 -8 39 -9q47 0 78 16t56 54q12 0 16.5 -4.5t8.5 -14.5q-9 -46 -59 -72q-42 -22 -97 -22q-21 0 -72 18q-95 34 -130.5 34t-60 -13.5t-41.5 -30t-29 -30t-24 -13.5z" />
    <glyph glyph-name="Adieresis" unicode="&#xc4;" horiz-adv-x="847" 
d="M364 -5h-308q-9 0 -13.5 7.5t-4.5 18.5t12 20q12 1 27.5 2t29.5 2q32 2 35 7l103 274l1 7q0 39 -81 45q-18 2 -28 1q-40 0 -69.5 -27.5t-29.5 -70.5q0 -29 28 -29q20 0 25.5 9t5.5 24v24q3 9 7 11t12.5 2t14.5 -5t10 -12q8 -15 7.5 -29t-7 -26t-16.5 -22q-24 -22 -45 -22
q-39 0 -60.5 19.5t-21.5 53t10 59.5t28 45q39 41 94 41q38 0 68 -6.5t64 -29.5l2 -1q1 0 5 3t4 5l81 211v3q0 2 -2.5 5.5t-4.5 3.5h-136q-7 0 -7 8.5t4.5 22.5t13.5 14l435 9q8 0 12 -8.5t4 -24.5t-10 -16h-91l73 -217q2 -11 5 -15t23 -4t50.5 9.5t64.5 9.5q17 0 17 -19
q0 -12 -9 -18.5t-20 -7.5l-91 -12q-12 0 -12 -11l102 -295l54 -14q12 -2 12 -14t-6 -19q-6 1 -12 1h-12l-189 -5q-11 0 -14 4t-3 18t14 19.5t25.5 8.5t21 2.5t20.5 -1.5q22 -2 35 -2v12l-88 273h-11q-4 0 -44 -36l-49 -44q-10 -10 -13.5 -19t-18.5 -9t-23.5 9t-16 20t-16 20
t-16 9t-7.5 -0.5t-1 -0.5h-1l-79 -218q-2 -2 -2 -9.5t5 -9.5l13 -4q7 -3 12.5 -8t5.5 -18t-7 -13zM439 338l-1 -6q0 -8 2.5 -10t9.5 -6l14 -11l18 -12q8 -6 20 -13l103 85q12 6 12 7.5t-1 3.5v2l-76 216zM353 804q21 14 42.5 14t31.5 -13.5t10 -34t-14.5 -34t-30.5 -13.5
t-25.5 3t-17.5 9t-13 14t-5 18.5t6 20.5t16 16zM555 804q20 14 41.5 14t32 -13.5t10.5 -34t-15 -34t-35 -13.5t-38 12t-18 27.5t6 25.5t16 16z" />
    <glyph glyph-name="Aring" unicode="&#xc5;" horiz-adv-x="847" 
d="M364 -5h-308q-9 0 -13.5 7.5t-4.5 18.5t12 20q12 1 27.5 2t29.5 2q32 2 35 7l103 274l1 7q0 39 -81 45q-18 2 -28 1q-40 0 -69.5 -27.5t-29.5 -70.5q0 -29 28 -29q20 0 25.5 9t5.5 24v24q3 9 7 11t12.5 2t14.5 -5t10 -12q8 -15 7.5 -29t-7 -26t-16.5 -22q-24 -22 -45 -22
q-39 0 -60.5 19.5t-21.5 53t10 59.5t28 45q39 41 94 41q38 0 68 -6.5t64 -29.5l2 -1q1 0 5 3t4 5l81 211v3q0 2 -2.5 5.5t-4.5 3.5h-136q-7 0 -7 8.5t4.5 22.5t13.5 14l435 9q8 0 12 -8.5t4 -24.5t-10 -16h-91l73 -217q2 -11 5 -15t23 -4t50.5 9.5t64.5 9.5q17 0 17 -19
q0 -12 -9 -18.5t-20 -7.5l-91 -12q-12 0 -12 -11l102 -295l54 -14q12 -2 12 -14t-6 -19q-6 1 -12 1h-12l-189 -5q-11 0 -14 4t-3 18t14 19.5t25.5 8.5t21 2.5t20.5 -1.5q22 -2 35 -2v12l-88 273h-11q-4 0 -44 -36l-49 -44q-10 -10 -13.5 -19t-18.5 -9t-23.5 9t-16 20t-16 20
t-16 9t-7.5 -0.5t-1 -0.5h-1l-79 -218q-2 -2 -2 -9.5t5 -9.5l13 -4q7 -3 12.5 -8t5.5 -18t-7 -13zM439 338l-1 -6q0 -8 2.5 -10t9.5 -6l14 -11l18 -12q8 -6 20 -13l103 85q12 6 12 7.5t-1 3.5v2l-76 216zM380 916l34 2q39 0 61 -15q42 -28 41 -66q-1 -35 -31 -67
q-31 -34 -64 -34q-23 0 -29 7l-56 68q-7 9 -7 30.5t14.5 43.5t36.5 31zM389 803q12 -22 27 -22t25 5q8 6 16 14q16 18 16 40.5t-15 28t-41.5 5.5t-32.5 -9t-6 -21t3 -22t8 -19z" />
    <glyph glyph-name="AE" unicode="&#xc6;" horiz-adv-x="906" 
d="M430 -3q-14 0 -14 24v4q0 2 1 4l13 62v10l1 47v42l-1 78v21q-17 -12 -33 -21.5t-36 -9.5l-11 1l-67 78l-6 1q-17 0 -33 -32q-22 -30 -84 -141l-66 -118q43 -17 43 -47h-137q-14 0 -14 23v5q0 1 1 2q39 13 108 125q16 26 28 42l30 42l35 51q41 59 41 63v15q0 6 -28 10
q-26 5 -36 5h-55q-3 1 -8 7t-5 8q13 32 85 32l34 -1l54 -15q1 0 6 6q6 4 10 12l21 36l37 58q51 82 59 96h-80v46q15 0 52.5 -1t79.5 -2q115 -3 135 -4l80 -16h33q40 0 80 8t80 8q22 0 22 -39l-2 -22q-21 -53 -40 -78q-4 -2 -14 -2q-11 0 -13 1.5t-6 8.5l-7 15q-4 8 -8 15
l-5 9q-3 3 -7 8t-8 11q-12 14 -12 12h-160v-246q22 0 40 12q35 21 57 21q0 -2 -0.5 -9.5t-0.5 -15.5q-1 -23 -2 -26t-3 -10q-2 -6 -4 -14q-5 -18 -7 -23h-6q-13 0 -23.5 8.5t-25.5 8.5q-25 0 -25 -29v-18q0 -5 4.5 -43.5t6.5 -57t2.5 -20.5t0.5 -6l-1 -20q0 -4 1 -6
q6 -50 38 -60q12 -4 27 -4h7q20 1 32 1h20l37 1h12q13 8 18 24l10 32q5 16 14 28.5t29 12.5q0 -12 -1.5 -27.5t-2 -25t-1 -12t-2 -9t-4 -14t-4.5 -14.5q-3 -11 -6 -17.5t-5 -11.5t-6 -13h-399zM310 398l-1 -8q0 -8 18 -30q33 -39 47 -39h2q6 0 22 9q23 13 32 23l6 66
q6 76 7 91t1 22l1 30v10q-12 0 -17 -4q-4 -4 -11 -14l-20 -27l-26 -35l-22 -30q-13 -16 -18 -25l-9 -17q-4 -8 -7.5 -14t-4.5 -8z" />
    <glyph glyph-name="Ccedilla" unicode="&#xc7;" horiz-adv-x="652" 
d="M332 6l49 -1q90 0 143 30q47 27 54 57q8 33 17 43t18 10t16.5 -5.5t7.5 -20t-8 -36.5q-8 -21 -22 -41q-29 -42 -68 -60q-68 -32 -160 -32q-116 0 -190 64q-97 85 -109 279h-50q-8 0 -8 12t5 18t12 9.5t15.5 5.5t15.5 4q7 94 37 170q24 61 47.5 81.5t57.5 36.5
q33 17 69 28q68 21 132 21l113 -26q6 11 18.5 18t29.5 7q27 0 27 -47l-31 -134q0 -2 -17 -6q-20 0 -27 13q-39 110 -105 122q-17 3 -30 3q-62 0 -62 -46q0 -6 1 -10l1 3v-18v-104q0 -220 -6 -311.5t-6 -114t13 -22.5zM338 6q8 10 20 10t12 -16t-7 -29.5t-7 -23.5t1 -12
l63 -62q6 -8 6 -28t-6 -37q-6 -18 -16 -32q-25 -34 -56 -34q-46 0 -64 28q-6 10 -6.5 22t5.5 12q9 0 20.5 -8.5t17.5 -12.5t16 -4t20 7q11 8 17 18q14 23 14 40.5t-9 25t-21 12.5l-23 10q-11 4 -15 12v25q0 51 18 77z" />
    <glyph glyph-name="Egrave" unicode="&#xc8;" horiz-adv-x="634" 
d="M528 -9l-31 -1h-26q-70 0 -280 -5l-30 -1h-39q-31 0 -57 2.5t-26 17.5t14 20l85 -2q0 72 -5.5 138t-5.5 138q-5 9 -17.5 13t-17 8.5t-4.5 15.5t5 13.5t11.5 3t13 1.5t9.5 8v14l1 45v15l1 83q0 31 -6 85q-4 -1 -18 -1h-47h-24q-7 1 -7 9q0 23 6.5 32.5t25.5 9.5l120 1
q52 0 104 -4t97.5 -4t84 2t74.5 16q8 4 13.5 9t12.5 5t13 -5.5t6 -13.5l-1 -4v-2l-16 -27q-6 -10 -10 -16q-8 -10 -17.5 -10t-64.5 2q-16 1 -36 1q-50 0 -127 -4q-11 -119 -11 -237q44 0 69 10l35 14q11 5 22 5t17 -7t6 -30t-10.5 -35.5t-41 -12.5t-35.5 19l-62 -4l-1 -13
q-5 -66 -5 -82v-28q0 -12 0.5 -30.5t1 -39t1.5 -38.5t1.5 -30.5t1.5 -13.5l6 -12l50 -1l64 -1q126 0 164 33q7 6 12 6q36 0 36 -34l-2 -14q-2 -13 -4 -13l-13 -13l-10 -1q-50 -5 -76 -5zM418 725l1 -5q0 -12 -5 -15t-16 -3h-7q-2 0 -4 1l-188 60q-1 0 -1 1v2q0 11 8 17
q7 6 12 6l1 -1h6h5l188 -60v-3z" />
    <glyph glyph-name="Eacute" unicode="&#xc9;" horiz-adv-x="634" 
d="M528 -9l-31 -1h-26q-70 0 -280 -5l-30 -1h-39q-31 0 -57 2.5t-26 17.5t14 20l85 -2q0 72 -5.5 138t-5.5 138q-5 9 -17.5 13t-17 8.5t-4.5 15.5t5 13.5t11.5 3t13 1.5t9.5 8v14l1 45v15l1 83q0 31 -6 85q-4 -1 -18 -1h-47h-24q-7 1 -7 9q0 23 6.5 32.5t25.5 9.5l120 1
q52 0 104 -4t97.5 -4t84 2t74.5 16q8 4 13.5 9t12.5 5t13 -5.5t6 -13.5l-1 -4v-2l-16 -27q-6 -10 -10 -16q-8 -10 -17.5 -10t-64.5 2q-16 1 -36 1q-50 0 -127 -4q-11 -119 -11 -237q44 0 69 10l35 14q11 5 22 5t17 -7t6 -30t-10.5 -35.5t-41 -12.5t-35.5 19l-62 -4l-1 -13
q-5 -66 -5 -82v-28q0 -12 0.5 -30.5t1 -39t1.5 -38.5t1.5 -30.5t1.5 -13.5l6 -12l50 -1l64 -1q126 0 164 33q7 6 12 6q36 0 36 -34l-2 -14q-2 -13 -4 -13l-13 -13l-10 -1q-50 -5 -76 -5zM407 788l4 1q10 0 18 -6t8 -12t-0.5 -6t-0.5 -1v-1l-188 -60q-2 -1 -4 -1h-7
q-11 0 -16 3t-5 15v5q0 2 1 3l188 60h2z" />
    <glyph glyph-name="Ecircumflex" unicode="&#xca;" horiz-adv-x="634" 
d="M528 -9l-31 -1h-26q-70 0 -280 -5l-30 -1h-39q-31 0 -57 2.5t-26 17.5t14 20l85 -2q0 72 -5.5 138t-5.5 138q-5 9 -17.5 13t-17 8.5t-4.5 15.5t5 13.5t11.5 3t13 1.5t9.5 8v14l1 45v15l1 83q0 31 -6 85q-4 -1 -18 -1h-47h-24q-7 1 -7 9q0 23 6.5 32.5t25.5 9.5l120 1
q52 0 104 -4t97.5 -4t84 2t74.5 16q8 4 13.5 9t12.5 5t13 -5.5t6 -13.5l-1 -4v-2l-16 -27q-6 -10 -10 -16q-8 -10 -17.5 -10t-64.5 2q-16 1 -36 1q-50 0 -127 -4q-11 -119 -11 -237q44 0 69 10l35 14q11 5 22 5t17 -7t6 -30t-10.5 -35.5t-41 -12.5t-35.5 19l-62 -4l-1 -13
q-5 -66 -5 -82v-28q0 -12 0.5 -30.5t1 -39t1.5 -38.5t1.5 -30.5t1.5 -13.5l6 -12l50 -1l64 -1q126 0 164 33q7 6 12 6q36 0 36 -34l-2 -14q-2 -13 -4 -13l-13 -13l-10 -1q-50 -5 -76 -5zM314 751q-130 -56 -170 -56q-12 0 -20.5 1.5t-14.5 12.5q5 26 15 32t19.5 9t22.5 9
l129 48h3l5 1q28 -3 42 -13l131 -64q2 -2 7 -11t5 -15q0 -12 -25 -12l-130 52q-4 4 -8.5 5t-6.5 1.5t-2 0t-1 -0.5h-1z" />
    <glyph glyph-name="Edieresis" unicode="&#xcb;" horiz-adv-x="634" 
d="M528 -9l-31 -1h-26q-70 0 -280 -5l-30 -1h-39q-31 0 -57 2.5t-26 17.5t14 20l85 -2q0 72 -5.5 138t-5.5 138q-5 9 -17.5 13t-17 8.5t-4.5 15.5t5 13.5t11.5 3t13 1.5t9.5 8v14l1 45v15l1 83q0 31 -6 85q-4 -1 -18 -1h-47h-24q-7 1 -7 9q0 23 6.5 32.5t25.5 9.5l120 1
q52 0 104 -4t97.5 -4t84 2t74.5 16q8 4 13.5 9t12.5 5t13 -5.5t6 -13.5l-1 -4v-2l-16 -27q-6 -10 -10 -16q-8 -10 -17.5 -10t-64.5 2q-16 1 -36 1q-50 0 -127 -4q-11 -119 -11 -237q44 0 69 10l35 14q11 5 22 5t17 -7t6 -30t-10.5 -35.5t-41 -12.5t-35.5 19l-62 -4l-1 -13
q-5 -66 -5 -82v-28q0 -12 0.5 -30.5t1 -39t1.5 -38.5t1.5 -30.5t1.5 -13.5l6 -12l50 -1l64 -1q126 0 164 33q7 6 12 6q36 0 36 -34l-2 -14q-2 -13 -4 -13l-13 -13l-10 -1q-50 -5 -76 -5zM176 804q21 14 42.5 14t31.5 -13.5t10 -34t-14.5 -34t-30.5 -13.5t-25.5 3t-17.5 9
t-13 14t-5 18.5t6 20.5t16 16zM378 804q20 14 41.5 14t32 -13.5t10.5 -34t-15 -34t-35 -13.5t-38 12t-18 27.5t6 25.5t16 16z" />
    <glyph glyph-name="Igrave" unicode="&#xcc;" horiz-adv-x="456" 
d="M324 -34l-50 -2h-19q-29 0 -45 2q-37 6 -58 6h-84q-17 0 -24.5 5t-8.5 21t13 18t31 0.5t33 -1.5t21 9l2 140l2 108q0 11 -1 15q-6 -2 -13 -2t-16 12.5t-9 22.5t6 13.5t13 5.5t13 4t6 7q-3 30 -3.5 65.5t-1.5 72t-1.5 72.5t-3.5 67q-7 7 -9 7h-38q-13 0 -26 0.5t-20 9
t-7 16.5t0.5 12t6.5 7l99 5q18 -2 35 -2l178 4h14l43 -1h14q7 -3 7 -20.5t-10 -24t-37 -6.5l-48 2q0 -96 -4.5 -196t-4.5 -222.5t11 -205.5l68 -5q21 0 22 -23q-4 -9 -13 -11zM344 742l1 -5q0 -12 -5 -15t-16 -3h-7q-2 0 -4 1l-188 60q-1 0 -1 1v2q0 11 8 17q7 6 12 6l1 -1
h6h5l188 -60v-3z" />
    <glyph glyph-name="Iacute" unicode="&#xcd;" horiz-adv-x="457" 
d="M324 -34l-50 -2h-19q-29 0 -45 2q-37 6 -58 6h-84q-17 0 -24.5 5t-8.5 21t13 18t31 0.5t33 -1.5t21 9l2 140l2 108q0 11 -1 15q-6 -2 -13 -2t-16 12.5t-9 22.5t6 13.5t13 5.5t13 4t6 7q-3 30 -3.5 65.5t-1.5 72t-1.5 72.5t-3.5 67q-7 7 -9 7h-38q-13 0 -26 0.5t-20 9
t-7 16.5t0.5 12t6.5 7l99 5q18 -2 35 -2l178 4h14l43 -1h14q7 -3 7 -20.5t-10 -24t-37 -6.5l-48 2q0 -96 -4.5 -196t-4.5 -222.5t11 -205.5l68 -5q21 0 22 -23q-4 -9 -13 -11zM315 805l4 1q10 0 18 -6t8 -12t-0.5 -6t-0.5 -1v-1l-188 -60q-2 -1 -4 -1h-7q-11 0 -16 3t-5 15
v5q0 2 1 3l188 60h2z" />
    <glyph glyph-name="Icircumflex" unicode="&#xce;" horiz-adv-x="457" 
d="M324 -34l-50 -2h-19q-29 0 -45 2q-37 6 -58 6h-84q-17 0 -24.5 5t-8.5 21t13 18t31 0.5t33 -1.5t21 9l2 140l2 108q0 11 -1 15q-6 -2 -13 -2t-16 12.5t-9 22.5t6 13.5t13 5.5t13 4t6 7q-3 30 -3.5 65.5t-1.5 72t-1.5 72.5t-3.5 67q-7 7 -9 7h-38q-13 0 -26 0.5t-20 9
t-7 16.5t0.5 12t6.5 7l99 5q18 -2 35 -2l178 4h14l43 -1h14q7 -3 7 -20.5t-10 -24t-37 -6.5l-48 2q0 -96 -4.5 -196t-4.5 -222.5t11 -205.5l68 -5q21 0 22 -23q-4 -9 -13 -11zM250 768q-130 -56 -170 -56q-12 0 -20.5 1.5t-14.5 12.5q5 26 15 32t19.5 9t22.5 9l129 48h3l5 1
q28 -3 42 -13l131 -64q2 -2 7 -11t5 -15q0 -12 -25 -12l-130 52q-4 4 -8.5 5t-6.5 1.5t-2 0t-1 -0.5h-1z" />
    <glyph glyph-name="Idieresis" unicode="&#xcf;" horiz-adv-x="456" 
d="M324 -34l-50 -2h-19q-29 0 -45 2q-37 6 -58 6h-84q-17 0 -24.5 5t-8.5 21t13 18t31 0.5t33 -1.5t21 9l2 140l2 108q0 11 -1 15q-6 -2 -13 -2t-16 12.5t-9 22.5t6 13.5t13 5.5t13 4t6 7q-3 30 -3.5 65.5t-1.5 72t-1.5 72.5t-3.5 67q-7 7 -9 7h-38q-13 0 -26 0.5t-20 9
t-7 16.5t0.5 12t6.5 7l99 5q18 -2 35 -2l178 4h14l43 -1h14q7 -3 7 -20.5t-10 -24t-37 -6.5l-48 2q0 -96 -4.5 -196t-4.5 -222.5t11 -205.5l68 -5q21 0 22 -23q-4 -9 -13 -11zM105 804q21 14 42.5 14t31.5 -13.5t10 -34t-14.5 -34t-30.5 -13.5t-25.5 3t-17.5 9t-13 14
t-5 18.5t6 20.5t16 16zM307 804q20 14 41.5 14t32 -13.5t10.5 -34t-15 -34t-35 -13.5t-38 12t-18 27.5t6 25.5t16 16z" />
    <glyph glyph-name="Eth" unicode="&#xd0;" horiz-adv-x="776" 
d="M176 1l-133 4l-14 16q19 51 102 51l15 169l-2 52h-101q-2 0 -7.5 6t-7 11.5t-2.5 15.5q-2 25 -4 43h124v245q-9 2 -32.5 24t-26.5 26.5t-6.5 18.5t-3.5 19l25 -3q2 -1 10 -7l19 -11q17 -11 29 -17q1 0 7 1t8.5 -1t13.5 -8t15 -9h306q46 0 117 -50l21 -17l30 -24l31 -26
l20 -18l1 -42v-42q1 -22 1 -39v-11q0 -11 -1 -21q-2 -33 -16 -64q0 -2 -6.5 -8.5t-8 -8.5t0.5 -9t0 -11l-6 -13l-8 -21l-9 -20l-6 -11q-21 -33 -39 -58t-20 -27q-10 -10 -116 -68q-76 -39 -207 -39q-18 1 -36 1q-40 2 -77 1zM350 327l-15 -237l15 -36l15 4l36 10
q58 15 80 22q44 12 82 44q74 62 111 186q6 20 9 33.5t6 24.5t5 21.5t4 19t2 10.5q0 1 -2 9l-4 16q-2 8 -5 15t-4 10q-59 95 -166 113q-34 6 -52 6h-26l-36 -1h-12q-9 -8 -18.5 -24t-11 -30.5t-2 -42t-1.5 -55.5t-2 -60h89l4 -15q2 -8 2 -15t-1.5 -11.5t-7 -10.5t-11.5 -7
t-39.5 -1t-43.5 2z" />
    <glyph glyph-name="Ntilde" unicode="&#xd1;" horiz-adv-x="816" 
d="M230 2l-161 2q-12 0 -15 10q-4 12 -4 23q0 9 7 13t16.5 7t19 7t13.5 16q21 135 31 373q2 63 3 92v41q0 12 -2 24q-61 0 -70 13q-11 16 -11 40q108 10 205 14.5t115 4.5q70 0 71 -25q0 -12 -21 -22.5t-21 -19t13.5 -33t31.5 -53.5q41 -64 66 -96q2 2 8 2q30 0 48 18
q3 -6 3 -17.5t-4 -17.5q-3 -6 -9 -12q-14 -16 -14 -29.5t2 -13.5q4 -12 22 -48l30 -61q12 -25 24 -47t20.5 -39t11.5 -22q9 40 9 122.5t-3 141.5q-2 60 -6 108q-8 110 -15 110l-94 -8q0 29 10 40t18 12l22 2q12 2 25 4q14 0 25 2q40 6 76 6q54 0 57 -9l2 -23
q-10 -1 -25.5 -5.5t-26.5 -6.5q-3 -2 -14 -8.5t-14 -8.5q-1 -8 -2 -27q0 -18 -2 -40q-4 -50 -4 -65v-16q3 -244 8 -317t5 -84q-4 -67 -210 -76q-20 0 -29.5 7.5t-9.5 26t2 22.5l-123 210l-64 -5q0 4 0.5 9.5t5 16t14.5 17.5t10 24.5t-13 47.5q-14 30 -32 64q-38 69 -76 112
q-5 -8 -5 -25v-18q-1 -48 -7 -143q-12 -184 -12 -225q0 -79 6 -86q4 -5 16 -5t25.5 -1t24 -6t10.5 -23t-13 -18zM171 699q-22 0 -22 25.5t17 39.5l41 28q58 38 119 39q31 -1 83 -19l77 -26q25 -8 39 -9q47 0 78 16t56 54q12 0 16.5 -4.5t8.5 -14.5q-9 -46 -59 -72
q-42 -22 -97 -22q-21 0 -72 18q-95 34 -130.5 34t-60 -13.5t-41.5 -30t-29 -30t-24 -13.5z" />
    <glyph glyph-name="Ograve" unicode="&#xd2;" horiz-adv-x="780" 
d="M512 -2q-69 -27 -144.5 -27t-133.5 26t-101.5 68.5t-68 97.5t-24.5 105.5t8 97.5q8 48 24 94q58 164 192 216q52 20 114 20q194 0 287 -110q74 -88 74 -223q-1 -181 -107 -287q-50 -50 -120 -78zM243 356q-3 -38 -3 -69.5t8 -66.5q8 -36 20 -72q25 -71 69 -135
q3 -9 28 -9q16 0 41 4q74 11 90 66q11 42 21.5 71.5t18.5 55.5q18 58 18 100.5t-3 75.5t-10 69.5t-19 73.5q-10 36 -28 66q-39 66 -95 67q-58 -1 -98 -69q-46 -78 -58 -228zM465 751l1 -5q0 -12 -5 -15t-16 -3h-7q-2 0 -4 1l-188 60q-1 0 -1 1v2q0 11 8 17q7 6 12 6l1 -1h6
h5l188 -60v-3z" />
    <glyph glyph-name="Oacute" unicode="&#xd3;" horiz-adv-x="780" 
d="M512 -2q-69 -27 -144.5 -27t-133.5 26t-101.5 68.5t-68 97.5t-24.5 105.5t8 97.5q8 48 24 94q58 164 192 216q52 20 114 20q194 0 287 -110q74 -88 74 -223q-1 -181 -107 -287q-50 -50 -120 -78zM243 356q-3 -38 -3 -69.5t8 -66.5q8 -36 20 -72q25 -71 69 -135
q3 -9 28 -9q16 0 41 4q74 11 90 66q11 42 21.5 71.5t18.5 55.5q18 58 18 100.5t-3 75.5t-10 69.5t-19 73.5q-10 36 -28 66q-39 66 -95 67q-58 -1 -98 -69q-46 -78 -58 -228zM481 814l4 1q10 0 18 -6t8 -12t-0.5 -6t-0.5 -1v-1l-188 -60q-2 -1 -4 -1h-7q-11 0 -16 3t-5 15v5
q0 2 1 3l188 60h2z" />
    <glyph glyph-name="Ocircumflex" unicode="&#xd4;" horiz-adv-x="780" 
d="M512 -2q-69 -27 -144.5 -27t-133.5 26t-101.5 68.5t-68 97.5t-24.5 105.5t8 97.5q8 48 24 94q58 164 192 216q52 20 114 20q194 0 287 -110q74 -88 74 -223q-1 -181 -107 -287q-50 -50 -120 -78zM243 356q-3 -38 -3 -69.5t8 -66.5q8 -36 20 -72q25 -71 69 -135
q3 -9 28 -9q16 0 41 4q74 11 90 66q11 42 21.5 71.5t18.5 55.5q18 58 18 100.5t-3 75.5t-10 69.5t-19 73.5q-10 36 -28 66q-39 66 -95 67q-58 -1 -98 -69q-46 -78 -58 -228zM388 777q-130 -56 -170 -56q-12 0 -20.5 1.5t-14.5 12.5q5 26 15 32t19.5 9t22.5 9l129 48h3l5 1
q28 -3 42 -13l131 -64q2 -2 7 -11t5 -15q0 -12 -25 -12l-130 52q-4 4 -8.5 5t-6.5 1.5t-2 0t-1 -0.5h-1z" />
    <glyph glyph-name="Otilde" unicode="&#xd5;" horiz-adv-x="780" 
d="M512 -2q-69 -27 -144.5 -27t-133.5 26t-101.5 68.5t-68 97.5t-24.5 105.5t8 97.5q8 48 24 94q58 164 192 216q52 20 114 20q194 0 287 -110q74 -88 74 -223q-1 -181 -107 -287q-50 -50 -120 -78zM243 356q-3 -38 -3 -69.5t8 -66.5q8 -36 20 -72q25 -71 69 -135
q3 -9 28 -9q16 0 41 4q74 11 90 66q11 42 21.5 71.5t18.5 55.5q18 58 18 100.5t-3 75.5t-10 69.5t-19 73.5q-10 36 -28 66q-39 66 -95 67q-58 -1 -98 -69q-46 -78 -58 -228zM137 708q-22 0 -22 25.5t17 39.5l41 28q58 38 119 39q31 -1 83 -19l77 -26q25 -8 39 -9q47 0 78 16
t56 54q12 0 16.5 -4.5t8.5 -14.5q-9 -46 -59 -72q-42 -22 -97 -22q-21 0 -72 18q-95 34 -130.5 34t-60 -13.5t-41.5 -30t-29 -30t-24 -13.5z" />
    <glyph glyph-name="Odieresis" unicode="&#xd6;" horiz-adv-x="780" 
d="M512 -2q-69 -27 -144.5 -27t-133.5 26t-101.5 68.5t-68 97.5t-24.5 105.5t8 97.5q8 48 24 94q58 164 192 216q52 20 114 20q194 0 287 -110q74 -88 74 -223q-1 -181 -107 -287q-50 -50 -120 -78zM243 356q-3 -38 -3 -69.5t8 -66.5q8 -36 20 -72q25 -71 69 -135
q3 -9 28 -9q16 0 41 4q74 11 90 66q11 42 21.5 71.5t18.5 55.5q18 58 18 100.5t-3 75.5t-10 69.5t-19 73.5q-10 36 -28 66q-39 66 -95 67q-58 -1 -98 -69q-46 -78 -58 -228zM251 813q21 14 42.5 14t31.5 -13.5t10 -34t-14.5 -34t-30.5 -13.5t-25.5 3t-17.5 9t-13 14t-5 18.5
t6 20.5t16 16zM453 813q20 14 41.5 14t32 -13.5t10.5 -34t-15 -34t-35 -13.5t-38 12t-18 27.5t6 25.5t16 16z" />
    <glyph glyph-name="multiply" unicode="&#xd7;" horiz-adv-x="446" 
d="M228 245h-4q-1 0 -5 1q-5 0 -7 -3l-8 -10l-24 -29q-17 -22 -39 -48l-65 -78q-8 -8 -13.5 -10.5t-22.5 -2.5v29l156 195l-143 195q-2 2 2.5 7t9 5t14 -5t11.5 -7l126 -163l151 163h16q0 -30 -16 -50q-37 -49 -113 -138l-1 -7q0 -18 14 -33t22.5 -22.5t13 -12t11.5 -13.5
l15 -19l25 -32q-5 -13 -19 -13h-3q-1 0 -3 1zM354 132q0 5 9 10t14 5q0 -12 6 -21q12 -16 13 -35q-14 0 -28 12.5t-14 28.5z" />
    <glyph glyph-name="Oslash" unicode="&#xd8;" horiz-adv-x="831" 
d="M837 633l-2 -12l-124 -100q0 -32 4 -62t4 -49v-28l-1 -34v-7l-50 -162q-2 -6 -16 -26l-21 -31q-41 -58 -100 -84t-105 -26t-85 5t-76 17q-85 27 -123 84l-124 -106h-11q-14 0 -18 3.5t-4 17.5v7q0 2 1 4l124 118q1 0 1 4v5q0 27 -10 57q-18 56 -17 82q0 67 14 99l80 180
q24 39 88 75q68 38 127 37q18 0 18 -9l-2 -21l84 6h10l24 -1h5q39 -10 61.5 -19.5t24.5 -11.5l69 -81l124 93h4l4 1q14 0 16 -6t2 -19zM401 48l25 1q47 -1 110 39q64 40 82 86l57 148v163q-12 0 -19 -7l-372 -304l50 -100q12 -26 67 -26zM504 632l-5 1q-75 0 -104 -31
q-7 -8 -18 -22l-23 -26q-27 -31 -27 -33l-62 -230v-67l385 309v2l1 4q0 8 -14 26q-27 33 -37 37l-93 30h-3z" />
    <glyph glyph-name="Ugrave" unicode="&#xd9;" horiz-adv-x="741" 
d="M628 684q7 0 13.5 -8t8 -28t4.5 -44l4 -46q4 -51 4 -117.5t-4 -137.5q-6 -71 -22 -125q-33 -108 -130 -178q-11 -8 -58.5 -20t-56.5 -12t-33 2.5t-49 7.5q-60 12 -79 32l-31 34q-13 14 -21.5 26.5t-14.5 27.5t-12 40q-10 40 -32 158l-29 13q3 14 8 20.5t17 10.5
q3 7 9 37.5t6 32.5l-6 69l5 147q-26 0 -37 -16.5t-17 -35.5l-11 -36q-5 -17 -18 -17t-20.5 9t-7.5 33t15 49.5t39 41.5q45 29 113 29h5l108 -7q25 0 47.5 4t39.5 4t17 -13t-10 -21.5t-24 -14.5q-23 -10 -48 -14q-6 -8 -9.5 -45t-3.5 -48l3 -193l50 5q11 0 11 -20t-18 -24.5
t-40 -5.5v-19l38 -252q1 -7 45.5 -7t83.5 21t65.5 54.5t42.5 76.5q16 42 24 86q13 64 13 144v11l-1 55q0 31 -8.5 77.5t-12.5 71.5t-4 50t29 25zM486 751l1 -5q0 -12 -5 -15t-16 -3h-7q-2 0 -4 1l-188 60q-1 0 -1 1v2q0 11 8 17q7 6 12 6l1 -1h6h5l188 -60v-3z" />
    <glyph glyph-name="Uacute" unicode="&#xda;" horiz-adv-x="741" 
d="M628 684q7 0 13.5 -8t8 -28t4.5 -44l4 -46q4 -51 4 -117.5t-4 -137.5q-6 -71 -22 -125q-33 -108 -130 -178q-11 -8 -58.5 -20t-56.5 -12t-33 2.5t-49 7.5q-60 12 -79 32l-31 34q-13 14 -21.5 26.5t-14.5 27.5t-12 40q-10 40 -32 158l-29 13q3 14 8 20.5t17 10.5
q3 7 9 37.5t6 32.5l-6 69l5 147q-26 0 -37 -16.5t-17 -35.5l-11 -36q-5 -17 -18 -17t-20.5 9t-7.5 33t15 49.5t39 41.5q45 29 113 29h5l108 -7q25 0 47.5 4t39.5 4t17 -13t-10 -21.5t-24 -14.5q-23 -10 -48 -14q-6 -8 -9.5 -45t-3.5 -48l3 -193l50 5q11 0 11 -20t-18 -24.5
t-40 -5.5v-19l38 -252q1 -7 45.5 -7t83.5 21t65.5 54.5t42.5 76.5q16 42 24 86q13 64 13 144v11l-1 55q0 31 -8.5 77.5t-12.5 71.5t-4 50t29 25zM493 805l4 1q10 0 18 -6t8 -12t-0.5 -6t-0.5 -1v-1l-188 -60q-2 -1 -4 -1h-7q-11 0 -16 3t-5 15v5q0 2 1 3l188 60h2z" />
    <glyph glyph-name="Ucircumflex" unicode="&#xdb;" horiz-adv-x="741" 
d="M628 684q7 0 13.5 -8t8 -28t4.5 -44l4 -46q4 -51 4 -117.5t-4 -137.5q-6 -71 -22 -125q-33 -108 -130 -178q-11 -8 -58.5 -20t-56.5 -12t-33 2.5t-49 7.5q-60 12 -79 32l-31 34q-13 14 -21.5 26.5t-14.5 27.5t-12 40q-10 40 -32 158l-29 13q3 14 8 20.5t17 10.5
q3 7 9 37.5t6 32.5l-6 69l5 147q-26 0 -37 -16.5t-17 -35.5l-11 -36q-5 -17 -18 -17t-20.5 9t-7.5 33t15 49.5t39 41.5q45 29 113 29h5l108 -7q25 0 47.5 4t39.5 4t17 -13t-10 -21.5t-24 -14.5q-23 -10 -48 -14q-6 -8 -9.5 -45t-3.5 -48l3 -193l50 5q11 0 11 -20t-18 -24.5
t-40 -5.5v-19l38 -252q1 -7 45.5 -7t83.5 21t65.5 54.5t42.5 76.5q16 42 24 86q13 64 13 144v11l-1 55q0 31 -8.5 77.5t-12.5 71.5t-4 50t29 25zM392 786q-130 -56 -170 -56q-12 0 -20.5 1.5t-14.5 12.5q5 26 15 32t19.5 9t22.5 9l129 48h3l5 1q28 -3 42 -13l131 -64
q2 -2 7 -11t5 -15q0 -12 -25 -12l-130 52q-4 4 -8.5 5t-6.5 1.5t-2 0t-1 -0.5h-1z" />
    <glyph glyph-name="Udieresis" unicode="&#xdc;" horiz-adv-x="741" 
d="M628 684q7 0 13.5 -8t8 -28t4.5 -44l4 -46q4 -51 4 -117.5t-4 -137.5q-6 -71 -22 -125q-33 -108 -130 -178q-11 -8 -58.5 -20t-56.5 -12t-33 2.5t-49 7.5q-60 12 -79 32l-31 34q-13 14 -21.5 26.5t-14.5 27.5t-12 40q-10 40 -32 158l-29 13q3 14 8 20.5t17 10.5
q3 7 9 37.5t6 32.5l-6 69l5 147q-26 0 -37 -16.5t-17 -35.5l-11 -36q-5 -17 -18 -17t-20.5 9t-7.5 33t15 49.5t39 41.5q45 29 113 29h5l108 -7q25 0 47.5 4t39.5 4t17 -13t-10 -21.5t-24 -14.5q-23 -10 -48 -14q-6 -8 -9.5 -45t-3.5 -48l3 -193l50 5q11 0 11 -20t-18 -24.5
t-40 -5.5v-19l38 -252q1 -7 45.5 -7t83.5 21t65.5 54.5t42.5 76.5q16 42 24 86q13 64 13 144v11l-1 55q0 31 -8.5 77.5t-12.5 71.5t-4 50t29 25zM236 821q21 14 42.5 14t31.5 -13.5t10 -34t-14.5 -34t-30.5 -13.5t-25.5 3t-17.5 9t-13 14t-5 18.5t6 20.5t16 16zM438 821
q20 14 41.5 14t32 -13.5t10.5 -34t-15 -34t-35 -13.5t-38 12t-18 27.5t6 25.5t16 16z" />
    <glyph glyph-name="Yacute" unicode="&#xdd;" horiz-adv-x="709" 
d="M143 31l-6 34v4q6 22 17 43l23 40q27 50 27 80.5t-7.5 37t-17 7t-17 0.5t-7.5 7.5t5 11.5q4 4 12 7q14 6 29 8q-26 45 -58 131l-43 146v15q-60 1 -80 19q-10 8 -9 24l1 16l146 14q60 0 60 -38l-1 -4v-3l-59 -28q-1 -2 -1 -3v-3q3 -24 21 -90.5t30 -102.5q26 -79 38 -79
h14l144 284q-2 6 -2 28.5t5.5 34t24.5 11.5l82 -2l225 6q0 -29 -39 -41q-22 -6 -47 -7q-8 -32 -45 -59l15 -14q-5 -4 -17 -16l-18 -19l-9 -9v-14l-100 -168l-1 -9q0 -7 4.5 -9.5t10.5 -4t10.5 -4t4.5 -13t-9 -16.5t-21 -10l-24 -7q-13 -4 -19 -14q-54 -81 -79 -184
q-1 -2 -1 -8t3 -15h129l15 -22q-26 -48 -500 -48q0 31 7 43t12 12h122zM446 805l4 1q10 0 18 -6t8 -12t-0.5 -6t-0.5 -1v-1l-188 -60q-2 -1 -4 -1h-7q-11 0 -16 3t-5 15v5q0 2 1 3l188 60h2z" />
    <glyph glyph-name="Thorn" unicode="&#xde;" horiz-adv-x="703" 
d="M392 34q6 0 6 -16v-11q0 -11 -6 -13l-63 -13h-235q-10 0 -14.5 8.5t-4.5 16.5q0 22 12 22h75v120h-86q-7 0 -16 8q-16 14 -16 21q0 8 19 15q5 -1 15 -1h22q37 0 47.5 5.5t10.5 19.5l-2 32q0 85 -4 132t-8 48q-14 2 -30 2h-8q-3 0 -7 -1q-17 0 -33 3q-44 7 -44 47
q30 0 60 -4t61 -4l1 31l-7 111h-12l-44 -6q-8 0 -16.5 8.5t-8.5 19t9 15t21 5.5t24.5 1.5t19.5 5.5t8 9t2 6q2 5 12 5t14 -2t7 -4q9 -6 15 -6l179 7q18 0 18 -12.5t-2 -18.5t-6.5 -9.5t-11.5 -5.5l-17 -5q-6 -50 -6 -76v-34t6 -20q21 3 55 3q51 0 168 -40q81 -27 109 -95
q10 -22 10 -52.5t-12 -65t-44 -54.5q-26 -15 -55.5 -26.5t-32.5 -11.5l-186 -11l-12 -6q-3 -3 -4 -18l-2 -22v-11v-15v-19t2 -18h48zM349 454q0 -63 -4 -124t-4 -123q85 0 127.5 18.5t63.5 44t21 67.5q0 28 -7 34l-68 63q-23 21 -87 21q-6 -1 -12 -1h-30z" />
    <glyph glyph-name="germandbls" unicode="&#xdf;" horiz-adv-x="614" 
d="M351 -99h-204q-14 0 -24 -7q-27 -13 -34 -13q-14 0 -25 4.5t-29 15.5q-1 3 -1 7v5q0 24 15.5 30t34.5 6.5t34.5 1.5t15.5 11q0 54 -7 114t-9.5 95t-4.5 51t-6 30q-10 32 -31 32q-36 0 -59 -20q-8 21 -8 33q0 35 14 35h80l6 6v37q0 197 131 274l17 9q15 8 35 14.5t22 6.5
h112q20 0 62 -35q43 -35 43 -51v-62q0 -7 -19 -43.5t-23.5 -43t-11.5 -14.5q-8 -10 -16 -18q-18 -21 -18 -25q0 -7 13.5 -15t36.5 -28q22 -20 42 -46q46 -61 46.5 -111t-6.5 -78q-14 -59 -50 -72l-161 -56q-1 -1 -2 -1h-2q-11 0 -16.5 13.5t-5.5 22t14.5 13.5t37 10.5
t47.5 13.5q26 7 48 21q52 31 52 92q0 55 -34 106t-84 73q-17 13 -21 20t-4 19q0 22 7 36l29 30q14 15 26 32q27 38 27 74t-22.5 61.5t-59.5 25.5q-36 0 -62 -17q-10 -6 -13 -14l-31 -75v-6q-19 -138 -19 -191.5t1.5 -95.5t3.5 -88q4 -104 14 -175q0 -20 10 -26.5t22 -10
t22 -8t10 -20t-8 -15.5z" />
    <glyph glyph-name="agrave" unicode="&#xe0;" horiz-adv-x="539" 
d="M335 312q0 79 -70 79q-30 0 -42 -23q-6 -13 -6.5 -28.5t4 -19.5t4.5 -14q0 -18 -21 -24q-13 -4 -38 -4q-18 0 -45 -9t-31 -9q-9 0 -13.5 11t-4.5 21q0 18 23.5 56.5t40.5 51.5q31 23 57 37.5t54 14.5q144 0 186 -77q24 -44 24 -106q0 -27 -7 -55t-7 -54q0 -42 17 -78
q22 -31 38 -36q6 0 11.5 4t10.5 4q21 0 21 -20.5t-18 -35.5q-36 -30 -69 -30t-47 4t-25 11t-19 15l-16 15l-15 15q-6 7 -7 7q-68 -82 -172 -82q-59 0 -96.5 41t-37.5 77q0 68 68 110q70 42 212 62q14 1 22 7q14 10 14 62zM196 153q-11 -18 -11 -34q0 -38 7 -70t24 -34
q25 0 43 14q32 25 34 50l12 125q-78 0 -109 -51zM381 591l1 -5q0 -12 -5 -15t-16 -3h-7q-2 0 -4 1l-188 60q-1 0 -1 1v2q0 11 8 17q7 6 12 6l1 -1h6h5l188 -60v-3z" />
    <glyph glyph-name="aacute" unicode="&#xe1;" horiz-adv-x="539" 
d="M335 312q0 79 -70 79q-30 0 -42 -23q-6 -13 -6.5 -28.5t4 -19.5t4.5 -14q0 -18 -21 -24q-13 -4 -38 -4q-18 0 -45 -9t-31 -9q-9 0 -13.5 11t-4.5 21q0 18 23.5 56.5t40.5 51.5q31 23 57 37.5t54 14.5q144 0 186 -77q24 -44 24 -106q0 -27 -7 -55t-7 -54q0 -42 17 -78
q22 -31 38 -36q6 0 11.5 4t10.5 4q21 0 21 -20.5t-18 -35.5q-36 -30 -69 -30t-47 4t-25 11t-19 15l-16 15l-15 15q-6 7 -7 7q-68 -82 -172 -82q-59 0 -96.5 41t-37.5 77q0 68 68 110q70 42 212 62q14 1 22 7q14 10 14 62zM196 153q-11 -18 -11 -34q0 -38 7 -70t24 -34
q25 0 43 14q32 25 34 50l12 125q-78 0 -109 -51zM352 654l4 1q10 0 18 -6t8 -12t-0.5 -6t-0.5 -1v-1l-188 -60q-2 -1 -4 -1h-7q-11 0 -16 3t-5 15v5q0 2 1 3l188 60h2z" />
    <glyph glyph-name="acircumflex" unicode="&#xe2;" horiz-adv-x="539" 
d="M335 312q0 79 -70 79q-30 0 -42 -23q-6 -13 -6.5 -28.5t4 -19.5t4.5 -14q0 -18 -21 -24q-13 -4 -38 -4q-18 0 -45 -9t-31 -9q-9 0 -13.5 11t-4.5 21q0 18 23.5 56.5t40.5 51.5q31 23 57 37.5t54 14.5q144 0 186 -77q24 -44 24 -106q0 -27 -7 -55t-7 -54q0 -42 17 -78
q22 -31 38 -36q6 0 11.5 4t10.5 4q21 0 21 -20.5t-18 -35.5q-36 -30 -69 -30t-47 4t-25 11t-19 15l-16 15l-15 15q-6 7 -7 7q-68 -82 -172 -82q-59 0 -96.5 41t-37.5 77q0 68 68 110q70 42 212 62q14 1 22 7q14 10 14 62zM196 153q-11 -18 -11 -34q0 -38 7 -70t24 -34
q25 0 43 14q32 25 34 50l12 125q-78 0 -109 -51zM286 626q-130 -56 -170 -56q-12 0 -20.5 1.5t-14.5 12.5q5 26 15 32t19.5 9t22.5 9l129 48h3l5 1q28 -3 42 -13l131 -64q2 -2 7 -11t5 -15q0 -12 -25 -12l-130 52q-4 4 -8.5 5t-6.5 1.5t-2 0t-1 -0.5h-1z" />
    <glyph glyph-name="atilde" unicode="&#xe3;" horiz-adv-x="539" 
d="M335 312q0 79 -70 79q-30 0 -42 -23q-6 -13 -6.5 -28.5t4 -19.5t4.5 -14q0 -18 -21 -24q-13 -4 -38 -4q-18 0 -45 -9t-31 -9q-9 0 -13.5 11t-4.5 21q0 18 23.5 56.5t40.5 51.5q31 23 57 37.5t54 14.5q144 0 186 -77q24 -44 24 -106q0 -27 -7 -55t-7 -54q0 -42 17 -78
q22 -31 38 -36q6 0 11.5 4t10.5 4q21 0 21 -20.5t-18 -35.5q-36 -30 -69 -30t-47 4t-25 11t-19 15l-16 15l-15 15q-6 7 -7 7q-68 -82 -172 -82q-59 0 -96.5 41t-37.5 77q0 68 68 110q70 42 212 62q14 1 22 7q14 10 14 62zM196 153q-11 -18 -11 -34q0 -38 7 -70t24 -34
q25 0 43 14q32 25 34 50l12 125q-78 0 -109 -51zM27 547q-22 0 -22 25.5t17 39.5l41 28q58 38 119 39q31 -1 83 -19l77 -26q25 -8 39 -9q47 0 78 16t56 54q12 0 16.5 -4.5t8.5 -14.5q-9 -46 -59 -72q-42 -22 -97 -22q-21 0 -72 18q-95 34 -130.5 34t-60 -13.5t-41.5 -30
t-29 -30t-24 -13.5z" />
    <glyph glyph-name="adieresis" unicode="&#xe4;" horiz-adv-x="539" 
d="M335 312q0 79 -70 79q-30 0 -42 -23q-6 -13 -6.5 -28.5t4 -19.5t4.5 -14q0 -18 -21 -24q-13 -4 -38 -4q-18 0 -45 -9t-31 -9q-9 0 -13.5 11t-4.5 21q0 18 23.5 56.5t40.5 51.5q31 23 57 37.5t54 14.5q144 0 186 -77q24 -44 24 -106q0 -27 -7 -55t-7 -54q0 -42 17 -78
q22 -31 38 -36q6 0 11.5 4t10.5 4q21 0 21 -20.5t-18 -35.5q-36 -30 -69 -30t-47 4t-25 11t-19 15l-16 15l-15 15q-6 7 -7 7q-68 -82 -172 -82q-59 0 -96.5 41t-37.5 77q0 68 68 110q70 42 212 62q14 1 22 7q14 10 14 62zM196 153q-11 -18 -11 -34q0 -38 7 -70t24 -34
q25 0 43 14q32 25 34 50l12 125q-78 0 -109 -51zM141 688q21 14 42.5 14t31.5 -13.5t10 -34t-14.5 -34t-30.5 -13.5t-25.5 3t-17.5 9t-13 14t-5 18.5t6 20.5t16 16zM343 688q20 14 41.5 14t32 -13.5t10.5 -34t-15 -34t-35 -13.5t-38 12t-18 27.5t6 25.5t16 16z" />
    <glyph glyph-name="aring" unicode="&#xe5;" horiz-adv-x="539" 
d="M335 312q0 79 -70 79q-30 0 -42 -23q-6 -13 -6.5 -28.5t4 -19.5t4.5 -14q0 -18 -21 -24q-13 -4 -38 -4q-18 0 -45 -9t-31 -9q-9 0 -13.5 11t-4.5 21q0 18 23.5 56.5t40.5 51.5q31 23 57 37.5t54 14.5q144 0 186 -77q24 -44 24 -106q0 -27 -7 -55t-7 -54q0 -42 17 -78
q22 -31 38 -36q6 0 11.5 4t10.5 4q21 0 21 -20.5t-18 -35.5q-36 -30 -69 -30t-47 4t-25 11t-19 15l-16 15l-15 15q-6 7 -7 7q-68 -82 -172 -82q-59 0 -96.5 41t-37.5 77q0 68 68 110q70 42 212 62q14 1 22 7q14 10 14 62zM196 153q-11 -18 -11 -34q0 -38 7 -70t24 -34
q25 0 43 14q32 25 34 50l12 125q-78 0 -109 -51zM229 710l34 2q39 0 61 -15q42 -28 41 -66q-1 -35 -31 -67q-31 -34 -64 -34q-23 0 -29 7l-56 68q-7 9 -7 30.5t14.5 43.5t36.5 31zM238 597q12 -22 27 -22t25 5q8 6 16 14q16 18 16 40.5t-15 28t-41.5 5.5t-32.5 -9t-6 -21
t3 -22t8 -19z" />
    <glyph glyph-name="ae" unicode="&#xe6;" horiz-adv-x="726" 
d="M505 -65l-10 1q-7 0 -21 4l-31 8q-39 9 -41 11q-39 19 -75 87q-11 -8 -19 -20l-17 -22q-20 -25 -40 -33t-32 -11q-10 -4 -20 -6q-16 -2 -34 -2q-29 0 -49.5 9.5t-36.5 21.5q-18 11 -26 25q-14 21 -13 66q1 23 5 32q6 13 28 40q5 11 21 14q16 2 36 10l43 17q23 9 44 9
q35 0 98 6q17 2 21 17t4 36v91q-26 34 -45 46q-30 19 -73 25q-2 0 -7 -5q-18 -38 -23 -81.5t-7 -84.5l-6 -6l-16 -2q-16 -2 -36 -4q-45 -6 -71 -5.5t-26 22.5q0 11 12 57.5t17.5 60t17.5 33.5q10 18 26 32q32 28 95 28q8 0 12 -1.5t20 -6.5l38 -12q22 -8 43 -18
q43 -21 66 -62q12 32 50 55.5t74 23.5q8 0 36 -10.5t44 -16t30 -12t24 -14.5q22 -16 44 -64q5 -10 9.5 -26t4.5 -21.5t-5.5 -22t-12.5 -34.5q-17 -42 -26 -46h-43q-25 0 -43 6q-10 1 -23 1.5t-27 1.5q-32 2 -49 13l-1 -19q0 -16 3.5 -25.5t3.5 -22.5l-1 -27l1 -11
q0 -26 12 -53.5t25 -43t31.5 -15.5t28 11t14.5 28t7 36t4 36q5 39 17 39q9 -1 24 -9l16 -8q19 -12 31 -26t13 -16q-7 -35 -7 -36l1 -11q0 -20 -41 -45q-69 -43 -141 -43zM304 158q-42 0 -77 -40q-32 -36 -32 -74q0 -21 2 -25q1 -2 11.5 -9.5t14.5 -7.5t24 12q11 0 31 35
t28.5 55.5t8.5 37t-11 16.5zM544 229q4 30 13 45q0 48 -24 88q-8 12 -15 12t-11 -6q-20 -34 -32 -64t-12 -68q0 -12 7.5 -15t20.5 -3t28.5 0.5t30.5 0.5q-2 1 -4 5t-2 5z" />
    <glyph glyph-name="ccedilla" unicode="&#xe7;" horiz-adv-x="547" 
d="M472 437q13 0 24.5 -8.5t11.5 -9.5v-114q0 -10 -12 -17t-22.5 -7t-25 14.5t-34.5 32.5q-53 46 -110 46q-21 0 -37.5 -22t-26.5 -47t-14 -49q-6 -34 -6 -74q-1 -3 -1 -5q0 -37 7 -65q8 -28 20 -52q38 -46 67 -54q70 0 133 61q6 7 9 15t7 16q9 17 28 17.5t25 -9.5t6 -20
q-9 -18 -29.5 -39t-42 -36t-45.5 -24q-43 -16 -104.5 -16t-109.5 11q-47 12 -82 38q-75 57 -75 184q1 88 63 148q71 68 187 69q30 0 55.5 -5.5t62.5 -5.5t71 27zM248 6q8 10 20 10t12 -16t-7 -29.5t-7 -23.5t1 -12l63 -62q6 -8 6 -28t-6 -37q-6 -18 -16 -32q-25 -34 -56 -34
q-46 0 -64 28q-6 10 -6.5 22t5.5 12q9 0 20.5 -8.5t17.5 -12.5t16 -4t20 7q11 8 17 18q14 23 14 40.5t-9 25t-21 12.5l-23 10q-11 4 -15 12v25q0 51 18 77z" />
    <glyph glyph-name="egrave" unicode="&#xe8;" horiz-adv-x="552" 
d="M247 129l-1 -13q0 -44 22 -77q8 -11 14 -14.5t16 -3.5h14q70 0 130 33q11 6 22 18l24 26q11 12 21 21.5t18 9.5t12 -9t4 -14q-1 -10 -25 -37q-26 -28 -57 -46q-31 -17 -67 -29q-69 -22 -138 -22q-1 -1 -2 -1q-68 0 -115 34q-48 34 -86 86q-19 26 -22 55.5t-3 67t31 81.5
t76 79.5t96.5 57.5t85.5 22t66 -6q31 -4 59 -18q66 -32 66 -96q0 -84 -90 -144q-76 -52 -171 -61zM234 203q0 -10 10 -17t28 -7h1q34 0 73 59q37 55 37 98q0 26 -11 41q-20 27 -42.5 27t-39.5 -22q-18 -22 -30 -52q-26 -66 -26 -127zM397 636l1 -5q0 -12 -5 -15t-16 -3h-7
q-2 0 -4 1l-188 60q-1 0 -1 1v2q0 11 8 17q7 6 12 6l1 -1h6h5l188 -60v-3z" />
    <glyph glyph-name="eacute" unicode="&#xe9;" horiz-adv-x="552" 
d="M247 129l-1 -13q0 -44 22 -77q8 -11 14 -14.5t16 -3.5h14q70 0 130 33q11 6 22 18l24 26q11 12 21 21.5t18 9.5t12 -9t4 -14q-1 -10 -25 -37q-26 -28 -57 -46q-31 -17 -67 -29q-69 -22 -138 -22q-1 -1 -2 -1q-68 0 -115 34q-48 34 -86 86q-19 26 -22 55.5t-3 67t31 81.5
t76 79.5t96.5 57.5t85.5 22t66 -6q31 -4 59 -18q66 -32 66 -96q0 -84 -90 -144q-76 -52 -171 -61zM234 203q0 -10 10 -17t28 -7h1q34 0 73 59q37 55 37 98q0 26 -11 41q-20 27 -42.5 27t-39.5 -22q-18 -22 -30 -52q-26 -66 -26 -127zM368 690l4 1q10 0 18 -6t8 -12t-0.5 -6
t-0.5 -1v-1l-188 -60q-2 -1 -4 -1h-7q-11 0 -16 3t-5 15v5q0 2 1 3l188 60h2z" />
    <glyph glyph-name="ecircumflex" unicode="&#xea;" horiz-adv-x="552" 
d="M247 129l-1 -13q0 -44 22 -77q8 -11 14 -14.5t16 -3.5h14q70 0 130 33q11 6 22 18l24 26q11 12 21 21.5t18 9.5t12 -9t4 -14q-1 -10 -25 -37q-26 -28 -57 -46q-31 -17 -67 -29q-69 -22 -138 -22q-1 -1 -2 -1q-68 0 -115 34q-48 34 -86 86q-19 26 -22 55.5t-3 67t31 81.5
t76 79.5t96.5 57.5t85.5 22t66 -6q31 -4 59 -18q66 -32 66 -96q0 -84 -90 -144q-76 -52 -171 -61zM234 203q0 -10 10 -17t28 -7h1q34 0 73 59q37 55 37 98q0 26 -11 41q-20 27 -42.5 27t-39.5 -22q-18 -22 -30 -52q-26 -66 -26 -127zM303 635q-130 -56 -170 -56
q-12 0 -20.5 1.5t-14.5 12.5q5 26 15 32t19.5 9t22.5 9l129 48h3l5 1q28 -3 42 -13l131 -64q2 -2 7 -11t5 -15q0 -12 -25 -12l-130 52q-4 4 -8.5 5t-6.5 1.5t-2 0t-1 -0.5h-1z" />
    <glyph glyph-name="edieresis" unicode="&#xeb;" horiz-adv-x="552" 
d="M247 129l-1 -13q0 -44 22 -77q8 -11 14 -14.5t16 -3.5h14q70 0 130 33q11 6 22 18l24 26q11 12 21 21.5t18 9.5t12 -9t4 -14q-1 -10 -25 -37q-26 -28 -57 -46q-31 -17 -67 -29q-69 -22 -138 -22q-1 -1 -2 -1q-68 0 -115 34q-48 34 -86 86q-19 26 -22 55.5t-3 67t31 81.5
t76 79.5t96.5 57.5t85.5 22t66 -6q31 -4 59 -18q66 -32 66 -96q0 -84 -90 -144q-76 -52 -171 -61zM234 203q0 -10 10 -17t28 -7h1q34 0 73 59q37 55 37 98q0 26 -11 41q-20 27 -42.5 27t-39.5 -22q-18 -22 -30 -52q-26 -66 -26 -127zM157 670q21 14 42.5 14t31.5 -13.5
t10 -34t-14.5 -34t-30.5 -13.5t-25.5 3t-17.5 9t-13 14t-5 18.5t6 20.5t16 16zM359 670q20 14 41.5 14t32 -13.5t10.5 -34t-15 -34t-35 -13.5t-38 12t-18 27.5t6 25.5t16 16z" />
    <glyph glyph-name="igrave" unicode="&#xec;" horiz-adv-x="399" 
d="M212 -8q-53 0 -137 -14q-25 0 -25 26q0 19 10.5 24t24.5 5.5t27.5 1.5t18.5 11v10l1 31v10q0 120 -20 207q-12 18 -29 21t-32.5 3.5t-27 4t-11.5 17.5t14.5 22t34 14t38.5 10l42 14l63 23q40 15 68 15t31.5 -5.5t3.5 -25.5t-6 -32l-1 -173q0 -57 3 -74q4 -21 22 -78
q4 -14 15.5 -21.5t23.5 -12.5t21.5 -10t9.5 -17q0 -21 -39 -21l-12 1q-42 13 -132 13zM316 618l1 -5q0 -12 -5 -15t-16 -3h-7q-2 0 -4 1l-188 60q-1 0 -1 1v2q0 11 8 17q7 6 12 6l1 -1h6h5l188 -60v-3z" />
    <glyph glyph-name="iacute" unicode="&#xed;" horiz-adv-x="399" 
d="M212 -8q-53 0 -137 -14q-25 0 -25 26q0 19 10.5 24t24.5 5.5t27.5 1.5t18.5 11v10l1 31v10q0 120 -20 207q-12 18 -29 21t-32.5 3.5t-27 4t-11.5 17.5t14.5 22t34 14t38.5 10l42 14l63 23q40 15 68 15t31.5 -5.5t3.5 -25.5t-6 -32l-1 -173q0 -57 3 -74q4 -21 22 -78
q4 -14 15.5 -21.5t23.5 -12.5t21.5 -10t9.5 -17q0 -21 -39 -21l-12 1q-42 13 -132 13zM287 672l4 1q10 0 18 -6t8 -12t-0.5 -6t-0.5 -1v-1l-188 -60q-2 -1 -4 -1h-7q-11 0 -16 3t-5 15v5q0 2 1 3l188 60h2z" />
    <glyph glyph-name="icircumflex" unicode="&#xee;" horiz-adv-x="399" 
d="M212 -8q-53 0 -137 -14q-25 0 -25 26q0 19 10.5 24t24.5 5.5t27.5 1.5t18.5 11v10l1 31v10q0 120 -20 207q-12 18 -29 21t-32.5 3.5t-27 4t-11.5 17.5t14.5 22t34 14t38.5 10l42 14l63 23q40 15 68 15t31.5 -5.5t3.5 -25.5t-6 -32l-1 -173q0 -57 3 -74q4 -21 22 -78
q4 -14 15.5 -21.5t23.5 -12.5t21.5 -10t9.5 -17q0 -21 -39 -21l-12 1q-42 13 -132 13zM221 617q-130 -56 -170 -56q-12 0 -20.5 1.5t-14.5 12.5q5 26 15 32t19.5 9t22.5 9l129 48h3l5 1q28 -3 42 -13l131 -64q2 -2 7 -11t5 -15q0 -12 -25 -12l-130 52q-4 4 -8.5 5t-6.5 1.5
t-2 0t-1 -0.5h-1z" />
    <glyph glyph-name="idieresis" unicode="&#xef;" horiz-adv-x="399" 
d="M212 -8q-53 0 -137 -14q-25 0 -25 26q0 19 10.5 24t24.5 5.5t27.5 1.5t18.5 11v10l1 31v10q0 120 -20 207q-12 18 -29 21t-32.5 3.5t-27 4t-11.5 17.5t14.5 22t34 14t38.5 10l42 14l63 23q40 15 68 15t31.5 -5.5t3.5 -25.5t-6 -32l-1 -173q0 -57 3 -74q4 -21 22 -78
q4 -14 15.5 -21.5t23.5 -12.5t21.5 -10t9.5 -17q0 -21 -39 -21l-12 1q-42 13 -132 13zM77 661q21 14 42.5 14t31.5 -13.5t10 -34t-14.5 -34t-30.5 -13.5t-25.5 3t-17.5 9t-13 14t-5 18.5t6 20.5t16 16zM279 661q20 14 41.5 14t32 -13.5t10.5 -34t-15 -34t-35 -13.5t-38 12
t-18 27.5t6 25.5t16 16z" />
    <glyph glyph-name="eth" unicode="&#xf0;" 
d="M215 472q-22 0 -22 22q0 20 36 36l31 12l25 10q-8 16 -19 34l-24 38q-14 22 -14 37q0 22 22 22q76 0 142 -79q47 29 57 29q22 0 23 -23q0 -13 -11 -17l-42 -25q75 -119 103 -284q7 -41 7 -71t-2.5 -66.5t-19 -67.5t-38.5 -53q-22 -24 -48 -36q-46 -21 -120.5 -21
t-130.5 25t-107 86q-21 32 -26.5 68t-5.5 58q0 36 26 86q17 32 30.5 43t43.5 33q114 53 146 53h4q32 0 64 -7q-27 73 -38 96l-51 -24q-31 -14 -41 -14zM233 198q0 -8 0.5 -21.5t3 -40t8.5 -50.5q16 -58 47 -59q37 0 51 19t17.5 44t6 39.5t4.5 28.5q5 35 5 57.5t-3 47.5
t-10 49q-18 60 -40 60q-71 0 -86 -102q-4 -28 -4 -46v-26z" />
    <glyph glyph-name="ntilde" unicode="&#xf1;" horiz-adv-x="631" 
d="M51 -20q-28 4 -28 35q2 14 8 17t16 3l8 -1q28 0 36 24q6 15 6 52q0 3 -1 6v6q0 40 7 90q7 52 7 95.5t-3 76.5l-46 -2h-10q-9 2 -20 6t-11 12t6.5 15t8.5 11q6 -1 11 -1h22q17 0 29 1t18.5 1.5t13 1.5t26.5 1q29 0 78 22q12 -2 20.5 -7.5t12.5 -7.5l-5 -49q2 -2 6 -2
q8 0 30 16q47 21 75 31.5t44 10.5t31.5 -5t31.5 -15q37 -22 51 -54q23 -57 23 -95q0 -16 -4 -42q-8 -49 -9 -73q0 -37 5 -53q4 -16 8 -28q9 -31 15 -33q5 -5 13 -6.5t16 -3.5q18 -5 18 -19t-48 -22q-28 -5 -50 -5q-45 0 -70 18q-71 52 -71 212q0 134 -52 134q-27 0 -49 -26
q-21 -25 -23 -48l-20 -198q0 -35 20 -48.5t53 -16.5q7 -1 7 -10q0 -19 -36 -19q-13 0 -31 5q-36 10 -67.5 10t-126.5 -23zM91 556q-22 0 -22 25.5t17 39.5l41 28q58 38 119 39q31 -1 83 -19l77 -26q25 -8 39 -9q47 0 78 16t56 54q12 0 16.5 -4.5t8.5 -14.5q-9 -46 -59 -72
q-42 -22 -97 -22q-21 0 -72 18q-95 34 -130.5 34t-60 -13.5t-41.5 -30t-29 -30t-24 -13.5z" />
    <glyph glyph-name="ograve" unicode="&#xf2;" 
d="M57 82q-20 29 -23 61t-3 74t29 81.5t74 67.5q94 60 202 60q93 0 157 -93q28 -40 42.5 -87.5t14.5 -96.5t-30 -95q-40 -62 -114 -80q-24 -6 -61.5 -11.5t-44.5 -5.5q-74 0 -135 27t-108 98zM223 183q0 -23 2.5 -50t9.5 -52q17 -61 49 -61q35 0 54 24t28 58q12 46 12 144
q0 42 -10 73q-24 52 -36 58h-2q-61 0 -87 -71q-20 -52 -20 -123zM400 618l1 -5q0 -12 -5 -15t-16 -3h-7q-2 0 -4 1l-188 60q-1 0 -1 1v2q0 11 8 17q7 6 12 6l1 -1h6h5l188 -60v-3z" />
    <glyph glyph-name="oacute" unicode="&#xf3;" 
d="M57 82q-20 29 -23 61t-3 74t29 81.5t74 67.5q94 60 202 60q93 0 157 -93q28 -40 42.5 -87.5t14.5 -96.5t-30 -95q-40 -62 -114 -80q-24 -6 -61.5 -11.5t-44.5 -5.5q-74 0 -135 27t-108 98zM223 183q0 -23 2.5 -50t9.5 -52q17 -61 49 -61q35 0 54 24t28 58q12 46 12 144
q0 42 -10 73q-24 52 -36 58h-2q-61 0 -87 -71q-20 -52 -20 -123zM371 690l4 1q10 0 18 -6t8 -12t-0.5 -6t-0.5 -1v-1l-188 -60q-2 -1 -4 -1h-7q-11 0 -16 3t-5 15v5q0 2 1 3l188 60h2z" />
    <glyph glyph-name="ocircumflex" unicode="&#xf4;" 
d="M57 82q-20 29 -23 61t-3 74t29 81.5t74 67.5q94 60 202 60q93 0 157 -93q28 -40 42.5 -87.5t14.5 -96.5t-30 -95q-40 -62 -114 -80q-24 -6 -61.5 -11.5t-44.5 -5.5q-74 0 -135 27t-108 98zM223 183q0 -23 2.5 -50t9.5 -52q17 -61 49 -61q35 0 54 24t28 58q12 46 12 144
q0 42 -10 73q-24 52 -36 58h-2q-61 0 -87 -71q-20 -52 -20 -123zM306 599q-130 -56 -170 -56q-12 0 -20.5 1.5t-14.5 12.5q5 26 15 32t19.5 9t22.5 9l129 48h3l5 1q28 -3 42 -13l131 -64q2 -2 7 -11t5 -15q0 -12 -25 -12l-130 52q-4 4 -8.5 5t-6.5 1.5t-2 0t-1 -0.5h-1z" />
    <glyph glyph-name="otilde" unicode="&#xf5;" 
d="M57 82q-20 29 -23 61t-3 74t29 81.5t74 67.5q94 60 202 60q93 0 157 -93q28 -40 42.5 -87.5t14.5 -96.5t-30 -95q-40 -62 -114 -80q-24 -6 -61.5 -11.5t-44.5 -5.5q-74 0 -135 27t-108 98zM223 183q0 -23 2.5 -50t9.5 -52q17 -61 49 -61q35 0 54 24t28 58q12 46 12 144
q0 42 -10 73q-24 52 -36 58h-2q-61 0 -87 -71q-20 -52 -20 -123zM48 520q-22 0 -22 25.5t17 39.5l41 28q58 38 119 39q31 -1 83 -19l77 -26q25 -8 39 -9q47 0 78 16t56 54q12 0 16.5 -4.5t8.5 -14.5q-9 -46 -59 -72q-42 -22 -97 -22q-21 0 -72 18q-95 34 -130.5 34
t-60 -13.5t-41.5 -30t-29 -30t-24 -13.5z" />
    <glyph glyph-name="odieresis" unicode="&#xf6;" 
d="M57 82q-20 29 -23 61t-3 74t29 81.5t74 67.5q94 60 202 60q93 0 157 -93q28 -40 42.5 -87.5t14.5 -96.5t-30 -95q-40 -62 -114 -80q-24 -6 -61.5 -11.5t-44.5 -5.5q-74 0 -135 27t-108 98zM223 183q0 -23 2.5 -50t9.5 -52q17 -61 49 -61q35 0 54 24t28 58q12 46 12 144
q0 42 -10 73q-24 52 -36 58h-2q-61 0 -87 -71q-20 -52 -20 -123zM160 661q21 14 42.5 14t31.5 -13.5t10 -34t-14.5 -34t-30.5 -13.5t-25.5 3t-17.5 9t-13 14t-5 18.5t6 20.5t16 16zM362 661q20 14 41.5 14t32 -13.5t10.5 -34t-15 -34t-35 -13.5t-38 12t-18 27.5t6 25.5
t16 16z" />
    <glyph glyph-name="divide" unicode="&#xf7;" horiz-adv-x="508" 
d="M257 170q4 0 13.5 -5t12.5 -9v-5q0 -29 -17.5 -37.5t-30.5 -8.5h-25q-12 0 -15 1q5 26 18.5 45t43.5 19zM94 307l-40 -2q0 20 15 28l83 13l86 12l70 11q34 5 60.5 8.5t39.5 5.5l49 3q0 -3 -4 -14t-6.5 -13.5t-9.5 -6.5t-15 -8q-22 -11 -26 -11.5t-20 -0.5h-36l-57 1
q-56 -7 -189 -26zM195 471q18 25 39.5 33t52.5 8q0 -28 -17 -41.5t-34.5 -13.5t-28 1t-12.5 13z" />
    <glyph glyph-name="oslash" unicode="&#xf8;" horiz-adv-x="582" 
d="M167 -13q-87 -87 -117 -87t-30 13.5t89 112.5q-23 18 -52 56q-19 32 -22.5 65.5t-3.5 56t0.5 29.5t9.5 26t18 35q10 16 18 27q10 13 44 37q88 61 192 66q18 1 31 14q13 0 17 -6q5 -6 19 -14q39 -21 50 -28q56 47 87 47q11 0 24 -3.5t13 -8.5q0 -7 -67 -88q40 -46 49 -75
q14 -45 14 -115q0 -48 -12 -65l-25 -24q-17 -16 -29 -31l-21 -23q-21 -22 -31 -22q-8 -2 -26 -6l-40 -7q-54 -10 -66 -12q-73 0 -133 30zM363 329q-14 48 -31 48q-61 -1 -85 -73q-16 -45 -16 -126v-17q10 13 15.5 23t15.5 24q26 38 80 97zM242 67q13 -47 42 -47
q37 0 52.5 17t19.5 42.5t7 39.5t5 28q6 41 7 64z" />
    <glyph glyph-name="ugrave" unicode="&#xf9;" horiz-adv-x="645" 
d="M551 -33q-98 0 -151 120q-8 -39 -72 -75q-59 -33 -108 -33q-63 0 -110 56q-41 49 -41 108v167q0 12 -6 19.5t-13 15t-13 16t-6 22.5q0 29 98 29h39q37 0 51 -2l37 -13q0 -36 -6 -104q-12 -130 -13 -165v-11q1 -29 5 -38q10 -19 34 -19q17 0 31 10l25 17q2 3 15 21
q25 31 25 35v254q0 31 110 33h51q21 0 28.5 -4.5t7.5 -15t-1 -14t-6 -5.5q-3 -22 -8 -41l-8 -36q-9 -40 -9 -79q0 -155 58 -194q20 -13 34.5 -18t14.5 -6q0 -15 -34 -33q-45 -17 -57 -17h-1h-1zM425 609l1 -5q0 -12 -5 -15t-16 -3h-7q-2 0 -4 1l-188 60q-1 0 -1 1v2
q0 11 8 17q7 6 12 6l1 -1h6h5l188 -60v-3z" />
    <glyph glyph-name="uacute" unicode="&#xfa;" horiz-adv-x="645" 
d="M551 -33q-98 0 -151 120q-8 -39 -72 -75q-59 -33 -108 -33q-63 0 -110 56q-41 49 -41 108v167q0 12 -6 19.5t-13 15t-13 16t-6 22.5q0 29 98 29h39q37 0 51 -2l37 -13q0 -36 -6 -104q-12 -130 -13 -165v-11q1 -29 5 -38q10 -19 34 -19q17 0 31 10l25 17q2 3 15 21
q25 31 25 35v254q0 31 110 33h51q21 0 28.5 -4.5t7.5 -15t-1 -14t-6 -5.5q-3 -22 -8 -41l-8 -36q-9 -40 -9 -79q0 -155 58 -194q20 -13 34.5 -18t14.5 -6q0 -15 -34 -33q-45 -17 -57 -17h-1h-1zM396 672l4 1q10 0 18 -6t8 -12t-0.5 -6t-0.5 -1v-1l-188 -60q-2 -1 -4 -1h-7
q-11 0 -16 3t-5 15v5q0 2 1 3l188 60h2z" />
    <glyph glyph-name="ucircumflex" unicode="&#xfb;" horiz-adv-x="645" 
d="M551 -33q-98 0 -151 120q-8 -39 -72 -75q-59 -33 -108 -33q-63 0 -110 56q-41 49 -41 108v167q0 12 -6 19.5t-13 15t-13 16t-6 22.5q0 29 98 29h39q37 0 51 -2l37 -13q0 -36 -6 -104q-12 -130 -13 -165v-11q1 -29 5 -38q10 -19 34 -19q17 0 31 10l25 17q2 3 15 21
q25 31 25 35v254q0 31 110 33h51q21 0 28.5 -4.5t7.5 -15t-1 -14t-6 -5.5q-3 -22 -8 -41l-8 -36q-9 -40 -9 -79q0 -155 58 -194q20 -13 34.5 -18t14.5 -6q0 -15 -34 -33q-45 -17 -57 -17h-1h-1zM331 635q-130 -56 -170 -56q-12 0 -20.5 1.5t-14.5 12.5q5 26 15 32t19.5 9
t22.5 9l129 48h3l5 1q28 -3 42 -13l131 -64q2 -2 7 -11t5 -15q0 -12 -25 -12l-130 52q-4 4 -8.5 5t-6.5 1.5t-2 0t-1 -0.5h-1z" />
    <glyph glyph-name="udieresis" unicode="&#xfc;" horiz-adv-x="645" 
d="M551 -33q-98 0 -151 120q-8 -39 -72 -75q-59 -33 -108 -33q-63 0 -110 56q-41 49 -41 108v167q0 12 -6 19.5t-13 15t-13 16t-6 22.5q0 29 98 29h39q37 0 51 -2l37 -13q0 -36 -6 -104q-12 -130 -13 -165v-11q1 -29 5 -38q10 -19 34 -19q17 0 31 10l25 17q2 3 15 21
q25 31 25 35v254q0 31 110 33h51q21 0 28.5 -4.5t7.5 -15t-1 -14t-6 -5.5q-3 -22 -8 -41l-8 -36q-9 -40 -9 -79q0 -155 58 -194q20 -13 34.5 -18t14.5 -6q0 -15 -34 -33q-45 -17 -57 -17h-1h-1zM184 670q21 14 42.5 14t31.5 -13.5t10 -34t-14.5 -34t-30.5 -13.5t-25.5 3
t-17.5 9t-13 14t-5 18.5t6 20.5t16 16zM386 670q20 14 41.5 14t32 -13.5t10.5 -34t-15 -34t-35 -13.5t-38 12t-18 27.5t6 25.5t16 16z" />
    <glyph glyph-name="yacute" unicode="&#xfd;" horiz-adv-x="615" 
d="M434 363q-42 0 -42 21q0 1 4 9.5t8 9.5l194 12h1q3 0 13 -9l11 -10q0 -22 -56 -24q-14 0 -25 -1q-13 -89 -42 -171l-47 -136q-19 -54 -32.5 -86t-30.5 -65.5t-37 -66.5t-40 -59q-46 -58 -81 -58h-1q-63 0 -138 87q-40 46 -54 74t-14 37t6 14.5t15 8.5q12 4 34 4t35 -2
t24 -12q25 -24 25 -99q21 -27 30 -36q20 -18 41 -18q23 1 59 61q35 60 35 97.5t-11.5 65t-29 54.5t-38 54.5t-45 68t-59 79.5t-86.5 61q-7 3 -17 5q-11 1 -21 5q-25 9 -25 26.5t14 26t36 13t49 6.5t40 3.5t18 1.5t12.5 -1t16 -2t19.5 -5.5t29 -22.5l34 -42q32 -42 58 -83
l62 -101q14 -18 32 -55h6q4 9 23 71t46 179l-1 15zM415 672l4 1q10 0 18 -6t8 -12t-0.5 -6t-0.5 -1v-1l-188 -60q-2 -1 -4 -1h-7q-11 0 -16 3t-5 15v5q0 2 1 3l188 60h2z" />
    <glyph glyph-name="thorn" unicode="&#xfe;" horiz-adv-x="710" 
d="M392 -118q6 0 6 -16v-11q0 -11 -6 -13l-63 -13h-235q-10 0 -14.5 9t-4.5 16q0 22 12 22h75v120h-86q-7 0 -16 8q-16 14 -16 21q0 8 19 15q5 -1 15 -1h22q37 0 47.5 5.5t10.5 19.5l-2 32q0 85 -4 132t-8 48q-14 2 -30 2h-8q-3 0 -7 -1q-17 0 -33 3q-44 7 -44 47l121 -7
l1 30l-7 112h-12l-44 -7q-8 0 -16.5 9t-8.5 19t9 14.5t21 5.5l24 2q12 1 19.5 6t8.5 8.5t2 5.5q2 5 12 5t14 -2t7 -4q9 -6 15 -6l179 7q18 0 18 -12.5t-2 -18.5t-6.5 -9.5t-11.5 -5.5l-17 -5q-6 -50 -6 -76v-33.5t6 -20.5q21 3 55 3q51 0 168 -40q81 -27 109 -95
q10 -22 10 -52.5t-12 -65t-44 -54.5q-21 -12 -53 -24.5t-35 -12.5l-186 -12l-12 -6q-3 -3 -4 -18l-2 -22v-11v-15v-19t2 -18h48zM349 302q0 -62 -4 -123.5t-4 -123.5q85 0 127.5 18.5t63.5 44t21 67.5q0 28 -7 35l-68 62q-23 21 -87 21q-6 -1 -12 -1h-30z" />
    <glyph glyph-name="ydieresis" unicode="&#xff;" horiz-adv-x="615" 
d="M434 363q-42 0 -42 21q0 1 4 9.5t8 9.5l194 12h1q3 0 13 -9l11 -10q0 -22 -56 -24q-14 0 -25 -1q-13 -89 -42 -171l-47 -136q-19 -54 -32.5 -86t-30.5 -65.5t-37 -66.5t-40 -59q-46 -58 -81 -58h-1q-63 0 -138 87q-40 46 -54 74t-14 37t6 14.5t15 8.5q12 4 34 4t35 -2
t24 -12q25 -24 25 -99q21 -27 30 -36q20 -18 41 -18q23 1 59 61q35 60 35 97.5t-11.5 65t-29 54.5t-38 54.5t-45 68t-59 79.5t-86.5 61q-7 3 -17 5q-11 1 -21 5q-25 9 -25 26.5t14 26t36 13t49 6.5t40 3.5t18 1.5t12.5 -1t16 -2t19.5 -5.5t29 -22.5l34 -42q32 -42 58 -83
l62 -101q14 -18 32 -55h6q4 9 23 71t46 179l-1 15zM203 784q21 14 42.5 14t31.5 -13.5t10 -34t-14.5 -34t-30.5 -13.5t-25.5 3t-17.5 9t-13 14t-5 18.5t6 20.5t16 16zM405 784q20 14 41.5 14t32 -13.5t10.5 -34t-15 -34t-35 -13.5t-38 12t-18 27.5t6 25.5t16 16z" />
    <glyph glyph-name="dotlessi" unicode="&#x131;" horiz-adv-x="398" 
d="M211 -8q-53 0 -137 -14q-25 0 -25 26q0 19 10.5 24t24.5 5.5t27.5 1.5t18.5 11v10l1 31v10q0 120 -20 207q-12 18 -29 21t-32.5 3.5t-27 4t-11.5 17.5t14.5 22t34 14t38.5 10l42 14l63 23q40 15 68 15t31.5 -5.5t3.5 -25.5t-6 -32l-1 -173q0 -57 3 -74q4 -21 22 -78
q4 -14 15.5 -21.5t23.5 -12.5t21.5 -10t9.5 -17q0 -21 -39 -21l-12 1q-42 13 -132 13z" />
    <glyph glyph-name="OE" unicode="&#x152;" horiz-adv-x="821" 
d="M712 73l-30 -1q-46 -6 -92 -14q-89 -15 -98.5 -17t-17.5 -7l-18 -9q-24 -13 -28 -18h-199l-21 13q-100 54 -134 116q-28 51 -28 150q0 186 113 299q37 37 85 61q20 11 30 14t27 3l14 -1q48 -12 78 -22t37.5 -11.5t30.5 -4t47.5 -4.5t46 -4t27.5 -2t16 2t22 4q27 5 34 9
q6 4 22 24q31 40 34 42q11 8 17 8q0 -21 -13 -59q-24 -71 -32 -71h-184l85 -188l14 -1q17 0 28.5 9t22 19.5t21.5 19.5t28 9l-1 -23q-2 -32 -8 -64l-6 -36q0 -3 -6 -8.5t-8 -5.5q-21 28 -28 32h-13l-44 -16q0 -39 -14 -165q0 -7 -14 -49l35 -1h42q77 0 121 33q11 9 15 19
l8 19q9 21 36 21q0 -22 -14 -64q-26 -78 -37 -78q-9 0 -16 6q-14 12 -33 12zM329 596q0 5 -22.5 5t-39.5 -23q-17 -24 -27 -56q-19 -58 -28 -156l-4 -48q-6 -52 -6 -62t1.5 -29.5t4 -40.5t4.5 -39.5t3 -24.5q2 0 14 -22.5t15 -27.5q5 -5 8 -9t6 -7h113q3 0 15 14
q20 23 28.5 38.5t14.5 41.5t9 54q5 48 5 106q0 142 -58 222q-18 27 -36 45t-20 19z" />
    <glyph glyph-name="oe" unicode="&#x153;" horiz-adv-x="786" 
d="M616 -23h-25q-20 1 -35 5l-25 7q-10 3 -22 6q-37 9 -47 17l-20 15q-22 16 -28 25q-19 -2 -29.5 -14t-33 -26.5t-50.5 -28t-54 -13.5q-41 0 -66 9q-140 37 -150 166q3 81 13 94q61 113 153 161q33 18 71 23q50 1 106 -51l26 -26q12 0 28 12l36 28q20 14 40.5 26.5t41 12.5
t39 -7.5t41.5 -15t45 -31.5t39 -51.5t29 -55.5l20 -44q-9 -38 -42 -41q-18 0 -63 -8.5t-63 -11.5q-8 -3 -16 -3q-9 -1 -15 -4q-14 -7 -14 -28l2 -26q6 -25 10 -40q4 -16 8 -24q8 -14 33.5 -14t43.5 3.5t30 9.5t22 13t26 15h2l4 1q11 0 19.5 -6.5t8.5 -20t-18.5 -24.5
t-40.5 -18q-48 -15 -61 -15.5t-19 -0.5zM198 172l1 -4v-6q13 -58 24 -78q24 -40 67 -54q19 2 44 18q46 29 46 49q-1 0 -6.5 13t-9.5 19q-9 26 -9 48t1 34.5t3 23.5q4 22 9.5 36.5t6 19t3.5 9.5q0 15 -14 31q-27 28 -44 28q-26 0 -56 -30q-34 -31 -48 -71q-8 -24 -18 -84v-2z
M616 369q-64 -7 -64 -136v-15q0 -7 1 -13l76 6q9 2 9 29.5t-3 42.5t-7 29q-11 37 -12 57zM675 311q-1 2 -3 2h-2q-4 -1 -3 -6q2 -5 5.5 -5t3.5 3t-1 6z" />
    <glyph glyph-name="Scaron" unicode="&#x160;" horiz-adv-x="620" 
d="M571 478q0 -16 -37 -16q-6 0 -20 12l-34 32l-46 40q-24 22 -50 41q-72 41 -98 44q-88 0 -120 -45q-12 -17 -12 -37.5t11 -38t38 -37.5q58 -43 189 -88q2 2 8 11l13 18q18 24 25 24t11.5 -5.5t4.5 -10.5t-2.5 -11t-6.5 -13q-11 -19 -12 -24q73 -51 99 -89q31 -45 31 -114
q0 -87 -72 -148q-74 -63 -187 -63q-56 0 -110.5 18.5t-88.5 62.5l-2 1q-2 0 -6 -2.5t-4 -4.5l-14 -68q-1 -7 -11.5 -7t-14 2.5t-8.5 10.5l-1 40q0 48 8 140q5 14 22 14t29 -15.5t23 -36.5l22 -42q11 -21 26 -32q9 -9 40 -21q66 -27 110 -27q53 0 86 35q31 33 31 85
q0 33 -55 75q-53 40 -92 40q-7 0 -20 -8q-23 -15 -29 -15q1 5 1 9v7q0 14 -4 22q-112 57 -143 97q-18 24 -23 51t-5 61q0 89 34 147q24 41 67.5 58.5t82 17.5t62.5 -5t46 -14q31 -13 91 -51h8l53 63l12 1q25 0 29 -14q15 -126 15 -177zM152 870l154 -93l156 112q5 5 15.5 5
t16 -6t5.5 -14v-4l-31 -37l-149 -106h-25l-155 100q-10 6 -11.5 10t-1.5 16t4.5 14.5t21.5 2.5z" />
    <glyph glyph-name="scaron" unicode="&#x161;" horiz-adv-x="490" 
d="M282 397q-83 0 -83 -25q0 -31 19 -55t47 -45.5t61.5 -41.5t61.5 -42q66 -52 66 -109q0 -70 -78 -96q-48 -16 -119.5 -16t-118 11t-75 14.5t-34 11.5t-5.5 19.5t5 21t12 18.5q20 26 24 37.5t6 21.5q2 8 6 16q8 18 25.5 18t30 -23t29 -50.5t40 -50.5t62.5 -23q67 0 67 37
q0 31 -70 84q-30 23 -66 48t-66 50q-71 58 -71 100q0 39 20 60q21 22 51 34q41 17 126 24l50 1l76 1q44 0 53 -6q13 -10 13 -38t-0.5 -49t-2.5 -37q-4 -33 -20 -33q-22 0 -39 17.5t-32.5 38.5t-32 38.5t-38.5 17.5zM93 728l154 -93l156 112q5 5 15.5 5t16 -6t5.5 -14v-4
l-31 -37l-149 -106h-25l-155 100q-10 6 -11.5 10t-1.5 16t4.5 14.5t21.5 2.5z" />
    <glyph glyph-name="Ydieresis" unicode="&#x178;" horiz-adv-x="709" 
d="M143 31l-6 34v4q6 22 17 43l23 40q27 50 27 80.5t-7.5 37t-17 7t-17 0.5t-7.5 7.5t5 11.5q4 4 12 7q14 6 29 8q-26 45 -58 131l-43 146v15q-60 1 -80 19q-10 8 -9 24l1 16l146 14q60 0 60 -38l-1 -4v-3l-59 -28q-1 -2 -1 -3v-3q3 -24 21 -90.5t30 -102.5q26 -79 38 -79
h14l144 284q-2 6 -2 28.5t5.5 34t24.5 11.5l82 -2l225 6q0 -29 -39 -41q-22 -6 -47 -7q-8 -32 -45 -59l15 -14q-5 -4 -17 -16l-18 -19l-9 -9v-14l-100 -168l-1 -9q0 -7 4.5 -9.5t10.5 -4t10.5 -4t4.5 -13t-9 -16.5t-21 -10l-24 -7q-13 -4 -19 -14q-54 -81 -79 -184
q-1 -2 -1 -8t3 -15h129l15 -22q-26 -48 -500 -48q0 31 7 43t12 12h122zM233 804q21 14 42.5 14t31.5 -13.5t10 -34t-14.5 -34t-30.5 -13.5t-25.5 3t-17.5 9t-13 14t-5 18.5t6 20.5t16 16zM435 804q20 14 41.5 14t32 -13.5t10.5 -34t-15 -34t-35 -13.5t-38 12t-18 27.5
t6 25.5t16 16z" />
    <glyph glyph-name="Zcaron" unicode="&#x17d;" horiz-adv-x="769" 
d="M719 79q0 12 14 12q29 0 29 -28q0 -40 -25 -69q-26 -30 -66 -30q-11 0 -21 3l-314 67l-175 -42q-20 -14 -37 -23t-32 -9q-31 0 -31 19l1 7l105 253q25 36 25 44q-20 -7 -43.5 -7t-27.5 5t-4 14.5t2.5 19t16.5 12.5l99 19l180 247q-16 31 -93 31q-150 0 -212 -65
q-25 -26 -25 -68q-1 -25 19 -47l14 -14q6 -7 6 -14t-6 -11.5t-17 -4.5t-24 9t-22 23q-19 30 -19 59q0 51 29.5 85.5t72.5 54.5q80 37 180 37h16l204 -44q42 0 76.5 6.5t72.5 6.5h25l-6 -25l-204 -266q-1 -1 -1 -2v-2q0 -9 12.5 -10.5t28 -2.5t28 -3.5t12.5 -13.5
q0 -17 -18 -20.5t-36 -3.5h-35q-17 0 -22 1l-13 -12l-93 -192q0 -1 -1 -2q0 -2 34 -10q59 -14 74 -14q4 0 5 1l143 -44l18 -1q83 0 83 39zM241 843l154 -93l156 112q5 5 15.5 5t16 -6t5.5 -14v-4l-31 -37l-149 -106h-25l-155 100q-10 6 -11.5 10t-1.5 16t4.5 14.5t21.5 2.5z
" />
    <glyph glyph-name="zcaron" unicode="&#x17e;" 
d="M284 61q0 -4 29 -10q47 0 83 13.5t65 32.5t43.5 33.5t31.5 14.5t20 -4.5t3 -14t-2 -20.5q-2 -12 -6 -26q-5 -22 -12.5 -43.5t-7.5 -29.5q-2 -8 -4 -15q-6 -16 -18 -16t-19 7q-88 25 -131 25t-79 -4.5t-73 -10.5q-92 -15 -126 -15t-43 3t-9 16q0 16 12 34q10 17 25 35
t31.5 35t23.5 25l13 16q7 7 14 16q17 22 22 27q15 24 29 49q12 26 26 52q31 59 64 91h-8q-86 0 -134 -21q-48 -20 -68 -46q-10 -12 -21.5 -12t-18.5 9t-7 24t5 35.5t13 38.5q19 42 33.5 42t28 -4t39 -5t70.5 -2l90 -2q167 -4 175.5 -5.5t14.5 -4.5q16 -7 16 -26
q-1 -5 -1 -11q-4 -5 -14 -17l-22 -24q-45 -54 -77 -102l-51 -76l-33 -51q-35 -54 -35 -56zM136 692l154 -93l156 112q5 5 15.5 5t16 -6t5.5 -14v-4l-31 -37l-149 -106h-25l-155 100q-10 6 -11.5 10t-1.5 16t4.5 14.5t21.5 2.5z" />
    <glyph glyph-name="florin" unicode="&#x192;" horiz-adv-x="548" 
d="M501 331q6 0 6 -20t-12 -20h-88l-80 -204q-16 -42 -52.5 -68t-80.5 -26q-19 0 -37 11.5t-28.5 14.5t-31.5 5q-22 3 -42 8q-52 13 -51 46q0 22 19 22q18 0 38 -11q38 -21 58 -21q34 0 47 25l81 143l12 43q-9 3 -23.5 2.5t-28.5 1t-24.5 6t-10.5 22.5t12 17h81q18 -1 23 44
q1 10 1 15h-86q-13 0 -13 22q1 21 77 23q20 0 35 2l6 6q28 100 100 170q80 78 180 78l43 -6q25 -15 53 -34l38 -25q8 -6 11.5 -9.5t3.5 -16t-6 -14.5t-13 -2h-9q-6 0 -10 2l-75 49h-2l-3 1q-20 -1 -60 -45q-52 -60 -86 -128q-8 -18 -9 -26v-6q19 2 35 4.5t34 2.5
q24 0 24 -23q0 -6 -9.5 -13t-15.5 -9l-93 -11q-13 -3 -13 -20l4 -28h71z" />
    <glyph glyph-name="circumflex" unicode="&#x2c6;" horiz-adv-x="409" 
d="M217 731q-130 -56 -170 -56q-12 0 -20.5 1.5t-14.5 12.5q5 26 15 32t19.5 9t22.5 9l129 48h3l5 1q28 -3 42 -13l131 -64q2 -2 7 -11t5 -15q0 -12 -25 -12l-130 52q-4 4 -8.5 5t-6.5 1.5t-2 0t-1 -0.5h-1z" />
    <glyph glyph-name="caron" unicode="&#x2c7;" horiz-adv-x="415" 
d="M44 797l154 -93l156 112q5 5 15.5 5t16 -6t5.5 -14v-4l-31 -37l-149 -106h-25l-155 100q-10 6 -11.5 10t-1.5 16t4.5 14.5t21.5 2.5z" />
    <glyph glyph-name="breve" unicode="&#x2d8;" horiz-adv-x="478" 
d="M454 812q0 -39 -25 -68.5t-61 -49.5q-74 -40 -145.5 -39.5t-119.5 26t-84 81.5q-1 1 -1 2v7q0 15 7 23q36 0 57 -26q9 -11 17.5 -24t26.5 -26q24 -18 79.5 -18t99.5 13t74 49q3 4 7.5 15.5t10.5 23.5q15 30 36 30t21 -19z" />
    <glyph glyph-name="ring" unicode="&#x2da;" horiz-adv-x="236" 
d="M75 896l34 2q39 0 61 -15q42 -28 41 -66q-1 -35 -31 -67q-31 -34 -64 -34q-23 0 -29 7l-56 68q-7 9 -7 30.5t14.5 43.5t36.5 31zM84 783q12 -22 27 -22t25 5q8 6 16 14q16 18 16 40.5t-15 28t-41.5 5.5t-32.5 -9t-6 -21t3 -22t8 -19z" />
    <glyph glyph-name="ogonek" unicode="&#x2db;" horiz-adv-x="198" 
d="M180 43q-46 -56 -98 -56q-28 0 -48 27q-16 23 -16 55l1 18l55 62q1 3 2 13q0 10 4 22q9 28 25 28q11 0 12.5 -6.5t1.5 -28t-9 -40.5q-10 -19 -20 -31l-19 -23q-9 -10 -9 -27q0 -32 29 -32h5q2 0 3 1l63 30h2l4 1q12 0 12 -13z" />
    <glyph glyph-name="tilde" unicode="&#x2dc;" horiz-adv-x="608" 
d="M58 679q-22 0 -22 25.5t17 39.5l41 28q58 38 119 39q31 -1 83 -19l77 -26q25 -8 39 -9q47 0 78 16t56 54q12 0 16.5 -4.5t8.5 -14.5q-9 -46 -59 -72q-42 -22 -97 -22q-21 0 -72 18q-95 34 -130.5 34t-60 -13.5t-41.5 -30t-29 -30t-24 -13.5z" />
    <glyph glyph-name="uni2000" unicode="&#x2000;" horiz-adv-x="459" 
 />
    <glyph glyph-name="uni2001" unicode="&#x2001;" horiz-adv-x="918" 
 />
    <glyph glyph-name="uni2002" unicode="&#x2002;" horiz-adv-x="459" 
 />
    <glyph glyph-name="uni2003" unicode="&#x2003;" horiz-adv-x="918" 
 />
    <glyph glyph-name="uni2004" unicode="&#x2004;" horiz-adv-x="306" 
 />
    <glyph glyph-name="uni2005" unicode="&#x2005;" horiz-adv-x="229" 
 />
    <glyph glyph-name="uni2006" unicode="&#x2006;" horiz-adv-x="153" 
 />
    <glyph glyph-name="uni2007" unicode="&#x2007;" horiz-adv-x="153" 
 />
    <glyph glyph-name="uni2008" unicode="&#x2008;" horiz-adv-x="114" 
 />
    <glyph glyph-name="uni2009" unicode="&#x2009;" horiz-adv-x="183" 
 />
    <glyph glyph-name="uni200A" unicode="&#x200a;" horiz-adv-x="51" 
 />
    <glyph glyph-name="uni2010" unicode="&#x2010;" horiz-adv-x="510" 
d="M428 232q-120 -8 -186 -8h-127q-60 0 -60 23q0 17 26 29l194 -6l144 6q14 0 24 -3t10 -16q0 -25 -25 -25z" />
    <glyph glyph-name="uni2011" unicode="&#x2011;" horiz-adv-x="510" 
d="M428 232q-120 -8 -186 -8h-127q-60 0 -60 23q0 17 26 29l194 -6l144 6q14 0 24 -3t10 -16q0 -25 -25 -25z" />
    <glyph glyph-name="figuredash" unicode="&#x2012;" horiz-adv-x="510" 
d="M428 232q-120 -8 -186 -8h-127q-60 0 -60 23q0 17 26 29l194 -6l144 6q14 0 24 -3t10 -16q0 -25 -25 -25z" />
    <glyph glyph-name="endash" unicode="&#x2013;" horiz-adv-x="581" 
d="M126 224q-71 0 -71 23q0 17 26 29l194 -6l216 6q14 0 23.5 -3t9.5 -16q0 -25 -25 -25q-119 -8 -373 -8z" />
    <glyph glyph-name="emdash" unicode="&#x2014;" horiz-adv-x="653" 
d="M571 232q-120 -8 -258 -8h-198q-60 0 -60 23q0 17 26 29l266 -6l215 6q14 0 24 -3t10 -16q0 -25 -25 -25z" />
    <glyph glyph-name="quoteleft" unicode="&#x2018;" horiz-adv-x="206" 
d="M132 619l-1 -12q-1 -29 25 -50l18 -15q8 -6 8 -16t-20 -10t-40 10q-20 12 -38 26q-31 24 -59 58q-8 10 -8 40t16.5 50.5t48.5 20.5q23 0 38 -11q28 -19 28 -43z" />
    <glyph glyph-name="quoteright" unicode="&#x2019;" horiz-adv-x="205" 
d="M74 619l-16 48q0 34 43 50q11 4 22 4q33 0 49.5 -20.5t16.5 -54.5q0 -26 -9 -37t-25 -27t-34 -30q-45 -36 -71 -36t-26 10t8 16q7 7 17 15q26 21 26 50z" />
    <glyph glyph-name="quotesinglbase" unicode="&#x201a;" horiz-adv-x="214" 
d="M58 -33l-16 48q0 34 43 50q11 4 22 4q33 0 49 -20.5t16 -54.5q0 -26 -9 -36.5t-24.5 -26.5t-33.5 -31q-43 -36 -70 -36t-27 10t8 17q7 7 17 15q26 20 26 49z" />
    <glyph glyph-name="quotedblleft" unicode="&#x201c;" horiz-adv-x="420" 
d="M132 619l-1 -12q-1 -29 25 -50l18 -15q8 -6 8 -16t-20 -10t-40 10q-20 12 -38 26q-31 24 -59 58q-8 10 -8 40t16.5 50.5t48.5 20.5q23 0 38 -11q28 -19 28 -43zM346 619l-1 -12q-1 -29 25 -50l18 -15q8 -6 8 -16t-20 -10t-40 10q-19 12 -37 26q-31 25 -59 58q-8 10 -8 40
t16 50.5t49 20.5q22 0 37 -11q28 -19 28 -43z" />
    <glyph glyph-name="quotedblright" unicode="&#x201d;" horiz-adv-x="419" 
d="M74 619l-16 48q0 34 43 50q11 4 22 4q33 0 49.5 -20.5t16.5 -54.5q0 -26 -9 -37t-25 -27t-34 -30q-45 -36 -71 -36t-26 10t8 16q7 7 17 15q26 21 26 50zM289 619l-16 48q0 25 21.5 39.5t48.5 14.5t43.5 -20.5t16.5 -54.5q0 -26 -9 -37t-25 -27t-34 -30q-45 -36 -70.5 -36
t-25.5 10t8 16l17 15q9 8 17 19t8 31v12z" />
    <glyph glyph-name="quotedblbase" unicode="&#x201e;" horiz-adv-x="455" 
d="M58 -33l-16 48q0 34 43 50q11 4 22 4q33 0 49 -20.5t16 -54.5q0 -26 -9 -36.5t-24.5 -26.5t-33.5 -31q-43 -36 -70 -36t-27 10t8 17q7 7 17 15q26 20 26 49zM299 -33l-16 48q0 34 43 50q11 4 22 4q33 0 49 -20.5t16 -54.5q0 -26 -9 -36.5t-24.5 -26.5t-33.5 -31
q-43 -36 -70 -36t-27 10t8 17t18 15q26 20 25 49z" />
    <glyph glyph-name="dagger" unicode="&#x2020;" horiz-adv-x="356" 
d="M139 367q-52 -12 -59 -13q-45 0 -45 27q0 18 19.5 23.5t43.5 8t43.5 6t19.5 15.5q0 9 -7 25l-2 107q0 67 23 67q6 0 15.5 -6t9.5 -13v-155q0 -30 30 -35q13 -2 28 -1t28 -1q30 -2 30 -27.5t-13 -25.5h-100v-344q0 -7 -11 -7t-16.5 1.5t-8.5 11.5q-1 18 -3 91l-3 108
q-1 35 -1 49l2 43q0 45 -23 45z" />
    <glyph glyph-name="daggerdbl" unicode="&#x2021;" horiz-adv-x="417" 
d="M237 160l1 -46v-15q0 -5 -1 -17t-1 -26q-1 -32 -3 -39q-2 -11 -12 -11q-13 0 -20 18q-5 12 -5 28l7 108q0 14 -7 14h-125q-25 0 -25 25q0 13 9 21.5t27.5 8.5t36 -3.5t42 -3.5t30 8t5.5 24v16q0 61 -4.5 98t-8.5 41l-6 6h-131q-5 8 -7 13.5t-4 10t-2 5.5t6 11t7 10h125
q12 0 12 12l-7 115q0 50 18 53q6 1 12 1q26 0 26 -22l-7 -137q0 -16 11 -16l12 1h28q37 1 68 6q8 0 19.5 -7t11.5 -17.5t-11 -16.5t-27.5 -9t-36.5 -4t-36 -2q-38 -2 -38 -7v-53q0 -46 2 -72l4 -54q25 -7 56 -7l56 7q14 0 26 -10t12 -26q0 -26 -48 -26l-54 1l-43 1v-16z" />
    <glyph glyph-name="bullet" unicode="&#x2022;" horiz-adv-x="278" 
d="M42 246q0 20 11 36.5t28 28.5q35 25 74 25t58 -24.5t19 -61t-26 -61t-67 -24.5q-32 1 -64 23q-32 24 -33 58z" />
    <glyph glyph-name="ellipsis" unicode="&#x2026;" horiz-adv-x="801" 
d="M46 10q-6 10 -6 23.5t7.5 25t19.5 19.5q39 18 50 18h2q27 0 39.5 -17t12.5 -42.5t-17.5 -42.5t-46.5 -17q-40 0 -61 33zM360 78q25 17 51.5 17.5t39.5 -16.5t13 -42.5t-18 -42.5t-37.5 -17t-31.5 4t-21.5 11.5t-16 17.5t-6.5 23.5t7.5 25t19.5 19.5zM653 78q39 18 50 18
h1q27 0 40 -17t13 -42.5t-18 -42.5t-37.5 -17t-31.5 4t-22 11.5t-16 17.5t-6 23.5t7.5 25t19.5 19.5z" />
    <glyph glyph-name="uni202F" unicode="&#x202f;" horiz-adv-x="183" 
 />
    <glyph glyph-name="perthousand" unicode="&#x2030;" horiz-adv-x="1123" 
d="M248 -24l72 7q0 -16 -7.5 -30.5t-26.5 -14.5h-175q-6 0 -12 6t-6 13q0 20 18 25q4 1 16 2.5t25 3.5t24.5 4t16.5 2l322 540l-69 12q-6 1 -6 11.5t8.5 17t16.5 8.5q4 -1 16 -1h41q18 0 26 0.5t19 7t16 6.5t10.5 -3.5t14.5 -3.5l49 7q8 0 17 -4.5t9 -14.5q0 -24 -32 -24
q-8 0 -13.5 -1.5t-15.5 -3.5l-21 -4l-24 -4l-19 -19l-329 -533q-1 -1 -1 -2q0 -5 7.5 -7.5t12.5 -2.5zM599 287q165 0 165 -122q0 -18 -5.5 -39t-18 -51t-32.5 -51q-41 -43 -118 -43q-55 0 -94 41q-38 40 -38 98q0 64 39 113q43 54 102 54zM663 146q0 103 -42 103
q-28 0 -42 -44q-8 -28 -9 -69v-31q8 -36 19 -58t13 -22h6q4 0 19 13.5t23 23.5q13 18 13 84zM37 381l-1 26v9q0 100 75 167q24 13 72 13q32 0 74 -45q41 -43 41 -67v-74l-50 -93q-15 -31 -64 -42q-13 -3 -29 -3t-34 10t-34 24q-28 26 -50 66v9zM186 546q-32 0 -32 -100
q0 -16 1 -28.5t0 -25.5q1 -15 6 -57q22 34 26 64q7 43 7 87t-8 60zM954 -31q-69 0 -122 100v8l-1 26v9q0 52 17.5 92t57.5 75q26 13 72 13q31 0 73 -44q42 -43 42 -68v-74l-50 -93q-18 -31 -64 -41q-14 -3 -25 -3zM981 243q-22 1 -29 -39q-3 -16 -3 -34v-27v-29l1 -25
q0 -13 3 -27l3 -31q21 36 25.5 65t5.5 50.5t1 49.5t-7 47z" />
    <glyph glyph-name="guilsinglleft" unicode="&#x2039;" horiz-adv-x="245" 
d="M172 515q6 7 21.5 7t15.5 -7v-31l-124 -143q-6 -4 -6 -18l68 -105q15 -11 15 -44h-33l-117 162z" />
    <glyph glyph-name="guilsinglright" unicode="&#x203a;" horiz-adv-x="246" 
d="M36 515q0 7 12 7q21 0 25 -7l161 -179l-117 -162h-33q0 11 1.5 23.5t12.5 20.5l69 105q0 12 -6 18l-125 143v31z" />
    <glyph glyph-name="uni205F" unicode="&#x205f;" horiz-adv-x="229" 
 />
    <glyph glyph-name="Euro" unicode="&#x20ac;" horiz-adv-x="721" 
d="M400 5l-32 1h-11q-2 2 -9 6.5t-23 13t-49 28.5q-33 18 -61 44q-65 60 -69 128h-105q-4 0 -12 16q0 25 18 25h93v74h-86q-11 0 -13 4.5t-2 10.5q0 29 78 29h36q29 133 119 211q94 82 223 81q105 0 161 -45q22 -18 22.5 -43.5t-24.5 -25.5h-5q-1 0 -8.5 11.5t-23 24.5
t-33.5 19q-26 10 -81 10l-53 -2q-46 -32 -76 -96q-28 -60 -28 -119l114 4q14 0 18 -4.5t4 -14.5q0 -16 -23.5 -21t-51.5 -6.5t-51.5 -3.5t-23.5 -11v-62l6 -1q8 2 37.5 5.5t44 5.5t22.5 2t18 -1.5t10 -13.5t-10 -19.5t-23 -8.5l-117 -19l-7 -13l50 -173q5 -14 44 -14t75 6
q34 6 64 21q63 32 91 104l11 1q11 0 15.5 -2.5t4.5 -13.5q0 -16 -21.5 -44t-46.5 -52q-24 -24 -51 -36q-46 -22 -139 -21h-10z" />
    <glyph glyph-name="trademark" unicode="&#x2122;" horiz-adv-x="653" 
d="M45 643q0 19 14 19h217q0 -20 -16.5 -27t-36 -8.5t-35.5 -3t-16 -11.5v-151l-13 -13l-12 13q0 7 -2 25t-4 38q-4 46 -7 63q0 13 -12 37l-32 -1l-31 1q-14 3 -14 19zM348 649q0 13 19 13q14 0 48 -44l26 -34q12 -16 20 -22q11 7 29.5 27t20 22t5.5 9.5t8 16.5q3 9 7 16
l5 9l13 2q13 0 17.5 -5.5t7 -16.5t5.5 -32.5t7 -47.5l8 -51q4 -25 5.5 -32.5t1.5 -17.5v-13h-39l-10 64q-6 34 -16 62q-4 -6 -22 -20q-28 -23 -34 -27q-11 -6 -27.5 -6t-16.5 3q-2 1 -6 12t-6 13q-2 1 -8 7l-14 12q-19 16 -23 19v-126q0 -6 -12.5 -10.5t-18.5 -4.5v203z" />
    <glyph glyph-name="uni2639" unicode="&#x2639;" horiz-adv-x="701" 
d="M243 283q0 -14 8 -25.5t19.5 -11.5t14.5 5t5 12q2 12 2 20h-49zM478 252l-1 4v2q-4 5 -13.5 14.5t-12.5 10.5t-13 -4q-8 -5 -10 -7q-2 -3 -3 -13q0 -28 27 -28q9 0 17.5 5t8.5 16zM175 56q0 -13 25 -13h7q5 0 18 9q21 14 33 20q24 10 59 10q73 0 105 -32q6 -6 11 -12
q15 -17 17.5 -18.5t6.5 -1.5h6q27 0 27 20q-1 0 -1 1v5q-32 41 -72 65q-15 9 -22 10t-15 1l-42 1h-36l-42 -1h-9q-2 0 -8 -4q-7 -3 -15 -7l-16 -8l-12 -6q-7 -5 -16 -18t-9 -21zM272 -121l-47 1q-15 4 -50 19t-65 36t-46 47q-28 45 -28 148v31l1 21q0 16 17 60l19 50
q1 6 5 11l8 11q14 21 39 46l35 34q15 15 28 24l18 12q8 6 61.5 17.5t57.5 11.5t12.5 -1t18.5 -3q23 -5 32.5 -9t29.5 -13l39 -19q47 -24 56.5 -31t29.5 -26q21 -19 43 -41q73 -70 78 -86q2 -8 0.5 -22t0 -21t7.5 -17.5t6 -12.5v-19q0 -56 -38 -107l-6 -13l-6 -12l-20 -20
l-28 -28q-14 -14 -26 -25.5t-14 -13.5l-10 -5l-18 -8l-20 -8q-10 -4 -24 -8t-32 -7t-36 -4q-12 -1 -24 -1h-12q-20 0 -35 1h-57z" />
    <glyph glyph-name="smileface" unicode="&#x263a;" horiz-adv-x="696" 
d="M598 529q5 0 5 -6.5t-5 -6.5t-5 6.5t5 6.5zM497 359q2 0 2 17.5t-7.5 25.5t-19.5 8t-19 -2q-8 -4 -15 -8q-17 -11 -17 -22.5t8 -18.5t18 -13h12q38 9 38 13zM245 346h6q17 0 25 6.5t8 20.5t-2.5 25.5t-15.5 11.5t-29.5 -9.5t-16.5 -22t7.5 -19.5t17.5 -13zM226 233
q-19 0 -19 -25q0 -23 14 -41q27 -35 50 -35h151q21 0 48.5 39.5t27.5 61.5q0 8 -1.5 15t-12.5 10q-13 -10 -22 -25q-16 -29 -24 -35t-14 -10l-12 -8l-11 -7q-4 -3 -5 -3l-40 -1h-21q-49 0 -64 13q-3 2 -7.5 10.5t-10.5 17.5q-18 20 -27 23zM259 -7l-27 1q-10 0 -34.5 11
t-28.5 14t-15 13l-23 23q-31 31 -37 40q-32 44 -41.5 93.5t-9.5 99.5t13 90q12 40 28 64l24 38l20 28l19 26q8 12 10 13q13 10 41.5 23.5t33.5 14.5l24 1h41q25 0 54 -3q28 -3 56 -9q47 -11 83.5 -26t45.5 -20t11 -6q55 -48 75 -81q39 -62 39 -123.5t-22.5 -123.5
t-65.5 -112q-2 -2 -16 -12q-195 -78 -253 -77h-7h-38z" />
    <glyph glyph-name="uni2661" unicode="&#x2661;" horiz-adv-x="876" 
d="M83 -44l3 1q11 0 32 -13l50 50l2 6q-2 7 -10 17l-16 21q-8 11 -17 20q-26 31 -30 60t-4 60t6 67.5t22 67.5q37 72 110 72q24 1 48 -9q43 -18 65 -18l13 1q35 46 77 67t100 21q40 -1 87 -27q20 -12 25 -11q6 0 21 16.5t17 20.5q1 2 5 14l8 24l8 24q4 16 10 22l12 12
q14 14 20 18q12 -12 12.5 -13.5t2 -11t3.5 -20.5l3 -20q2 -9 5.5 -14t14.5 -7l22 -2q10 -2 18 -6t8 -18q0 -30 -34 -30l-55 3q-14 0 -28 -14l-25 -25q-10 -10 -10 -11.5t4 -6.5q5 -6 9 -12q12 -17 12 -19q14 -28 14 -48v-33q0 -78 -26 -107l-22 -23l-34 -34l-57 -57
q-5 -2 -15 -9l-16 -11q-10 -7 -28 -23l-34 -28l-29 -26q-13 -12 -17 -15q-7 -7 -11.5 -16t-9.5 -17q-12 -19 -30 -19h-7q-4 0 -10 7l-14 14l-12 12q-22 22 -114 62q-16 7 -19 7h-12l-63 -63q4 -5 4 -19t-4 -19q-7 -2 -13 -4q-8 -3 -14 -5l-16 -5l-19 -6q-11 -2 -21 -4
q-23 -4 -46 -4q0 46 16 66l10 10l16 16l15 15q7 7 10 9h2z" />
    <glyph glyph-name="heart" unicode="&#x2665;" horiz-adv-x="694" 
d="M547 447l34 -1q41 -16 66 -64q23 -45 23 -90q-1 -61 -21 -107q-8 -17 -18 -28l-274 -274l-229 148q-1 1 -5.5 6t-6.5 7q-39 54 -64.5 109t-25.5 123v14l1 35v8q0 3 4 10l7 15q12 24 24 36l21 22q29 29 36.5 32t13.5 5l11 4q6 2 9 2l50 2h30l34 -2l62 -63l12 -1
q14 0 27 11l22 18q30 24 82 24h9q14 0 24 -1h42z" />
    <glyph glyph-name="uni2698" unicode="&#x2698;" horiz-adv-x="683" 
d="M287 -82l4 -43q-27 0 -40 14q-13 13 -21 33l-16 40q-8 20 -21 27.5t-25 13.5l-23 12q-28 14 -36 16t-23 -0.5t-29.5 -2.5t-24.5 5t-10 20t4.5 21t12.5 8q6 2 16 2h20q31 0 37 -2l22 -10l34 -14q46 -21 56 -27l13 76l-1 16q-9 0 -20.5 -1.5t-23.5 -1.5q-2 0 -5 -1
q-32 0 -42 20q-8 15 -13 27l-10 20l-6 15q-3 7 -4.5 13.5t-1.5 13.5v18q0 30 14 66q19 48 44 64q29 17 31 20q9 20 10 42.5t3.5 34t9 20.5t14.5 17l16 17q20 20 22 20l37 3q30 0 44.5 -9t24 -22.5t18.5 -29.5t27 -30q29 28 56.5 40t57 12t48.5 -8.5t34 -23.5q32 -32 32 -75
q0 -17 -1.5 -36t-10.5 -31.5t-18.5 -23.5t-20.5 -21q-25 -21 -51 -21q2 -4 8 -15l12 -23q6 -12 11 -23t7 -15l1 -18q0 -49 -39 -85q-66 -37 -84 -36h-3q-109 0 -165 76q-29 -64 -37 -113h12l63 12h6q38 0 52 -19q6 -7 5 -18q-4 -1 -15 -2.5t-23 -3.5q-39 -6 -50 -11.5
t-19 -11.5q-19 -14 -19 -28v-7z" />
    <glyph glyph-name="uni269C" unicode="&#x269c;" horiz-adv-x="632" 
d="M27 176l-1 28v28l-1 45q0 18 16 38t34.5 35t46 15t48 -11.5t34.5 -30.5q28 -39 28 -90t-16.5 -95.5t-62.5 -75.5q-3 -2 -14.5 -4.5t-14.5 -2.5q0 16 2 19q2 2 8 10l12 16q17 22 19 26q14 23 14.5 46t0.5 45t-1 39t-7 30q-12 29 -52 29q-53 0 -53 -74q1 -9 1 -17
q2 -22 1 -36h26q0 3 4.5 13t3.5 12q-2 2 -13 6.5t-13 6.5l-1 12q0 27 27 27q12 0 12 -2q11 -7 23.5 -21t13.5 -16q2 -2 2 -8v-9q0 -32 -16.5 -45.5t-55 -13.5t-55.5 26zM304 62q-28 10 -38 25l1 93v130l-1 92l-12 76v6q0 31 13 57t21.5 41.5t12.5 25.5t5.5 19t3.5 19l4 20
q2 10 2 13q6 14 15.5 14t9.5 -2q14 -20 14 -34q0 -7 -2 -27q-1 -10 0.5 -20t5 -25t8 -32t8 -32t4.5 -18l1 -13l-1 -12l-9 -42l-16 -72l-16 -71q-8 -33 -9.5 -42t-3.5 -32t-4 -49q-5 -66 -5 -83zM442 75q-6 -13 -18.5 -13t-22 6t-16.5 16q-12 16 -19 42l-2 75l1 44l1 32
q1 2 5.5 12t10.5 22q13 26 23 41q16 26 42.5 32.5t54.5 6.5t28 -2q1 0 16 -14t22.5 -22.5t11.5 -12.5t8 -10l8 -12l7 -10q3 -4 3 -6v-48l1 -44q1 -18 -13 -34q-14 -18 -33.5 -34.5t-42.5 -16.5q-44 0 -67 27.5t-23 68.5q0 25 22 41q21 16 40.5 16t30.5 -12q11 -10 11 -20
q0 -18 -2 -20.5t-11.5 -7.5t-13.5 -5t-13.5 5t-11.5 8q-1 -2 -1 -9v-10q0 -15 9.5 -29.5t28.5 -14.5q2 0 12 5t14.5 8t14 13t10.5 12l1 35q0 19 -1 40t-12 38q-2 3 -8 9l-12 12l-17 17q-3 1 -9 1h-10q-56 0 -80 -56q-18 -40 -17 -103v-15l2 -41q0 -12 10.5 -25t14.5 -19
q10 -15 12 -19z" />
    <glyph glyph-name="uni2766" unicode="&#x2766;" horiz-adv-x="664" 
d="M327 -6l-13 -1q-25 0 -62.5 12.5t-75.5 29.5t-70 41q-70 55 -70 138q0 66 36 116q40 56 100 55l29 -1q21 -11 40.5 -29t22.5 -22l38 113q0 2 -9.5 7t-13.5 5q-3 1 -11 1h-42q-17 3 -44.5 13t-31.5 12q-4 4 -13 12l-19 18q-20 19 -31 33v13q0 5 1.5 15t12.5 10q1 0 11 -5
t12 -7q2 -1 8 -7l12 -12l12 -12l8 -8t10 -6l16 -8q21 -10 23 -10l64 -3l62 3q23 52 37 64t26 12q25 0 25 -20v-6q-24 -36 -38 -50q37 12 75 18q40 7 46 7l30 1h36q64 0 65 -40q0 -12 -16.5 -12t-27 6.5t-25.5 6.5l-19 -1q-58 -10 -118 -22.5t-71 -14.5q-2 -1 -6 -6t-6 -7
l-6 -10q-8 -15 -13 -26t-6 -14h12q28 0 54.5 7t53.5 7q97 0 131 -102v-12q0 -32 -43 -70l-27 -24q-16 -14 -48 -37q-32 -22 -60 -47q-68 -60 -73 -124zM62 214q-5 0 -5 -6.5t5 -6.5t5 6.5t-5 6.5z" />
    <glyph glyph-name="uniE000" unicode="&#xe000;" horiz-adv-x="425" 
d="M0 425h425v-425h-425v425z" />
    <glyph glyph-name="uniE0B5" unicode="&#xe0b5;" horiz-adv-x="737" 
d="M274 138l-2 25q-2 5 -11.5 14t-13 10.5t-12.5 4.5l-20 4q-26 5 -31 5v42q21 0 45 -1t46.5 -19t34.5 -37t12 -50.5t-15 -50t-34 -34.5q-18 -15 -34 -15h-2q-17 1 -40 1q-78 0 -121.5 34t-43.5 116v30q-1 43 19 85q4 10 7 12q51 59 109.5 93t137.5 34q38 0 74.5 -6.5
t74.5 -6.5h6q12 50 25.5 75.5t38 32t46.5 6.5t39 -2q16 -2 28 -10q26 -16 26 -57q0 -42 -26 -54q-17 -8 -68 -8q0 35 28 45q10 4 19 5.5t9 11t-9.5 18.5t-13.5 11q-3 2 -11 2h-21q-10 0 -11 -1.5t-7 -6.5t-12 -11q-16 -16 -17 -20l-2 -30l2 -32q1 -2 11 -11.5t19.5 -17.5
t36.5 -27t54 -41q68 -54 68 -86q0 -13 -12 -19l-32 29q-17 16 -35 30q-41 32 -81 32l-29 -3q-18 -9 -33.5 -28t-16.5 -23q-2 0 -2 -18v-26l2 -31q2 -14 28 -14h9q12 0 26 2t14 20l-1 5q-1 2 -7 6l-12 7q-16 11 -20 12q7 11 20 18.5t22.5 7.5t17.5 -6.5t15 -15.5
q15 -19 15 -35t-8 -27t-20 -18q-22 -13 -52 -13t-47 8q-16 8 -25 24q-14 24 -14 71.5t10.5 67.5t40.5 44q11 7 25 12q-13 9 -42 23q-28 12 -32 14l-10 4q-6 2 -11.5 4t-10.5 3.5t-6 1.5l-51 2h-18q-88 0 -132 -17q-27 -11 -43 -26l-26 -25q-24 -24 -32.5 -34t-13.5 -23.5
t-8 -27.5q-4 -19 -4 -51t9 -52q10 -19 26 -33q34 -28 86 -28q57 0 76 34q7 12 7 30z" />
    <glyph glyph-name="uniE0B6" unicode="&#xe0b6;" horiz-adv-x="737" 
d="M218 435l-2 30q-5 16 -38 38q0 1 -7 1h-21q-10 0 -13.5 -2t-12.5 -11t-9 -18.5t9 -11.5q8 -1 18 -5q28 -9 28 -45q-52 0 -66 7q-28 13 -28 55q0 59 54 67q16 2 38 2q24 0 48 -6q30 -8 44 -48q13 -35 19 -60h6q38 0 74.5 6.5t74.5 6.5q80 0 138 -34t109 -93
q2 -2 6.5 -11.5t8.5 -20t6.5 -22t3.5 -21.5t1 -22v-30q0 -82 -43 -116t-122 -34q-23 0 -40 -1h-2q-16 0 -34 15q-19 16 -34 34.5t-15 50t12 50.5t34.5 37t46.5 19t46 1v-42q-25 0 -64 -13q-4 -2 -13.5 -11t-11.5 -14l-2 -25q0 -64 83 -64q52 0 86 28q36 29 35 79
q0 79 -26 108q-8 10 -25 27l-26 26q-44 44 -138 48q-22 1 -36 1h-26l-51 -2q-1 0 -5.5 -1.5l-10.5 -3.5l-12 -4l-9 -4l-15 -6l-23 -11q-31 -16 -37 -20q14 -5 25 -12q30 -24 41 -44t11 -50.5t-3 -51.5t-12 -37q-19 -32 -70 -32q-50 0 -73 31q-8 11 -8 22t4 21t10 19
q16 22 29 22t26 -7.5t20 -18.5q-1 -1 -7 -5l-12 -7q-17 -10 -20 -13v-5q0 -22 26 -22h22q26 0 28 14l2 31v10q0 34 -2 34q-4 14 -38 42l-12 9l-29 3q-51 0 -115 -62q-16 -16 -32 -29q-13 6 -13 22t20.5 39t47.5 44.5t54 40.5t37 27q26 21 30 29z" />
    <glyph glyph-name="uniE0B7" unicode="&#xe0b7;" horiz-adv-x="712" 
d="M392 108l23 -1q7 -2 21.5 -18t16.5 -18q2 -3 2 -27q0 -39 -62 -39q-72 0 -96 43q-9 16 -9 46t17 50q16 20 34 30q34 20 38 21l26 1h49q31 0 68 -5t71 -34l11 -10l15 -15q18 -17 24 -25v-2l1 -4q0 -8 -6 -14t-14 -6l-6 1q-26 16 -45 30q-20 14 -40 24q-42 22 -98 22
q-18 0 -29.5 -0.5t-21.5 -8.5q-9 -7 -17 -15l-16 -16l-14 -14q-10 -10 -10 -21.5t6 -20.5q6 -10 16 -16q29 -13 43 -15q25 0 25 19q0 15 -10 17t-21.5 2t-21.5 2t-10 17q0 20 27 20h13zM43 233q-19 0 -19 25l1 13q84 20 165.5 22.5t167.5 2.5h170q6 0 22 -2t34 -4
q63 -7 73.5 -11t10.5 -14q0 -21 -24 -21h-5q-7 0 -41.5 0.5t-96 7t-124.5 6.5h-25l-302 -25h-7zM604 264q-5 0 -5 -6t5 -6t5 6t-5 6zM629 434l6 1q8 0 14 -6t6 -15.5t-8 -15.5t-30 -24q-50 -42 -129 -42q-49 0 -69 5q-35 9 -67 34q-14 11 -14 24l1 21v30q0 1 4 8l7 15l8 15
l6 12q13 21 34.5 24t50 3t48 -12t19.5 -53q-1 -14 -17 -32q-29 -30 -43 -30q-30 0 -30 19q0 6 2 6q2 4 13 14q22 20 24 23t-2.5 8.5t-4.5 8.5q-4 0 -15 5.5t-15 3.5q-21 -10 -36 -34t-15 -47v-7q22 -15 63 -25l36 -1q23 0 40 1.5t29 7.5q12 5 23 13l24 16l23 16z" />
    <glyph glyph-name="uniE0B8" unicode="&#xe0b8;" horiz-adv-x="712" 
d="M285 421q2 0 2 -7.5t-8.5 -12.5t-17.5 -5t-20 6.5t-21 16.5q-23 23 -23 39q0 41 19 53t48 12t50 -3q24 -4 41 -36q18 -34 18.5 -36t0.5 -14v-18q0 -11 1 -17q1 -7 0 -11q-2 -7 -16.5 -18.5t-30.5 -19.5q-14 -8 -30 -12q-23 -6 -69.5 -6t-78.5 12t-53.5 30t-30 24
t-8.5 15.5t6 15.5t14 6l6 -1l14 -10l24 -16l23 -16q11 -8 23 -13q18 -9 69 -9l36 1l12 4q39 13 51 21v7q0 23 -15 47t-36 34q-4 2 -15 -3.5t-15 -5.5q0 -3 -4.5 -8.5t-2.5 -7.5q0 -1 6 -7l12 -12q16 -15 19 -19zM109 264q-5 0 -5 -6t5 -6t5 6t-5 6zM688 271l1 -13
q0 -25 -19 -25h-7q-13 0 -64.5 5t-86.5 7.5t-66 5.5t-54.5 4.5t-30.5 2.5h-25q-63 0 -124.5 -6.5t-96 -6.5t-41.5 -1q-8 0 -14 2q-16 4 -15.5 16.5t8 15.5t17 4.5t25.5 3.5t34 4t34 4t22 2h170q86 0 167.5 -2.5t165.5 -22.5zM310 196l26 -1q3 0 29 -15.5t43 -35.5t17 -50
t-9 -46t-24 -26q-28 -17 -62.5 -17t-53 8t-18.5 38q0 17 2 19.5t7 8t11 11.5q16 16 20 17h9l14 1h13q27 0 27 -20q0 -15 -10 -17t-21.5 -2t-21.5 -2t-10 -17q0 -19 25 -19q20 1 36 11q29 19 29 40q0 11 -2 13q-2 3 -8 9l-14 14l-16 16q-8 8 -17.5 15.5t-21 8t-37.5 0.5
t-49 -6t-42 -16.5t-38.5 -24t-45.5 -29.5l-7 -1q-8 0 -13.5 6t-5.5 14v4q0 4 24 26.5t27 25.5q34 29 71 34t62 5h55z" />
    <glyph glyph-name="uniE0B9" unicode="&#xe0b9;" horiz-adv-x="561" 
d="M261 24l-24 1q-1 1 -10 5l-21 10l-24 12q-12 6 -25.5 13t-35.5 28.5t-41 46.5q-44 58 -44 96.5t12 72.5q10 34 30 65q36 57 97 104q66 51 165 51q120 0 174 -101l2 -51v-29l-2 -46q0 -6 -11 -26q-33 -62 -83 -84q-40 -18 -75 -17.5t-57 4t-42 11.5q-43 19 -59 62
q-2 7 -7 21t-5 16q0 50 48 89q46 37 97 37h18q6 -2 20 -9l21 -10q20 -10 21 -26q2 -14 2 -22v-14q0 -8 -12 -20l-18 -18q-6 -6 -9 -7q-8 4 -10.5 7.5t-2.5 13t7 17.5t7 17.5t-6 15.5t-14 10q-23 8 -32 8q-16 0 -34 -8t-33 -20q-35 -29 -35 -62q0 -22 1.5 -24t7.5 -8l15 -15
l16 -16q8 -8 17.5 -16t21.5 -9h30q67 0 95 26q6 5 16 15l20 20l18 18q8 8 8 9q0 2 2 11l4 21q5 30 7 44l1 14q0 52 -45 84q-42 30 -91 30t-90 -14q-40 -14 -74 -40q-65 -49 -104 -136q-8 -21 -10 -30t-2 -35.5t20.5 -61.5t52 -62.5t69 -45t71.5 -17.5q81 0 163 54l52 34h12
v-12q0 -6 -27.5 -32t-34.5 -32q-35 -27 -75 -32q-41 -6 -65 -6h-51z" />
    <glyph glyph-name="uniE0BA" unicode="&#xe0ba;" horiz-adv-x="597" 
d="M242 10l-76 2q-139 54 -139 173q0 55 37 113q36 57 90 80q30 13 59 13h74l42 -1h13q65 -20 65 -107v-37q0 -16 -8.5 -26t-17.5 -19l-33 -33q-14 -14 -18 -17q-17 -14 -35 -14h-38q-64 1 -84 37q-8 14 -7 33q0 71 91 71q43 0 56 -18q6 -8 6 -20.5t-2 -12.5q-3 -5 -37 -14
h-13l-13 13q-10 10 -12 13q-10 -7 -18 -14t-8 -15.5t5 -14.5q5 -7 12 -11q15 -10 32.5 -9t39.5 10.5t39 26.5q37 37 37 84q0 17 -13.5 32.5t-25.5 23.5l-55 2h-32l-51 -2q-54 -4 -97 -61q-41 -54 -41 -109q0 -37 16.5 -60.5t46.5 -45.5q4 -4 19 -12l22 -10q7 -4 9 -4h8
l36 -1h15q42 0 81 6t67.5 28.5t52.5 46.5q26 23 46 51q46 64 46 121q0 2 -4 20l-5 27q-2 10 -8.5 31t-7.5 23q-41 52 -90.5 82.5t-116.5 30.5q-38 0 -74.5 -7t-74.5 -7q0 22 38 38q22 9 54 14h56q93 0 173 -78q24 -23 48 -49.5t31 -58t7 -60t-1.5 -52t-11.5 -43.5
q-65 -114 -151 -163q-25 -14 -50 -26t-26 -12l-31 -1z" />
    <glyph glyph-name="uniE0BB" unicode="&#xe0bb;" horiz-adv-x="821" 
d="M26 340q0 95 103 182l12 1q28 0 63 -27q33 31 68.5 54t82.5 23q39 1 69 -23q32 -25 32 -65v-26l-25 -63q20 -13 43 -18.5t44 -18.5q24 28 51.5 52t62 24t63.5 -13q29 -12 51 -34q50 -47 50 -111q0 -45 -39 -95q-4 -7 -44 -54l-77 -91q-8 -10 -10.5 -16.5t-5.5 -12.5
q-7 -14 -17 -14h-1q-10 1 -39 18.5t-31.5 18.5t-12 3t-19.5 4l-20 4l-26 6q-16 4 -40 18t-48 30l-48 34q-24 16 -54.5 28t-72.5 24t-78.5 30t-61.5 46t-25 82z" />
    <glyph glyph-name="uniE0BC" unicode="&#xe0bc;" horiz-adv-x="884" 
d="M860 585l2 -13l-2 -12q-24 0 -51.5 -7t-33 -10t-11.5 -7q-18 -12 -18 -18v-6q0 -23 7 -43t7 -42l-1 -3v-3q-2 -4 -5.5 -12t-7.5 -16q-10 -19 -13 -23l-19 -22l-37 -40q-50 -54 -53.5 -59t-7 -12.5t-8 -16t-8 -16t-4 -9t-10 -1.5t-13.5 2q-4 4 -7 6q-9 8 -15 7l-3 -1h-2
l-189 -189q-4 -2 -7 -2h-4q-18 0 -34 10.5t-32.5 22.5t-34.5 22.5t-30 10.5h-16q-9 0 -31.5 -24t-24.5 -26.5t-0.5 -13.5t0.5 -13t-5.5 -6t-6.5 -6l-42 -16q-25 -10 -48 -10h-7q-5 0 -11 11t-6 15q3 7 14 24l27 42q6 10 21.5 15t32 8.5t32 10.5t24.5 26q1 1 1 5v6
q0 19 -13.5 39t-19.5 31.5t-6 29t7 43.5q6 25 20 47q31 50 80 50h7q3 0 10.5 -2t15.5 -4l16 -3l7.5 -2.5t5.5 -3.5l8 -4q10 -6 12 -6q5 4 11 14l10 16q4 6 4 8q2 1 7.5 6t5.5 6v7q0 14 -9 30q-17 29 -17 44.5t9 36.5q9 22 23 40q33 46 61 45q26 0 48 -12l34 -19
q20 -11 30 -8l16 5q6 2 11.5 4.5t7.5 2.5l18 1l26 1q21 0 51 -7.5t41.5 -7.5t16.5 1.5t9 9.5t9 20l11 26l11 26q6 12 8 19l12 1l8 -1h5q2 -2 6 -11q6 -11 6 -19l-1 -17q0 -4 2 -5q0 -1 8 -5l17 -7q9 -3 16 -7z" />
    <glyph glyph-name="leaf" unicode="&#x1f33f;" horiz-adv-x="741" 
d="M332 -104l-88 3q-5 0 -16 2l-23 4q-27 4 -32.5 5.5t-10 6.5t-6.5 7l-8 10q-6 7 -11.5 15.5t-11 15.5t-7.5 10h-6q-21 1 -43 -25q-8 -10 -15.5 -18t-17.5 -8q-20 0 -20 25l1 13q18 6 53 48q8 10 10 14t2 17l-1 56v16q5 70 37 113l35 35q14 14 15 15.5t4 10.5q8 21 14 39
l6 23q2 5 3.5 12.5t4 15.5t4 15.5t2.5 10.5t7 14l11 23q47 96 113 138q20 12 39.5 12.5t31 -10t15.5 -26.5q6 -19 6 -64h16q22 18 70 39.5t56 23.5l62 4l64 -4q11 -3 11.5 -12.5t0.5 -28.5t-12 -48q-12 -30 -32 -56q-41 -55 -94 -81q-2 -1 -7.5 -2.5t-12 -4t-12.5 -4.5
q-8 -2 -7 -4v-3q0 -19 25.5 -49t25.5 -47q0 -2 -5 -6.5t-7 -5t-12 -0.5l-40 1q-11 0 -27.5 -7t-33.5 -13q-43 -17 -51 -19l-34 -2h-12q-30 0 -47 8.5t-30.5 19t-29 19t-31.5 8.5q-39 0 -42 -3q-16 -5 -28 -29q-19 -37 -21 -50t-4 -23.5t-4 -22.5l-4 -23q-2 -11 -2 -15l13 -1
l12 1q34 7 66 17t67 10q1 -28 -31 -40q-14 -5 -30 -8q-14 -3 -28 -7q-32 -8 -32 -27.5t16.5 -37t29 -19.5t30 -4t38 -4t38.5 -4t25 -2v-28z" />
    <glyph glyph-name="_1" horiz-adv-x="0" 
 />
    </font>
</defs>
</svg>
